<svg xmlns="http://www.w3.org/2000/svg" viewBox="0 0 3328.85 1400"><defs><style>.cls-1{fill:#fff;}.cls-2{fill:#4f4f4f;}</style></defs><g id="Fix_0001" data-name="Fix 0001"><path class="cls-1" d="M828.68,1119.08h-76v73.52h-72.5v-36.33h33.29V1082.5H604.75v36.07l34.59,1.74v37.28H567.58v35.87c9.54.43,19,1.15,28.49,1.15,5,0,6.33,1.94,6.61,6.56.56,9.29,1.71,18.56,2.66,28.39l33.47,3.88v71.3H603.55v-74.63c-11,1.06-22.33,2-33.57,3.5-1.42.2-3.3,3.84-3.38,6-.64,17.59-1,35.2-1.27,52.8-.16,9.81,0,19.61,0,30.67-16-.77-30.88-.9-45.65-2.28-59.14-5.53-115.68-20.74-168.86-47.41C234.2,1214.87,157.4,1122,115.48,999.4c-17.76-51.93-28.27-105.47-30.3-160.27-1.44-38.85-2.45-78,.51-116.66C93.87,615.7,122.32,514,168,417.13,206.45,335.46,255.59,261,319.49,197c46.56-46.68,98.9-85.23,161.84-107.43,26.75-9.44,54.29-15,83.8-15.24v34.37H605l-.16-.15V145.7H565.8V256.86l36.64,2.43v34.26h36.7c1.43-25.47,2.84-50.63,4.25-75.8l-.13.14,33.48,3.84V147.91h38v33.82l36.54,2.78v73h-34.6v75.29H679.57v37.71H605v36.84h73.23v74.1l75,1.58-.18-.18q.18,54.46.34,108.92a10.43,10.43,0,0,1-.93,2.72l-35.27,2v34.86l34.25,2.6v34.77H678V560.08H641.29V632.6H604.56v73.12H565.91v74.72H639.6V709.35H789.68c1,23.41,1.93,47,2.91,70.95l34.08,3.92v33.83H789.58c.85-12.14,1.68-24,2.62-37.41l-75.41,3.08c-.9-12.08-1.81-24.15-2.75-36.64H680V893.76l34.28,2V969c-36.72,1-73.12,2.81-109.55-.88,0-24.15,0-48.31,0-72.72h-37.8V968h38v37.57H566.39v74.88h36.79v-34.59l37.3-2.67v-34h36.83c.68,11.52,1.34,22.84,2,34.8h74v-35.09h36c.81,11.45,1.6,22.54,2.42,34.16h34.78c.72-11.31,1.42-22.4,2.16-34.09h35.68c.74,11.92,1.48,23.81,2.25,36.28h34.65v73.88h-36l.2.18v-35.19h-37v35.2ZM567.1,522.6v71h34v-71Zm-1.3,333.13h36.88V821.81H565.8ZM677.74,518.62V483.21H643.25v35.41ZM639.2,893c0-10.24.23-20-.21-29.81-.08-1.7-2.93-4.6-4.6-4.68-9.76-.45-19.55-.22-29.69-.22V893Z"/><path class="cls-1" d="M865.49,556.57l-37.14,3v34.27H789.9V484.23l-36.84-1.4.18.18V408.78h36.21c.79,12.07,1.54,23.37,2.31,35.09H828l-.13-.14v38.94h76v37.24l.19-.18c-9.49.48-19,1.61-28.45,1.24-7.61-.31-9.81,3.34-10,9.68-.2,8.7-.19,17.4-.27,26.11Z"/><path class="cls-1" d="M865.09,295.87v36.49c-10.32.57-19.57,1.49-28.82,1.43-6,0-7.74,2.2-7.8,7.93-.1,9-1,18.07-1.66,27.68H754.58V295.21c9.7,0,19-.28,28.3.1,5.36.22,7-1.93,7-6.93.18-9.81.8-19.61,1.28-30.3h37.44V219.26l-38,2.34V167.06c3.89,3.22,5.87,4.67,7.64,6.35,7.73,7.35,15.21,15,23.16,22.08,5.07,4.53,8.42,9.42,7.81,16.47-.45,5.22,1.58,7.28,7.27,7.71,4.2.31,9.46,2.51,12.05,5.67,17.9,21.81,35.21,44.09,53.92,67.74l-37.58,3c0-11.92,0-23.82,0-36.51L829,258v37.92Z"/><path class="cls-1" d="M904.35,969.32H828.54c-.63-11.46-1.27-23.09-1.95-35.62l-34.53-2.29c-2.83-23.23-3.23-46.23.51-69.27.8-4.9,3.47-5.63,7.76-5.59,18.69.17,37.38.07,56.08.07H866V821.47h35.41v35.06H865.71V883c0,13.35.3,26.71-.13,40-.2,6.38,1.31,9,8.3,8.82,9-.27,18,.78,27.58,1.29.89,9.33,2,18,2.44,26.78.28,5.85,2.2,8.5,8.5,8.72,8.74.3,17.44,1.71,26.42,2.67v33.77H902C902.78,993.16,903.56,981.35,904.35,969.32Z"/><path class="cls-1" d="M942,856.83V819.57h35.72V744.9h72.84c0,11-.1,21.61,0,32.19.06,4.43-2.26,5.37-6,5.32-9-.1-18,0-27.59,0v36.88h32.81c-1,13.25-1.94,25.27-2.88,37.57Z"/><path class="cls-1" d="M865.32,1119.09c.31,22.11.85,44.23.79,66.34,0,6.17,1.65,8.67,8,8.44,5.74-.21,11.53.6,19.67,1.11l-28.1,24.72v-25.3H792.2v-38.06h34.22c.79-12.94,1.52-25.1,2.26-37.26l-.2.2h37Z"/><path class="cls-1" d="M828,443.87v-34H938.64v34.45c-1.81.17-3.58.47-5.35.47q-49.63,0-99.26,0a37.84,37.84,0,0,1-6.16-1Z"/><path class="cls-1" d="M938.9,706.12H866.25v-34.2H938.9Z"/><path class="cls-1" d="M903.83,519.91h71.78v36.65H903.85l.16.2q0-18.51,0-37Z"/><path class="cls-1" d="M679.69,1308v-74.63h34.85v18.05c0,14.37-.15,28.75.09,43.12.07,4.17-1.19,6.42-5.32,7.24C699.83,1303.68,690.38,1305.73,679.69,1308Z"/><path class="cls-1" d="M939.7,369.48H903.46V300.12l2.34-.7c11,18.46,22.27,36.75,32.71,55.51C940.57,358.64,939.36,364.16,939.7,369.48Z"/><path class="cls-1" d="M754.8,1233.45h34.43c0,11.24.12,22.29-.14,33.33,0,1.4-1.74,3.33-3.16,4-10,4.94-20,9.62-31.13,14.88Z"/><path class="cls-1" d="M903.85,556.56c-.68,12.11-1.35,24.22-2.05,36.79H865.49V556.57l-.15.19H904Z"/><path class="cls-1" d="M643.39,217.75,605.08,222V185.12h34q2.07,16.38,4.16,32.79Z"/><path class="cls-1" d="M979.61,1006.72V971.51h34.59c0,10.37.25,20.18-.22,30-.09,1.82-3,4.92-4.76,5C999.7,1007,990.14,1006.72,979.61,1006.72Z"/><path class="cls-1" d="M716.83,821.8h34.63v34.1H716.83Z"/><path class="cls-1" d="M792.23,633.65h34.25v34.87H792.23Z"/><path class="cls-1" d="M605,108.66c-.92-10.59-1.83-21.18-2.91-33.65l38.6,7.13v26.34c-12.18,0-24,0-35.86,0Z"/><path class="cls-1" d="M1043.55,672c1.22,10.81,2.46,21.85,3.84,34.1L1017,708.18V672Z"/><path class="cls-1" d="M979.92,1046.11H998.3l-17.15,34.79-1.23-.23Z"/><path class="cls-1" d="M677.91,94.79l23.89,11-.27,1.27H677.91Z"/><path class="cls-1" d="M849.72,1231.93,830,1245.3v-13.37Z"/></g><g id="Layer_16" data-name="Layer 16"><path class="cls-2" d="M2383,1085.12h-48.62v-48.67H2310c-.46-8.54-.87-16.22-1.33-24.79h-23.46c-.44-8.54-.83-16.22-1.25-24.39h-23.32v97.33h-49.6V913h48.36v23.81h24.87v24.42h24.86v24.59h24.49v-72.7H2383Z"/><path class="cls-2" d="M2606.79,912.66h48.3v24.12H2680V961.2h24.86v24.61h24.49V913.14h49.4v171.57h-48.56v-48.22h-24.4c-.47-8.54-.89-16.21-1.35-24.79H2681c-.44-8.54-.84-16.21-1.26-24.41H2656v97.29h-49.25Z"/><path class="cls-2" d="M2581,961.31v123.17h-49v-47.9h-73.5v48.05h-49.6V962h23.82V937.2h24.87v-24h74.33v23.72h24.51v24.43Zm-122.44.79v48.14h72.58V961.81h-24.35V938.22H2482.4V962.1Z"/><path class="cls-2" d="M3052,937.18v49.11h97.69v25h-97.6v48.73H3174.4v24.68h-172V912.92h171.83v24.26Z"/><path class="cls-2" d="M1815.29,1084.69V913.24h171.93V937h-122v48.81h97.25v25.08h-97.64v73.79Z"/><path class="cls-2" d="M2137.36,1060.56h47.88v24.26H2038.15v-24.1h48v-123h-48.3V912.92H2185v23.9h-47.62Z"/><path class="cls-2" d="M2854.21,1035.94H2878v23.68h49.6v-23.43h48.84v24H2953v24.5h-99.49v-23.46h-24.13c-.47-8.53-.89-16.2-1.36-24.77h-23.29V962.05h23.58V937.62h24.86V913h98.67v23.78h24.7v24.7h-48.29c-.41-7.47-.84-15.14-1.3-23.42h-48.09c-.34,7.58-.67,15-1.07,23.69h-23.61Z"/><path class="cls-1" d="M2370.07,1072.16h-48.62v-48.67h-24.38c-.45-8.54-.87-16.21-1.33-24.79h-23.46c-.43-8.54-.83-16.22-1.25-24.38h-23.31v97.32h-49.61V900.05h48.37v23.81h24.86v24.42h24.86v24.59h24.49v-72.7h49.38Z"/><path class="cls-1" d="M2593.83,899.7h48.3v24.12H2667v24.42h24.86v24.61h24.49V900.19h49.4v171.56h-48.56v-48.22h-24.4c-.47-8.53-.89-16.21-1.35-24.79H2668c-.44-8.53-.84-16.21-1.26-24.4h-23.65v97.28h-49.25Z"/><path class="cls-1" d="M2568,948.35v123.17h-49v-47.9h-73.51v48.06h-49.59V949h23.82V924.24h24.86v-24h74.33v23.72h24.51v24.43Zm-122.44.79v48.14h72.58V948.85h-24.35V925.26h-24.37v23.88Z"/><path class="cls-1" d="M3039.08,924.22v49.11h97.69v25h-97.6v48.73h122.27v24.68h-172V900h171.83v24.26Z"/><path class="cls-1" d="M1802.33,1071.73V900.28h171.94v23.77h-122v48.82h97.25V998h-97.64v73.78Z"/><path class="cls-1" d="M2124.4,1047.6h47.88v24.26H2025.19v-24.1h48v-123h-48.3V900H2172v23.91H2124.4Z"/><path class="cls-1" d="M2841.25,1023H2865v23.68h49.59v-23.43h48.84v24h-23.39v24.5h-99.49v-23.46h-24.13c-.47-8.53-.89-16.2-1.36-24.77H2791.8V949.09h23.58V924.67h24.87V900.05h98.66v23.78h24.7v24.7h-48.29c-.41-7.47-.84-15.13-1.3-23.42h-48.09c-.34,7.58-.67,15-1.07,23.69h-23.61Z"/><path class="cls-2" d="M2129.68,817.33H2043V644h-42.64v85.47h-44.89v-85H1912.2V817.14h-87V512.67h86.24v42h43.46v43H1999V555.69h44.11V512.22h86.6Z"/><path class="cls-2" d="M1778.7,817.3h-86.12V732.06h-131v85h-87.19V599.61h42.12v-44h43.47V512.49h131.84v41.92h44.12v44h42.8Zm-216.88-218V685h129V599.15h-43.1V557h-43.23v42.26Z"/><path class="cls-2" d="M2394.06,731.53h-130.4v85.36h-87.91V599.82h42.42v-44h43.47V512.6h131.84v41.6h44.12v44h42.91V816.62h-86.45ZM2306.91,600h-43.29v85.19h128.72V598.4H2351c-.66-14.81-1.25-27.93-1.86-41.66h-42.26Z"/><path class="cls-2" d="M3182.66,774.19H3141v42.72H2920.8V774.75h-43.15V555.52H2920V512.46h219.4v41.83h43.28ZM3094.32,773V557.15H2965.53V773Z"/><path class="cls-2" d="M2832,643.74V817.08H2614.59c-.74-13.3-1.5-26.91-2.34-42.11H2570.7c-.79-15.15-1.5-28.78-2.29-44h-41.47V599.06h42.3V555.73h44.1V512.24h218.21v42.47h-173v43.95h-43.36V729.57h41.52v43.09h87.34v-85.2h-41.58V643.74Z"/><path class="cls-2" d="M1166.53,556V512.43h261.58v43.16h-85.83v261H1253.6V556Z"/><path class="cls-1" d="M2106.69,794.34H2020V621h-42.64v85.47h-44.89v-85h-43.26V794.16h-87V489.69h86.23v42h43.46v43H1976V532.7h44.1V489.23h86.6Z"/><path class="cls-1" d="M1755.71,794.32H1669.6V709.07h-131V794h-87.19V576.62h42.12v-44H1537V489.51H1668.8v41.92h44.12v44h42.79Zm-216.88-218V662h129V576.16h-43.1V534h-43.23v42.26Z"/><path class="cls-1" d="M2371.07,708.54H2240.68V793.9h-87.91V576.84h42.41v-44h43.47V489.61H2370.5v41.6h44.12v44h42.9V793.63h-86.45Zm-87.15-131.49h-43.29v85.2h128.72V575.42H2328c-.66-14.81-1.24-27.94-1.86-41.67h-42.26Z"/><path class="cls-1" d="M3159.67,751.21H3118v42.72H2897.81V751.76h-43.15V532.53H2897V489.47H3116.4V531.3h43.27ZM3071.33,750V534.16H2942.54V750Z"/><path class="cls-1" d="M2809,620.76V794.09H2591.6c-.74-13.3-1.49-26.9-2.34-42.11h-41.55c-.79-15.15-1.5-28.78-2.29-44H2504V576.07h42.3V532.74h44.11V489.25h218.2v42.48H2635.61v43.94h-43.37V706.58h41.53v43.09h87.33V664.48h-41.58V620.76Z"/><path class="cls-1" d="M1143.54,533V489.45h261.58V532.6H1319.3v261h-88.68V533Z"/><path class="cls-1" d="M2106.69,794.34H2020V621h-42.64v85.47h-44.89v-85h-43.26V794.16h-87V489.69h86.23v42h43.46v43H1976V532.7h44.1V489.23h86.6Z"/><path class="cls-1" d="M1755.71,794.32H1669.6V709.07h-131V794h-87.19V576.62h42.12v-44H1537V489.51H1668.8v41.92h44.12v44h42.79Zm-216.88-218V662h129V576.16h-43.1V534h-43.23v42.26Z"/><path class="cls-1" d="M2371.07,708.54H2240.68V793.9h-87.91V576.84h42.41v-44h43.47V489.61H2370.5v41.6h44.12v44h42.9V793.63h-86.45Zm-87.15-131.49h-43.29v85.2h128.72V575.42H2328c-.66-14.81-1.24-27.94-1.86-41.67h-42.26Z"/><path class="cls-1" d="M3159.67,751.21H3118v42.72H2897.81V751.76h-43.15V532.53H2897V489.47H3116.4V531.3h43.27ZM3071.33,750V534.16H2942.54V750Z"/><path class="cls-1" d="M2809,620.76V794.09H2591.6c-.74-13.3-1.49-26.9-2.34-42.11h-41.55c-.79-15.15-1.5-28.78-2.29-44H2504V576.07h42.3V532.74h44.11V489.25h218.2v42.48H2635.61v43.94h-43.37V706.58h41.53v43.09h87.33V664.48h-41.58V620.76Z"/><path class="cls-1" d="M1143.54,533V489.45h261.58V532.6H1319.3v261h-88.68V533Z"/></g></svg>