<svg xmlns="http://www.w3.org/2000/svg" xmlns:xlink="http://www.w3.org/1999/xlink" viewBox="0 0 3328.85 1400"><defs><style>.cls-1{fill:none;}.cls-2{clip-path:url(#clip-path);}.cls-3{clip-path:url(#clip-path-2);}.cls-4{fill:url(#linear-gradient);}.cls-5{clip-path:url(#clip-path-3);}.cls-6{clip-path:url(#clip-path-4);}.cls-7{fill:url(#linear-gradient-2);}.cls-8{fill:url(#linear-gradient-3);}.cls-9{fill:url(#linear-gradient-4);}.cls-10{fill:url(#linear-gradient-5);}.cls-11{fill:url(#linear-gradient-6);}.cls-12{fill:url(#linear-gradient-7);}.cls-13{fill:url(#linear-gradient-8);}.cls-14{fill:url(#linear-gradient-9);}.cls-15{fill:url(#linear-gradient-10);}.cls-16{fill:url(#linear-gradient-11);}.cls-17{fill:url(#linear-gradient-12);}.cls-18{fill:url(#linear-gradient-13);}.cls-19{fill:url(#linear-gradient-14);}.cls-20{fill:url(#linear-gradient-15);}.cls-21{fill:url(#linear-gradient-16);}.cls-22{fill:url(#linear-gradient-17);}.cls-23{fill:url(#linear-gradient-18);}.cls-24{fill:url(#linear-gradient-19);}.cls-25{fill:url(#linear-gradient-20);}.cls-26{fill:url(#linear-gradient-21);}.cls-27{fill:url(#linear-gradient-22);}.cls-28{fill:url(#linear-gradient-23);}.cls-29{fill:url(#linear-gradient-24);}.cls-30{fill:#fff;}.cls-31{fill:#4f4f4f;}</style><clipPath id="clip-path"><rect class="cls-1" x="4226.17" y="-1181.83" width="517.04" height="865.83"/></clipPath><clipPath id="clip-path-2"><path class="cls-1" d="M4226.37-336c140.69,1.79,310.51-94.94,320.48-338s-154.41-485.84-310-487.81S3910.79-925.2,3914.58-682,4085.69-337.76,4226.37-336Z"/></clipPath><linearGradient id="linear-gradient" x1="2343.1" y1="-578.96" x2="4376.41" y2="-578.96" gradientUnits="userSpaceOnUse"><stop offset="0" stop-color="#ff477e"/><stop offset="1" stop-color="#f8a050"/></linearGradient><clipPath id="clip-path-3"><rect class="cls-1" x="386.17" y="-1181.83" width="517.04" height="865.83"/></clipPath><clipPath id="clip-path-4"><path class="cls-1" d="M386.37-336c140.69,1.79,310.51-94.94,320.48-338s-154.41-485.84-310-487.81S70.79-925.2,74.58-682,245.69-337.76,386.37-336Z"/></clipPath><linearGradient id="linear-gradient-2" x1="-1496.9" y1="-578.96" x2="536.41" y2="-578.96" xlink:href="#linear-gradient"/><linearGradient id="linear-gradient-3" x1="584.13" y1="-12.61" x2="707.76" y2="-12.61" xlink:href="#linear-gradient"/><linearGradient id="linear-gradient-4" x1="485.82" y1="178.99" x2="510.35" y2="178.99" xlink:href="#linear-gradient"/><linearGradient id="linear-gradient-5" x1="659.31" y1="178.4" x2="708.94" y2="178.4" xlink:href="#linear-gradient"/><linearGradient id="linear-gradient-6" x1="461.14" y1="-48.63" x2="536.63" y2="-48.63" xlink:href="#linear-gradient"/><linearGradient id="linear-gradient-7" x1="758.57" y1="37.89" x2="856.46" y2="37.89" xlink:href="#linear-gradient"/><linearGradient id="linear-gradient-8" x1="534.45" y1="-12.73" x2="608.68" y2="-12.73" xlink:href="#linear-gradient"/><linearGradient id="linear-gradient-9" x1="560.77" y1="75.75" x2="633.39" y2="75.75" xlink:href="#linear-gradient"/><linearGradient id="linear-gradient-10" x1="807.31" y1="111.75" x2="906.12" y2="111.75" xlink:href="#linear-gradient"/><linearGradient id="linear-gradient-11" x1="486.25" y1="100.39" x2="534.43" y2="100.39" xlink:href="#linear-gradient"/><linearGradient id="linear-gradient-12" x1="982.14" y1="125.41" x2="1029.96" y2="125.41" xlink:href="#linear-gradient"/><linearGradient id="linear-gradient-13" x1="708.68" y1="149.95" x2="732.72" y2="149.95" xlink:href="#linear-gradient"/><linearGradient id="linear-gradient-14" x1="833.39" y1="166.47" x2="856.53" y2="166.47" xlink:href="#linear-gradient"/><linearGradient id="linear-gradient-15" x1="758.2" y1="166.62" x2="783.56" y2="166.62" xlink:href="#linear-gradient"/><linearGradient id="linear-gradient-16" x1="1007.1" y1="178.95" x2="1030.25" y2="178.95" xlink:href="#linear-gradient"/><linearGradient id="linear-gradient-17" x1="931.15" y1="61.63" x2="955.73" y2="61.63" xlink:href="#linear-gradient"/><linearGradient id="linear-gradient-18" x1="908.01" y1="38.66" x2="933.22" y2="38.66" xlink:href="#linear-gradient"/><linearGradient id="linear-gradient-19" x1="782.47" y1="87.17" x2="809.35" y2="87.17" xlink:href="#linear-gradient"/><linearGradient id="linear-gradient-20" x1="734.55" y1="86.9" x2="758.87" y2="86.9" xlink:href="#linear-gradient"/><linearGradient id="linear-gradient-21" x1="560.72" y1="137.48" x2="583.9" y2="137.48" xlink:href="#linear-gradient"/><linearGradient id="linear-gradient-22" x1="362.7" y1="178.22" x2="387.06" y2="178.22" xlink:href="#linear-gradient"/><linearGradient id="linear-gradient-23" x1="560.64" y1="179.03" x2="584.25" y2="179.03" xlink:href="#linear-gradient"/><linearGradient id="linear-gradient-24" x1="114.03" y1="161.57" x2="139.2" y2="161.57" xlink:href="#linear-gradient"/></defs><g id="Fix_0001" data-name="Fix 0001"><g class="cls-2"><g class="cls-3"><path class="cls-4" d="M3558,182.67v-7.26h23.26v7.26h298.91c.26-3.2.52-6.36.78-9.5l22.54,2.34v7.16h51v-9H3930V149.3h24.38c-.21-8.18-.55-16.36-.58-24.54,0-8,.26-16,.44-25.23h24.5q.08,24.91.14,49.83h23.72c.53-8.48,1-16,1.57-25H4052c.88-9.48,1.62-17.44,2.36-25.37,7.47.69,15,1.35,23.4,2.09,0,6.93-.16,13,0,19.12.29,9.3.82,18.59,1.23,27.91-10.15.51-20.3,1.14-30.46,1.49-6.46.22-12.94,0-19.77,0-.45,8.89-.81,16.17-1.21,24.16h-48.65v8.88h74.87v-8.9h23c.92-9.53,1.69-17.48,2.45-25.41,7.47.8,15,1.58,23.31,2.45,0,6-.12,11.31,0,16.59.14,5.09.34,10.19.53,15.27H4153v-8.49h23.28c.47-8.72.87-16.29,1.32-24.85h49.14l0,24.81c12.33.09,24.66.38,37,.21,12.12-.17,24.33,1,37.51-1V149.12h49.41V124.55H4277V99.64h22.64V74.72h-23.94v-49c-5.59,0-10,0-14.43,0l-83.77-.64V.56h49.21V-24.16h-50.39V-72.93L4152.74-74V-97.87c32.94-1.06,65.31.36,98.81-.84v-49.12H4276V-161c0-19-.09-38,0-57,.11-18.15.44-36.29.68-54.44l-25.92,1.54v49.19h-74.33c.61,8.42,1.14,15.63,1.64,22.85l-26.14,2.7v47.57h-25.34v-24.5H4102.2V-196.5h-74.39c.51,8.11,1,15.32,1.4,22.55-8.32,2.46-16.62,1.53-26.09.29V-221.2h-24.94v47.59h-23.56V-247h23V-296l-23.53-1.17c-.34-16.64-.55-32.42.09-49.25h24.72v24.6l25,1.11V-272h24.84c-.21-8.23-.56-16.47-.58-24.7,0-8,.31-16,.48-23.62h23.72c.41,8.2.77,15.46,1.14,22.77h23.32v-47.94l-23.2-1.14V-396.4c-8.2.25-16.39.65-24.59.7-8.41,0-16.83-.27-24.82-.42V-420l23.34-1.07c.49-9.4.89-17.15,1.3-24.9h-24.18c-2.39-15.78-1.84-64,1-73.93h23l.8-25.59q12,.42,24,.8c-.63-8-1.86-16.06,1.21-24.84h23.31q0,12.43,0,24.86h23.67c.57,9.15,1.05,16.69,1.51,23.92h24.62v-23.8h23.5c.52-9.21,1-17.29,1.43-25.37h-25.51c.42-16.49-.82-32.29.84-49.16h24.58v-24.75h49.57c-.68-8-1.72-16,.73-23.75h48.49v23.7l23.75,1v23.47h-23.73q.09,24.68.19,49.38c24.41,1.45,48.78,1.12,73,.13v-48.31l-22.93-1.15v-97.8h23.18c.49,8.26.94,15.83,1.46,24.7l50.06-2.21q-.63-16.47-1.27-32.93c-.19-4.77-.34-9.54-.5-14.35h-99.06v48h-49.73v-23.5l-24.43-1.13v-48.22l-23.92-1.35c-.39-15.85-.77-31.71-1.19-48.95-5.31,0-9.72,0-14.14,0l-59-.63q.45-12.78.89-25.55c4,.47,7.94,1.31,11.91,1.33,24.65.12,49.3,0,74,.1,3.56,0,7.11.49,11.1.79.48,8.41.92,16,1.37,23.67h24.33v73.58h25v-48.65h24.6V-841h23.83c1.78,24.79-.5,49,1.32,72.67h48.2v-23.2L4326.31-793v-23.53l24.34-1.23v-73.93l-49.22-.35c-.38-15.85-.77-31.72-1.19-49.16H4252v-24c16.47-1.55,32.46.64,49.32-1.51v-24h24.6v-49.79h23.74v-48.4l-24.44-1.59v-22.92h-24.86v49l-22.85-1.68c-.5,9.31-1.15,18.61-1.46,27.92-.24,7.27-.05,14.56-.05,22h-25.33v-23.18l-24.79-1.41v-49.2h-48.18v-24.39c12.66,0,24.52.13,36.37,0,12.14-.17,24.36.77,37.45-.74v-24.29h-49.4c-.38-8.73-.72-16.3-1-23.61H4127v47.85H4103c-.28-15.79-.57-31.59-.87-48l-23.71-1.32q.43-12.72.84-25.42c7.49,2.1,14.93,1.56,23.47.2v-24h50c-.46-7.92-.93-15.85-1.41-24l-24.46-1.13c.69-9,1.33-17.22,2-25.43,7.54,2,15,1.77,23.66-.11v-22.3h24.95v47.71h23.7c.43-8.22.83-15.79,1.27-24.37H4227c-.42-7.7-.85-15.39-1.3-23.74l-23.39-1.46v-23.45l23.32-1.29v-27.16h-24.4v2.45H4127.6c-.28,8.11-.56,16.21-.83,24.41H4077c.4-9.2.79-18.09,1.17-26.86h-75.37c-.05,1.11-.1,2.18-.16,3.31h-48.11c-.57,8.73-1.07,16.31-1.56,23.77H3928.4V-1337l-23.49-1v-2.5H3830.2v27h-25.1c.08-9.16,0-18-.06-27H3680.45v2.23H3657v-2.23H2343.1V182.67Zm692.55-56.88V149h-23.45q.39-12.62.79-25.24C4235.31,124.45,4242.81,125.11,4250.5,125.79Zm-47.77-.72v-25c4.77,0,8.44-.11,12.11,0s7.11.51,10.78.79c.68,8.14,1.29,15.34,1.87,22.54Zm-.54-73.77h23.62V74.49h-23.62Zm-25.27-241.81c0-2.71.87-5.42,1.37-8.14,10.14.44,20.29.88,30.44,1.25,5.6.2,11.21.27,17,.4v23.68l-24.47,1.61V-124h-24.35C4176.86-146.89,4176.8-168.7,4176.92-190.51Zm-.68-478.58h-23.61v-23.18h23.61ZM4128-767.79h49.24c-.28,8-.57,16-.86,24.25H4128Zm149.16-123.93h24c0,8,0,15.93,0,24.25h-24Zm-50.19,26.05h23.59v48H4227c-.21-8.11-.55-16.22-.57-24.34S4226.76-858,4226.92-865.67ZM3531.56.32h-23.09V-22.79h23.09Zm25-198.4h-23.17v-23.33h23.17Zm25,272.39H3558V51.5h23.61Zm124.68-916.47c-.28,8-.57,16-.86,24.15h-24.85c.76-9.08,1.42-17.1,2.06-25.09ZM3681.91-1165v-23.22h23.2V-1165Zm174.82,1.81h46.12c2.39,15.24,1.83,64.25-.92,73.55h-21.88c-.45,8.81-.82,16.06-1.22,23.92h-23.11C3853.36-1085.06,3854.15-1154.6,3856.73-1163.19Zm-1.42-26.5v-24.25h49.24c-.29,8-.57,16-.87,24.25Zm171.92,472.31v24.58h-47.7v25h22.89c.8,8.32,1.49,15.53,2.15,22.77-3.94.52-7.88,1.39-11.83,1.43-16.49.17-33,.07-49.48.07H3930v-25.26h23v-23.81l-48.21-1.14c-.22-8.1-.58-16.21-.61-24.31s.28-16,.46-24.92h49.37v25.07c13.12,0,25-.11,36.9,0C4003.16-717.72,4015.41-718.51,4027.23-717.38ZM4004.1-842.76V-865.6h23.26v22.84ZM3880.34-98.27c-8.41,0-16.82-.29-26.44-.48.8-17.87,1.52-34.12,2.22-50.33l23.86,2.49v23.24h24.84c-1-24.49-1.09-49,0-73.1h24.27v48.11l23.94,1.13v97.93h-23.77v24.52h-49.66c-.27-16.61-.5-32.33.11-49h25.06l.09-25.19C3896.72-98.72,3888.53-98.31,3880.34-98.27Zm-76.07-48.91v23.23h-48v-23.23Zm-47.82-26.12v-23.31h23.17v23.31Zm-.27-49.73v-24.21h98.74c-.27,8-.53,16-.81,24.21Zm-.69-320.46c0,7-.16,13.09,0,19.19.29,9.33.81,18.65,1.2,28-8.33,2.7-16.65,1.47-25.75.65-.36-16.56-.53-32.32,0-47.87ZM3731.82-718v-23.81h47.66c.67,8,1.28,15.25,1.84,22.49C3764.78-716.37,3748.24-718.48,3731.82-718Zm23.69,123.12c.21-16.62-.53-32.35.49-49h24.63v49Zm25.43,150.54h23.42v72.8h-23.48C3779.91-395.89,3779.81-420.26,3780.94-444.3Zm.35-76.05V-544H3804v23.63Zm73.38,20.84c.29,9.33.81,18.65,1.2,28-8.32,2.69-16.64,1.47-25.74.64-.36-16.55-.54-32.31,0-47.87h24.48C3854.63-511.73,3854.48-505.61,3854.67-499.51ZM3906-569.69h23.16V-545h-24.35C3904.1-552.9,3903.09-560.81,3906-569.69Zm-1.46,25v24.25h-24v-24.25Zm23.79-48.73-48.26-1.13c.28-8.48.56-17,.82-25.42,4,.43,7.94,1.16,11.91,1.19,16.9.14,33.8,0,50.7.11a93.19,93.19,0,0,1,9.51,1V-570h-23.59C3929.09-577.55,3928.74-585.13,3928.35-593.45Zm-24.92,99.64v23h-23.55v-23Zm.23,198.27c.41,8.19.76,15.44,1.19,24.2h23.35v23.77h-73c-.61-7.91-1.86-15.89,1.42-24.76h23v-23.21ZM3831-421.32v-24.26h24v24.26Zm22.95,51.38v23.19H3831v-23.19Zm1.39-75.93q.42-12.7.83-25.41l23.47.72v24.69ZM3879.77-570h-24v-24.25h24Zm-48.64,396-25,1.75v-24.18h22.8C3829.72-188.45,3830.42-181.25,3831.13-174.06Zm-25.29,76.43H3829v23.21h-23.2Zm.29,49.85h22.8c.79,8.05,1.49,15.24,2.2,22.43l-25,1.75Zm25.2,22.63,22.53,2.39V-.07h-24.59C3830-9.15,3830.69-17.17,3831.33-25.15Zm-2-122.12c.78-10.14,1.43-18.39,2-26.6l22.4,2.35c.78,7.93,1.48,15.09,2.18,22.24ZM3929.35-347h-24v-24.26h24Zm-.12-74.36c-.29-16.62-.51-32.33.1-49h24.74v25.46h23.74v23.54Zm25.14-49.32c-.61-7.92-1.88-15.89.86-23.25h22.62v23.25ZM3905-768.43v-23.21h23.2v23.21ZM3928.38-818c.79-9.12,1.48-17.16,2.16-25.18l22.44,2.6V-818Zm74.23,74.76h-48.22c-.21-8.11-.55-16.22-.58-24.32s.3-16,.46-23.73H3978c.39,8.14.73,15.39,1.11,23.39l23.49,1Zm-24.57-149h-48.38v-24.26h49.25C3978.62-908.52,3978.33-900.54,3978-892.25Zm-25-99.25h-24.59c.74-9,1.39-17.06,2-25l22.54,2.34Zm-22.58,148.14-25.6.92q.39-12.6.79-25.2l22.35,2C3928.85-857.67,3929.64-850.51,3930.43-843.36Zm-51-24.23c0-8.4-.06-16.16,0-23.92.09-8,.32-16,.48-23.73h24.29c0,6.2-.12,11.5,0,16.79.28,10.15.71,20.3,1,30.49C3897-865.48,3888.68-866.46,3879.41-867.59Zm25.15-123.81h-24v-24.25h24Zm-.07,149.29c-.26,8-.52,16-.8,24.22h-73.16v-24.22Zm-25.74,50.63v23.33h-23.16v-23.33Zm-25.12-125.09h-23.82c.44-16.85-.8-32.62.75-48.37h23.07Zm-23.46,222.2v-23l24.93-1.18V-742h24.58v48.53h24.88v24.5H3879.7q.5,24.38,1,48.73l-25.35,1.83V-669l-24.82,1.39c-.49,8.11-.94,15.64-1.41,23.47h-48.19v-23.48L3804-669c.92-9.28,1.72-17.32,2.5-25.32C3814.07-692.32,3821.55-692.64,3830.17-694.37ZM3805.9-768v-23.11H3829V-768Zm23.21-223.38h-23.35v-23.22h23.35Zm-22.77,296.86-26.55,2c.71-10,1.3-18.2,1.88-26.37l22.48,2C3804.93-708.92,3805.64-701.74,3806.34-694.57Zm-2.33-148h-24.28v-24h-23.17v-24.82H3804Zm-24.51-297.65h-24.59c.75-9.06,1.42-17.08,2.06-25.08l22.53,2.4Zm-47.73-23.52v-25.07c4.73,0,8.4-.11,12.06,0s7.12.51,10.74.78c.79,8.12,1.5,15.32,2.2,22.51Zm22.92,99.89v22.79h-23.21v-22.79Zm-.1,272.53v23.75c-16.69.05-32.47.51-48.26-.27v-23.48Zm-121.22,643h23.16v24.67h-24.34C3631.45-131.54,3630.45-139.45,3633.37-148.33Zm-1.46,25V-99.1h-24v-24.26Zm23.78-246.75v23.31h-23.17v-23.31Zm-23.08-26.34V-420h23.1v23.59Zm25.7,223.33h23q.63,11.9,1.24,23.77-12.89.36-25.78.72C3656.47-156.46,3655.05-164.39,3658.31-173.12Zm-.9-24v-24.18h22.8c.79,8.05,1.5,15.24,2.2,22.43Zm-.07-75.35v-24.37h48c.42-8.69.78-16.24,1.13-23.66h23.57v48Zm49.86-149.47-25,1.75v-24.18H3705C3705.79-436.31,3706.49-429.11,3707.2-421.92Zm-1.86-148.23c.75-9.06,1.42-17.09,2.06-25.08l22.53,2.39v22.69Zm-.2,49.73H3681.6v-23h23.54Zm.2,123.77c.75-9.08,1.42-17.1,2.06-25.09l23.65.94c-.29,8-.57,16-.86,24.15Zm1.86-198.77-25,1.74v-24.17H3705C3705.79-609.81,3706.49-602.61,3707.2-595.42Zm-25.88,75.29v24.35h-25.55c.75-9.05,1.42-17.1,2.06-25.1Zm-48.69.81V-543.5h22.8c.79,8,1.49,15.25,2.2,22.43Zm22.78-224h-23.23v-23.37h23.23ZM3655.35-618v23.3h-48V-618Zm-24.49-174.91H3607.4c-.67-7.92-1.92-15.87.84-23.23h22.62Zm-47.76,24.55v-24.25h24v24.25ZM3606.26-717v23h-23.15v-23Zm24.53-225H3606.2c.75-9.06,1.41-17.09,2.05-25.08l22.54,2.4Zm-47.74-23.52v-24.18h22.81c.79,8,1.49,15.24,2.19,22.43Zm23.11,74.9v23.18h-23.61v-23.18ZM3583.05-47.78h22.81c.79,8.05,1.49,15.24,2.19,22.43l-25,1.75Zm25.21,22.62q16.47.63,32.94,1.27c4.77.18,9.54.32,14.36.47V-.07H3606.2C3607-9.14,3607.62-17.17,3608.26-25.16Zm-.42,51.74h22.8c.79,8.05,1.5,15.24,2.2,22.43l-25,1.75Zm24.07,72.6h-24V74.93h24Zm48.52,0h-24.38V76l-23.82-1.33q.42-12.74.82-25.46c10.13.43,20.26.89,30.39,1.27,5.59.21,11.18.3,17,.45ZM3705.12-124h-24.6c.79-9.12,1.48-17.16,2.16-25.18l22.44,2.6Zm0-49.39h-23.55c.34-8.42.69-16.85,1-25.24l22.54,2.39Zm1.53,76.25h23.22v72.74h-23.22ZM3707,26.58h22.81c.79,8.05,1.49,15.24,2.19,22.43l-25,1.75Zm47.74,47.7h-24.59c.75-9.07,1.41-17.09,2-25.07l22.54,2.39Zm.07-495.37h-23.46c-.67-7.92-1.92-15.87.84-23.23h22.62Zm2.18-75,22.54,2.34V-471h-24.59C3755.66-480,3756.31-488,3757-496Zm-1,124.88h24.6v25.45h23.74v23.54h-48.78C3755.7-338.79,3755-354.51,3756-371.17Zm23.27,520H3756.5V125.24h22.74Zm.18-198.56h-23.55V-72.36h23.55Zm1.76,51.31h23V25h-23Zm.16,49.75h22.81c.78,8,1.49,15.24,2.19,22.43l-25,1.75Zm23.12,73.23c.74-17.65,1.43-34.14,2.09-50.61l22.77,2.42c.38,8,.72,15.22,1.13,24h23.34c.73,8.68,1.33,15.87,1.89,23.08C3839.24,126.32,3822.78,124.37,3804.46,124.6ZM3854,174.94c.72-18.35,1.36-34.77,2-51.16l23.68.76q.5,24.15.94,48.36Zm49.45-50.72H3880c-.61-7.92-1.88-15.88.86-23.24h22.62ZM4027.33-24.85h-23.2V-48.06h23.2Zm99.15,148.73h-23.21V100.66h23.21Zm49.6,0h-24.7c.76-17.3,1.47-33.58,2.18-49.85,7.47.81,15,1.58,22.52,2.37Zm1.13-98.49c0,8,0,15.93,0,24.37l-25.53,1.54c.61,8.18,1.14,15.33,1.65,22.49-4.33.52-8.66,1.42-13,1.44-25.37.15-50.73,0-76.1.11-3.52,0-7,.45-11.65.77.53,8.25,1,15.42,1.42,22.61-8.3,2.49-16.58,1.48-24.75.53-2.18-17.24-1.62-39.57,1.47-49.19h96c.43-8.65.8-16.19,1.22-24.67Zm-148-.53V.57h24c0,8,0,15.94,0,24.26ZM4151.3-22.78V-.06h-24.59c.74-9,1.39-17.07,2.05-25.08Q4140-23.94,4151.3-22.78Zm-24-49.65c0,6.91-.16,13,0,19.12.3,9.3.82,18.6,1.23,27.92L4103-22.77c-.39,7.79-.75,15.06-1.15,23h-48.31V-23.15l24.35-1.56V-48l23.6-1.29c.86-9.25,1.61-17.23,2.35-25.19C4111.35-73.84,4118.86-73.17,4127.28-72.43Zm-97.76-101.24c15.72.62,31.47,1.22,48.72,1.87v73.09l23.43,1.06c.7,8.38,1.31,15.58,1.9,22.8-16.58,2.92-33.13.8-50.89,1.36V-147l-25.08-1.61C4028.3-157.69,4028.91-165.69,4029.52-173.67Zm-50.95,75.34c.08-8,.29-16,.45-24.28h48.49v23.68l-23.59,1.43c-.41,8.16-.77,15.41-1.16,23.21h-24.2C3978.56-82.85,3978.5-90.59,3978.57-98.33Zm24,124.47V99.22H3979c-.3-15.83-.59-31.67-.9-48.1H3954.5c-.5,8-1,15.61-1.43,23.13h-48.45c-.36-8.27-.67-15.53-1-23.18l-23.29-1.16V1.65h23.18c.5,8.24,1,15.81,1.42,23.27h23.58c.39-8.24.74-15.8,1.15-24.3h24.42V26.14Zm-47.36-49.09h22.62V.29h-23.48C3953.76-7.63,3952.49-15.59,3955.23-22.95Zm-25.58-348.57v-23.24h48.12c.67,8.05,1.28,15.24,1.86,22.43Zm73,24.81h-23.45q.39-12.62.79-25.24c7.47.68,15,1.34,22.66,2Zm.7-198.66c0-8.41-.06-16.16,0-23.92.09-8,.32-16.05.48-23.73h24.3c0,6.22-.13,11.51,0,16.8.28,10.15.71,20.3,1.06,30.47C4020.91-543.26,4012.61-544.24,4003.34-545.37Zm98.45-24.43h-23.45c-.68-7.92-1.92-15.88.83-23.23h22.62Zm24.84-122.51v48.08L4103-642.78c-.41,8.25-.78,15.53-1.13,22.6-14.19,2.39-89,1.92-99-.77.63-7.78,1.28-15.79,1.93-23.8,12.82,2.08,38.38,1.68,48.46-1.1v-21.78c16.93-1.85,33,.74,49.81-1.83v-22.85Zm-97.38-76v-24.25h24c0,8,0,15.94,0,24.25Zm24.33-24.55v-24.49h49.26c-.29,8-.58,16-.88,24.49ZM4076.86-742v48.29h-23.1V-742Zm99.22-125.59h-24.7c.76-17.3,1.47-33.58,2.18-49.85q11.2,1.22,22.52,2.37Zm49.57-121.83v97h-23.91c0-32.32,0-63.63.06-95,0-1.5.8-3,1.26-4.46Zm-48.51-49.78h24.5c0,7-.16,13.12,0,19.22.29,9.33.82,18.66,1.25,28l-25.78,1.79C4176.78-1007.91,4176.6-1023.68,4177.14-1039.2Zm-24.81-.11v74h23.89v23.65l-24.54,1.46c.6,8.09,1.13,15.29,1.64,22.51L4127-915v48.83l-23-1.7q0,12.25-.08,24.51c-16.65,3.19-33.3.84-50.65,1.56-1-25.62.36-49.77-.88-75h-73.2c-.51-7.87-1-15.76-1.6-24.65h-22.74v-24.77h23.2c.4-8.67.75-16.19,1.13-24.59h24.45V-942h24.91v-23.82h24.54v-49.7H4077c.5-8.7.94-16.26,1.37-23.8Zm-123.1-50.13v-24.11h22.9c.67,8,1.28,15.24,1.86,22.45Zm24.21,24.48c-.38,7.94-.77,15.87-1.16,23.92h-23.43v-23.91Zm.9-25.8q11.84.39,23.72.74v24.74h-24.3Q4054-1078,4054.34-1090.76Zm-50.53-49.31v-24.3h74.24c-.28,8-.57,16-.86,24.3Zm23.6,125.87v23.05H4004q.43-12.72.87-25.44Zm-22.78-2.6c-8.33.6-16.64,1.18-25,1.76v-24.18h22.8C4003.22-1031.17,4003.93-1024,4004.63-1016.8Zm121.85-71.68v22.58h-24.6c.79-9.12,1.48-17.16,2.17-25.18Zm-47-26.5h23.17q.63,11.88,1.24,23.76l-25.6.9C4077.6-1098.2,4076.6-1106.11,4079.52-1115Zm-1.8-148.34c.08-8,.3-16,.46-23.75h48.18c.79,8,1.5,15.24,2.2,22.42l-25.49,2.56c-.4,7.78-.77,15-1.17,22.86h-24.2C4077.7-1247.81,4077.64-1255.57,4077.72-1263.32Zm-23.73,50.6h22.8c.79,8,1.49,15.24,2.2,22.42l-25,1.76ZM4028.8-1336.6h23.42v72.81h-23.48C4027.77-1288.19,4027.67-1312.56,4028.8-1336.6ZM4004-1239.53v-23.94h24.45c-.19,24.51-.38,49-.58,73.65h-50c.79-17.35,1.54-33.66,2.27-50C3987.58-1237.38,3995-1238.13,4004-1239.53Zm-.45,124.1H3978c.75-9.06,1.41-17.09,2.07-25.1l23.47.75ZM3980-1311.82h22.63v23.24h-23.49C3978.55-1296.5,3977.27-1304.46,3980-1311.82Zm-25.84,23.57h24.7q.55,24.16,1.13,48.35c-8.37,2.83-16.74,1.34-26.17,1C3953.93-1255.7,3953.39-1271.47,3954.17-1288.25Zm1.06,125.13h22.41c.8,8,1.5,15.22,2.2,22.38l-25.43.85C3953.73-1147.8,3952.5-1155.75,3955.23-1163.12Zm-25.12,23.54h24v24.25h-24Zm-.65,50c25.06,0,49.07-.32,73.08.2v23.7c-24.89,0-49,0-73.08,0Zm-.28,24.21q.56,24.26,1.05,48.57l-25.38.88c-.22-8.08-.57-16.15-.61-24.23s.26-16,.44-25.22Zm-17.92-197.78c5.59.2,11.19.29,17,.44v48.51h-23.46c-.47-7.82-1-15.64-1.44-23.64L3879-1239c.69-9,1.32-17.21,2-25.42C3891-1264,3901.14-1263.57,3911.26-1263.19Zm-105.46-25.15h49.25v-48.5h23.63c.53,8.21,1,15.79,1.57,24.45h22.94v23.93l-24.16,1.13c.6,8.23,1.13,15.42,1.61,22.64-10.14.51-20.27,1.13-30.42,1.48-6.45.22-12.91,0-20.54,0v48.66H3805.8Zm-.36,125.4h24.41c0,4.76.09,8.44,0,12.11s-.46,7.11-.69,10.56h-23.69Zm-24.83,49.32h23.83c.47,8.34.9,15.9,1.39,24.49h23.37v23.45h-48.65C3780.21-1082.24,3780-1098,3780.61-1113.62Zm-24.1-148.74h23.16v23.18h-23.16Zm-25.06-49.38h23.26v22.83h-23.26Zm-24.63,297.16h23v73h-23Zm-.52,99.5h24.4c0,4.76.1,8.44,0,12.11s-.46,7.11-.69,10.56H3706.3Zm1.08,49.4H3730v23.23h-23.45C3705.87-850.37,3704.63-858.33,3707.38-865.68Zm-25.53-446.06h23.32V-1239h-23.32Zm.56,468.46-25,1.74v-24.17h22.8C3681-857.67,3681.71-850.47,3682.41-843.28Zm-16.34-271.19c4.77.19,9.54.32,14.25.47v23.33H3631c.79-9.13,1.48-17.18,2.16-25.2Q3649.58-1115.17,3666.07-1114.47Zm-10.43-25.41h-23.45c-.68-7.92-1.92-15.88.83-23.23h22.62ZM3631-1189.8c.75-9.06,1.42-17.09,2.06-25.08l22.53,2.4v22.68Zm1.72-122.45h22.93v23.42H3632.7Zm-24.86,73.85c4.73,0,8.4-.1,12.06,0s7.11.51,10.74.79c.79,8.12,1.5,15.32,2.2,22.51l-25,1.74Zm0,98.82h24.1q.54,11.79,1.07,23.58l-25.17,1.88ZM3606-1039v22.68h-24.59c.75-9.06,1.42-17.08,2.06-25.08Zm-47.73-25h22.8c.79,8,1.49,15.24,2.2,22.43l-25,1.75Zm-24.82-99.2h23.13V-1140h-23.13ZM3533-469.27h48v23.34h-48ZM3508.54-965h23.18v48.16h-23.18Zm-.21,421.59H3532v22.92h-23.62ZM3508-146.71h23.59v47.44H3508Zm-1,320.33h-23.1V150H3507Zm-23.78-1187.85h23.55v22.67h-23.55Zm-24.29-223.48h23.91c0,5.25.1,8.93,0,12.6s-.46,7.1-.69,10.45h-23.2Zm-.11,694.35h23.62v22.8h-23.62Z"/></g></g><g class="cls-5"><g class="cls-6"><path class="cls-7" d="M-282,182.67v-7.26h23.26v7.26H40.12c.26-3.2.52-6.36.78-9.5l22.54,2.34v7.16h51v-9H90V149.3h24.38c-.21-8.18-.55-16.36-.58-24.54,0-8,.26-16,.44-25.23h24.5q.08,24.91.14,49.83h23.72c.53-8.48,1-16,1.57-25H212c.88-9.48,1.62-17.44,2.36-25.37,7.47.69,15,1.35,23.4,2.09,0,6.93-.16,13,0,19.12.29,9.3.82,18.59,1.23,27.91-10.15.51-20.3,1.14-30.46,1.49-6.46.22-12.94,0-19.77,0-.45,8.89-.81,16.17-1.21,24.16H138.88v8.88h74.87v-8.9h23c.92-9.53,1.69-17.48,2.45-25.41,7.47.8,15,1.58,23.31,2.45,0,6-.12,11.31,0,16.59.14,5.09.34,10.19.53,15.27H313v-8.49h23.28c.47-8.72.87-16.29,1.32-24.85h49.14l0,24.81c12.33.09,24.66.38,37,.21,12.12-.17,24.33,1,37.51-1V149.12h49.41V124.55H437V99.64h22.64V74.72H435.71v-49c-5.59,0-10,0-14.43,0l-83.77-.64V.56h49.21V-24.16H336.33V-72.93L312.74-74V-97.87c32.94-1.06,65.31.36,98.81-.84v-49.12H436V-161c0-19-.09-38,0-57,.11-18.15.44-36.29.68-54.44l-25.92,1.54v49.19H336.45c.61,8.42,1.14,15.63,1.64,22.85L312-196.19v47.57H286.61v-24.5H262.2V-196.5H187.81c.51,8.11,1,15.32,1.4,22.55-8.32,2.46-16.62,1.53-26.09.29V-221.2H138.18v47.59H114.62V-247h23V-296l-23.53-1.17c-.34-16.64-.55-32.42.09-49.25h24.72v24.6l25,1.11V-272h24.84c-.21-8.23-.56-16.47-.58-24.7,0-8,.31-16,.48-23.62h23.72c.41,8.2.77,15.46,1.14,22.77h23.32v-47.94l-23.2-1.14V-396.4c-8.2.25-16.39.65-24.59.7-8.41,0-16.83-.27-24.82-.42V-420L187.56-421c.49-9.4.89-17.15,1.3-24.9H164.68c-2.39-15.78-1.84-64,1-73.93h23l.8-25.59q12,.42,24,.8c-.63-8-1.86-16.06,1.21-24.84h23.31q0,12.43,0,24.86h23.67c.57,9.15,1.05,16.69,1.51,23.92h24.62v-23.8h23.5c.52-9.21,1-17.29,1.43-25.37H287.26c.42-16.49-.82-32.29.84-49.16h24.58v-24.75h49.57c-.68-8-1.72-16,.73-23.75h48.49v23.7l23.75,1v23.47H411.49q.09,24.68.19,49.38c24.41,1.45,48.78,1.12,73,.13v-48.31l-22.93-1.15v-97.8h23.18c.49,8.26.94,15.83,1.46,24.7l50.06-2.21q-.63-16.47-1.27-32.93c-.19-4.77-.34-9.54-.5-14.35H435.58v48H385.85v-23.5l-24.43-1.13v-48.22l-23.92-1.35c-.39-15.85-.77-31.71-1.19-48.95-5.31,0-9.72,0-14.14,0l-59-.63q.45-12.78.89-25.55c4,.47,7.94,1.31,11.91,1.33,24.65.12,49.3,0,74,.1,3.56,0,7.11.49,11.1.79.48,8.41.92,16,1.37,23.67h24.33v73.58h25v-48.65h24.6V-841h23.83c1.78,24.79-.5,49,1.32,72.67h48.2v-23.2L486.31-793v-23.53l24.34-1.23v-73.93L461.43-892c-.38-15.85-.77-31.72-1.19-49.16H412v-24c16.47-1.55,32.46.64,49.32-1.51v-24h24.6v-49.79h23.74v-48.4l-24.44-1.59v-22.92H460.35v49l-22.85-1.68c-.5,9.31-1.15,18.61-1.46,27.92-.24,7.27-.05,14.56-.05,22H410.66v-23.18l-24.79-1.41v-49.2H337.69v-24.39c12.66,0,24.52.13,36.37,0,12.14-.17,24.36.77,37.45-.74v-24.29h-49.4c-.38-8.73-.72-16.3-1-23.61H287v47.85H263c-.28-15.79-.57-31.59-.87-48l-23.71-1.32q.44-12.72.84-25.42c7.49,2.1,14.93,1.56,23.47.2v-24h50c-.46-7.92-.93-15.85-1.41-24L286.81-1239c.69-9,1.33-17.22,2-25.43,7.54,2,15,1.77,23.66-.11v-22.3h24.95v47.71h23.7c.43-8.22.83-15.79,1.27-24.37H387c-.42-7.7-.85-15.39-1.3-23.74l-23.39-1.46v-23.45l23.32-1.29v-27.16h-24.4v2.45H287.6c-.28,8.11-.56,16.21-.83,24.41H237c.4-9.2.79-18.09,1.17-26.86H162.82c0,1.11-.1,2.18-.16,3.31H114.55c-.57,8.73-1.07,16.31-1.56,23.77H88.4V-1337l-23.49-1v-2.5H-9.8v27H-34.9c.08-9.16-.05-18-.06-27H-159.55v2.23H-183v-2.23H-1496.9V182.67ZM410.5,125.79V149H387.05q.39-12.62.79-25.24C395.31,124.45,402.81,125.11,410.5,125.79Zm-47.77-.72v-25c4.77,0,8.44-.11,12.11,0s7.11.51,10.78.79c.68,8.14,1.29,15.34,1.87,22.54Zm-.54-73.77h23.62V74.49H362.19ZM336.92-190.51c0-2.71.87-5.42,1.37-8.14,10.14.44,20.29.88,30.44,1.25,5.6.2,11.21.27,16.95.4v23.68l-24.47,1.61V-124H336.86C336.86-146.89,336.8-168.7,336.92-190.51Zm-.68-478.58H312.63v-23.18h23.61ZM288-767.79h49.24c-.28,8-.57,16-.86,24.25H288ZM437.11-891.72h24c0,8,0,15.93,0,24.25h-24Zm-50.19,26.05h23.59v48H387c-.21-8.11-.55-16.22-.57-24.34S386.76-858,386.92-865.67ZM-308.44.32h-23.09V-22.79h23.09Zm25-198.4h-23.17v-23.33h23.17Zm25,272.39H-282V51.5h23.61Zm124.68-916.47c-.28,8-.57,16-.86,24.15h-24.85c.76-9.08,1.42-17.1,2.06-25.09ZM-158.09-1165v-23.22h23.2V-1165Zm174.82,1.81H62.85c2.39,15.24,1.83,64.25-.92,73.55H40.05c-.45,8.81-.82,16.06-1.22,23.92H15.72C13.36-1085.06,14.15-1154.6,16.73-1163.19Zm-1.42-26.5v-24.25H64.55c-.29,8-.57,16-.87,24.25ZM187.23-717.38v24.58h-47.7v25h22.89c.8,8.32,1.49,15.53,2.15,22.77-3.94.52-7.88,1.39-11.83,1.43-16.49.17-33,.07-49.48.07H90v-25.26h23v-23.81l-48.21-1.14c-.22-8.1-.58-16.21-.61-24.31s.28-16,.46-24.92h49.37v25.07c13.12,0,25-.11,36.9,0C163.16-717.72,175.41-718.51,187.23-717.38ZM164.1-842.76V-865.6h23.26v22.84ZM40.34-98.27c-8.41,0-16.82-.29-26.44-.48.8-17.87,1.52-34.12,2.22-50.33L40-146.59v23.24H64.82c-1-24.49-1.09-49,.05-73.1H89.14v48.11l23.94,1.13v97.93H89.31v24.52H39.65c-.27-16.61-.5-32.33.11-49H64.82L64.91-99C56.72-98.72,48.53-98.31,40.34-98.27Zm-76.07-48.91v23.23h-48v-23.23ZM-83.55-173.3v-23.31h23.17v23.31ZM-83.82-223v-24.21H14.92c-.27,8-.53,16-.81,24.21Zm-.69-320.46c0,7-.16,13.09,0,19.19.29,9.33.81,18.65,1.2,28-8.33,2.7-16.65,1.47-25.75.65-.36-16.56-.53-32.32,0-47.87ZM-108.18-718v-23.81h47.66c.67,8,1.28,15.25,1.84,22.49C-75.22-716.37-91.76-718.48-108.18-718Zm23.69,123.12c.21-16.62-.53-32.35.49-49h24.63v49ZM-59.06-444.3h23.42v72.8H-59.12C-60.09-395.89-60.19-420.26-59.06-444.3Zm.35-76.05V-544H-36v23.63Zm73.38,20.84c.29,9.33.81,18.65,1.2,28-8.32,2.69-16.64,1.47-25.74.64-.36-16.55-.54-32.31,0-47.87H14.63C14.63-511.73,14.48-505.61,14.67-499.51ZM66-569.69H89.18V-545H64.83C64.1-552.9,63.09-560.81,66-569.69Zm-1.46,25v24.25h-24v-24.25Zm23.79-48.73-48.26-1.13c.28-8.48.56-17,.82-25.42,4,.43,7.94,1.16,11.91,1.19,16.9.14,33.8,0,50.7.11a93.19,93.19,0,0,1,9.51,1V-570H89.44C89.09-577.55,88.74-585.13,88.35-593.45ZM63.43-493.81v23H39.88v-23Zm.23,198.27c.41,8.19.76,15.44,1.19,24.2H88.2v23.77h-73c-.61-7.91-1.86-15.89,1.42-24.76h23v-23.21ZM-9-421.32v-24.26H15v24.26Zm23,51.38v23.19H-9v-23.19Zm1.39-75.93q.42-12.7.83-25.41l23.47.72v24.69ZM39.77-570h-24v-24.25h24Zm-48.64,396-25,1.75v-24.18h22.8C-10.28-188.45-9.58-181.25-8.87-174.06ZM-34.16-97.63H-11v23.21h-23.2Zm.29,49.85h22.8c.79,8.05,1.49,15.24,2.2,22.43l-25,1.75Zm25.2,22.63,22.53,2.39V-.07H-10.73C-10-9.15-9.31-17.17-8.67-25.15Zm-2-122.12c.78-10.14,1.43-18.39,2-26.6l22.4,2.35c.78,7.93,1.48,15.09,2.18,22.24ZM89.35-347h-24v-24.26h24Zm-.12-74.36c-.29-16.62-.51-32.33.1-49h24.74v25.46h23.74v23.54Zm25.14-49.32c-.61-7.92-1.88-15.89.86-23.25h22.62v23.25ZM65-768.43v-23.21h23.2v23.21ZM88.38-818c.79-9.12,1.48-17.16,2.16-25.18l22.44,2.6V-818Zm74.23,74.76H114.39c-.21-8.11-.55-16.22-.58-24.32s.3-16,.46-23.73H138c.39,8.14.73,15.39,1.11,23.39l23.49,1ZM138-892.25H89.66v-24.26h49.25C138.62-908.52,138.33-900.54,138-892.25ZM113-991.5H88.42c.74-9,1.39-17.06,2-25l22.54,2.34ZM90.43-843.36l-25.6.92q.39-12.6.79-25.2l22.35,2C88.85-857.67,89.64-850.51,90.43-843.36Zm-51-24.23c0-8.4-.06-16.16,0-23.92.09-8,.32-16,.48-23.73H64.2c0,6.2-.12,11.5,0,16.79.28,10.15.71,20.3,1,30.49C57-865.48,48.68-866.46,39.41-867.59ZM64.56-991.4h-24v-24.25h24Zm-.07,149.29c-.26,8-.52,16-.8,24.22H-9.47v-24.22ZM38.75-791.48v23.33H15.59v-23.33ZM13.63-916.57H-10.19c.44-16.85-.8-32.62.75-48.37H13.63ZM-9.83-694.37v-23l24.93-1.18V-742H39.68v48.53H64.56v24.5H39.7q.49,24.38,1,48.73l-25.35,1.83V-669l-24.82,1.39c-.49,8.11-.94,15.64-1.41,23.47H-59.07v-23.48L-36-669c.92-9.28,1.72-17.32,2.5-25.32C-25.93-692.32-18.45-692.64-9.83-694.37ZM-34.1-768v-23.11H-11V-768Zm23.21-223.38H-34.24v-23.22h23.35ZM-33.66-694.57l-26.55,2c.71-10,1.3-18.2,1.88-26.37l22.48,2C-35.07-708.92-34.36-701.74-33.66-694.57Zm-2.33-148H-60.27v-24H-83.44v-24.82H-36ZM-60.5-1140.23H-85.09c.75-9.06,1.42-17.08,2.06-25.08l22.53,2.4Zm-47.73-23.52v-25.07c4.73,0,8.4-.11,12.06,0s7.12.51,10.74.78c.79,8.12,1.5,15.32,2.2,22.51Zm22.92,99.89v22.79h-23.21v-22.79Zm-.1,272.53v23.75c-16.69.05-32.47.51-48.26-.27v-23.48Zm-121.22,643h23.16v24.67h-24.34C-208.55-131.54-209.55-139.45-206.63-148.33Zm-1.46,25V-99.1h-24v-24.26Zm23.78-246.75v23.31h-23.17v-23.31Zm-23.08-26.34V-420h23.1v23.59Zm25.7,223.33h23q.63,11.9,1.24,23.77-12.88.36-25.78.72C-183.53-156.46-184.95-164.39-181.69-173.12Zm-.9-24v-24.18h22.8c.79,8.05,1.5,15.24,2.2,22.43Zm-.07-75.35v-24.37h48c.42-8.69.78-16.24,1.13-23.66h23.57v48Zm49.86-149.47-25,1.75v-24.18H-135C-134.21-436.31-133.51-429.11-132.8-421.92Zm-1.86-148.23c.75-9.06,1.42-17.09,2.06-25.08l22.53,2.39v22.69Zm-.2,49.73H-158.4v-23h23.54Zm.2,123.77c.75-9.08,1.42-17.1,2.06-25.09l23.65.94c-.29,8-.57,16-.86,24.15Zm1.86-198.77-25,1.74v-24.17H-135C-134.21-609.81-133.51-602.61-132.8-595.42Zm-25.88,75.29v24.35h-25.55c.75-9.05,1.42-17.1,2.06-25.1Zm-48.69.81V-543.5h22.8c.79,8,1.49,15.25,2.2,22.43Zm22.78-224h-23.23v-23.37h23.23ZM-184.65-618v23.3h-48V-618Zm-24.49-174.91H-232.6c-.67-7.92-1.92-15.87.84-23.23h22.62Zm-47.76,24.55v-24.25h24v24.25ZM-233.74-717v23h-23.15v-23Zm24.53-225H-233.8C-233-951-232.39-959-231.75-967l22.54,2.4Zm-47.74-23.52v-24.18h22.81c.79,8,1.49,15.24,2.19,22.43Zm23.11,74.9v23.18h-23.61v-23.18ZM-256.95-47.78h22.81c.79,8.05,1.49,15.24,2.19,22.43l-25,1.75Zm25.21,22.62q16.47.63,32.94,1.27c4.77.18,9.54.32,14.36.47V-.07H-233.8C-233-9.14-232.38-17.17-231.74-25.16Zm-.42,51.74h22.8c.79,8.05,1.5,15.24,2.2,22.43l-25,1.75Zm24.07,72.6h-24V74.93h24Zm48.52,0h-24.38V76l-23.82-1.33q.42-12.74.82-25.46c10.13.43,20.26.89,30.39,1.27,5.59.21,11.18.3,17,.45ZM-134.88-124h-24.6c.79-9.12,1.48-17.16,2.16-25.18l22.44,2.6Zm0-49.39h-23.55c.34-8.42.69-16.85,1-25.24l22.54,2.39Zm1.53,76.25h23.22v72.74h-23.22ZM-133,26.58h22.81c.79,8.05,1.49,15.24,2.19,22.43l-25,1.75Zm47.74,47.7h-24.59c.75-9.07,1.41-17.09,2.05-25.07l22.54,2.39Zm.07-495.37h-23.46c-.67-7.92-1.92-15.87.84-23.23h22.62ZM-83-496l22.54,2.34V-471H-85.08C-84.34-480-83.69-488-83-496Zm-1,124.88h24.6v25.45h23.74v23.54H-84.47C-84.3-338.79-85-354.51-84-371.17Zm23.27,520H-83.5V125.24h22.74Zm.18-198.56H-84.13V-72.36h23.55Zm1.76,51.31h23V25h-23Zm.16,49.75h22.81c.78,8,1.49,15.24,2.19,22.43l-25,1.75Zm23.12,73.23C-34.8,107-34.11,90.46-33.45,74l22.77,2.42c.38,8,.72,15.22,1.13,24H13.79c.73,8.68,1.33,15.87,1.89,23.08C-.76,126.32-17.22,124.37-35.54,124.6ZM14,174.94c.72-18.35,1.36-34.77,2-51.16l23.68.76q.49,24.15.94,48.36Zm49.45-50.72H40c-.61-7.92-1.88-15.88.86-23.24H63.49ZM187.33-24.85h-23.2V-48.06h23.2Zm99.15,148.73H263.27V100.66h23.21Zm49.6,0h-24.7c.76-17.3,1.47-33.58,2.18-49.85,7.47.81,15,1.58,22.52,2.37Zm1.13-98.49c0,8,0,15.93,0,24.37l-25.53,1.54c.61,8.18,1.14,15.33,1.65,22.49-4.33.52-8.66,1.42-13,1.44-25.37.15-50.73,0-76.1.11-3.52,0-7,.45-11.65.77.53,8.25,1,15.42,1.42,22.61-8.3,2.49-16.58,1.48-24.75.53C187.07,82,187.63,59.65,190.72,50h96c.43-8.65.8-16.19,1.22-24.67Zm-148-.53V.57h24c0,8,0,15.94,0,24.26ZM311.3-22.78V-.06H286.71c.74-9,1.39-17.07,2.05-25.08Q300-23.94,311.3-22.78Zm-24-49.65c0,6.91-.16,13,0,19.12.3,9.3.82,18.6,1.23,27.92L263-22.77c-.39,7.79-.75,15.06-1.15,23H213.58V-23.15l24.35-1.56V-48l23.6-1.29c.86-9.25,1.61-17.23,2.35-25.19C271.35-73.84,278.86-73.17,287.28-72.43ZM189.52-173.67c15.72.62,31.47,1.22,48.72,1.87v73.09l23.43,1.06c.7,8.38,1.31,15.58,1.9,22.8-16.58,2.92-33.13.8-50.89,1.36V-147l-25.08-1.61C188.3-157.69,188.91-165.69,189.52-173.67Zm-51,75.34c.08-8,.29-16,.45-24.28h48.49v23.68L163.92-97.5c-.41,8.16-.77,15.41-1.16,23.21h-24.2C138.56-82.85,138.5-90.59,138.57-98.33Zm24,124.47V99.22H139c-.3-15.83-.59-31.67-.9-48.1H114.5c-.5,8-1,15.61-1.43,23.13H64.62c-.36-8.27-.67-15.53-1-23.18L40.32,49.92V1.65H63.5c.5,8.24,1,15.81,1.42,23.27H88.5c.39-8.24.74-15.8,1.15-24.3h24.42V26.14ZM115.23-22.95h22.62V.29H114.37C113.76-7.63,112.49-15.59,115.23-22.95ZM89.65-371.52v-23.24h48.12c.67,8.05,1.28,15.24,1.86,22.43Zm73,24.81H139.19q.39-12.62.79-25.24c7.47.68,15,1.34,22.66,2Zm.7-198.66c0-8.41-.06-16.16,0-23.92.09-8,.32-16.05.48-23.73h24.3c0,6.22-.13,11.51,0,16.8.28,10.15.71,20.3,1.06,30.47C180.91-543.26,172.61-544.24,163.34-545.37Zm98.45-24.43H238.34c-.68-7.92-1.92-15.88.83-23.23h22.62Zm24.84-122.51v48.08L263-642.78c-.41,8.25-.78,15.53-1.13,22.6-14.19,2.39-89,1.92-99-.77.63-7.78,1.28-15.79,1.93-23.8,12.82,2.08,38.38,1.68,48.46-1.1v-21.78c16.93-1.85,33,.74,49.81-1.83v-22.85Zm-97.38-76v-24.25h24c0,8,0,15.94,0,24.25Zm24.33-24.55v-24.49h49.26c-.29,8-.58,16-.88,24.49ZM236.86-742v48.29h-23.1V-742Zm99.22-125.59h-24.7c.76-17.3,1.47-33.58,2.18-49.85q11.2,1.22,22.52,2.37Zm49.57-121.83v97H361.74c0-32.32,0-63.63.06-95,0-1.5.8-3,1.26-4.46Zm-48.51-49.78h24.5c0,7-.16,13.12,0,19.22.29,9.33.82,18.66,1.25,28l-25.78,1.79C336.78-1007.91,336.6-1023.68,337.14-1039.2Zm-24.81-.11v74h23.89v23.65l-24.54,1.46c.6,8.09,1.13,15.29,1.64,22.51L287-915v48.83l-23-1.7q0,12.25-.08,24.51c-16.65,3.19-33.3.84-50.65,1.56-1-25.62.36-49.77-.88-75H139.2c-.51-7.87-1-15.76-1.6-24.65H114.86v-24.77h23.2c.4-8.67.75-16.19,1.13-24.59h24.45V-942h24.91v-23.82h24.54v-49.7H237c.5-8.7.94-16.26,1.37-23.8Zm-123.1-50.13v-24.11h22.9c.67,8,1.28,15.24,1.86,22.45ZM213.44-1065c-.38,7.94-.77,15.87-1.16,23.92H188.85v-23.91Zm.9-25.8q11.83.39,23.72.74v24.74h-24.3Q214-1078,214.34-1090.76Zm-50.53-49.31v-24.3h74.24c-.28,8-.57,16-.86,24.3Zm23.6,125.87v23.05H164q.44-12.72.87-25.44Zm-22.78-2.6c-8.33.6-16.64,1.18-25,1.76v-24.18h22.8C163.22-1031.17,163.93-1024,164.63-1016.8Zm121.85-71.68v22.58h-24.6c.79-9.12,1.48-17.16,2.17-25.18Zm-47-26.5h23.17q.63,11.88,1.24,23.76l-25.6.9C237.6-1098.2,236.6-1106.11,239.52-1115Zm-1.8-148.34c.08-8,.3-16,.46-23.75h48.18c.79,8,1.5,15.24,2.2,22.42l-25.49,2.56c-.4,7.78-.77,15-1.17,22.86H237.7C237.7-1247.81,237.64-1255.57,237.72-1263.32ZM214-1212.72h22.8c.79,8,1.49,15.24,2.2,22.42l-25,1.76ZM188.8-1336.6h23.42v72.81H188.74C187.77-1288.19,187.67-1312.56,188.8-1336.6ZM164-1239.53v-23.94h24.45c-.19,24.51-.38,49-.58,73.65h-50c.79-17.35,1.54-33.66,2.27-50C147.58-1237.38,155-1238.13,164-1239.53Zm-.45,124.1H138c.75-9.06,1.41-17.09,2.07-25.1l23.47.75ZM140-1311.82h22.63v23.24H139.15C138.55-1296.5,137.27-1304.46,140-1311.82Zm-25.84,23.57h24.7q.56,24.16,1.13,48.35c-8.37,2.83-16.74,1.34-26.17,1C113.93-1255.7,113.39-1271.47,114.17-1288.25Zm1.06,125.13h22.41c.8,8,1.5,15.22,2.2,22.38l-25.43.85C113.73-1147.8,112.5-1155.75,115.23-1163.12Zm-25.12,23.54h24v24.25h-24Zm-.65,50c25.06,0,49.07-.32,73.08.2v23.7c-24.89,0-49,0-73.08,0Zm-.28,24.21q.55,24.26,1,48.57l-25.38.88c-.22-8.08-.57-16.15-.61-24.23s.26-16,.44-25.22ZM71.26-1263.19c5.59.2,11.19.29,17,.44v48.51H64.84c-.47-7.82-1-15.64-1.44-23.64L39-1239c.69-9,1.32-17.21,1.95-25.42C51-1264,61.14-1263.57,71.26-1263.19ZM-34.2-1288.34H15.05v-48.5H38.68c.53,8.21,1,15.79,1.57,24.45H63.19v23.93L39-1287.33c.6,8.23,1.13,15.42,1.61,22.64-10.14.51-20.27,1.13-30.42,1.48-6.45.22-12.91,0-20.54,0v48.66H-34.2Zm-.36,125.4h24.41c0,4.76.09,8.44,0,12.11s-.46,7.11-.69,10.56H-34.56Zm-24.83,49.32h23.83c.47,8.34.9,15.9,1.39,24.49H-10.8v23.45H-59.45C-59.79-1082.24-60-1098-59.39-1113.62Zm-24.1-148.74h23.16v23.18H-83.49Zm-25.06-49.38h23.26v22.83h-23.26Zm-24.63,297.16h23v73h-23Zm-.52,99.5h24.4c0,4.76.1,8.44,0,12.11s-.46,7.11-.69,10.56H-133.7Zm1.08,49.4H-110v23.23h-23.45C-134.13-850.37-135.37-858.33-132.62-865.68Zm-25.53-446.06h23.32V-1239h-23.32Zm.56,468.46-25,1.74v-24.17h22.8C-159-857.67-158.29-850.47-157.59-843.28Zm-16.34-271.19c4.77.19,9.54.32,14.25.47v23.33H-209c.79-9.13,1.48-17.18,2.16-25.2Q-190.42-1115.17-173.93-1114.47Zm-10.43-25.41h-23.45c-.68-7.92-1.92-15.88.83-23.23h22.62ZM-209-1189.8c.75-9.06,1.42-17.09,2.06-25.08l22.53,2.4v22.68Zm1.72-122.45h22.93v23.42H-207.3Zm-24.86,73.85c4.73,0,8.4-.1,12.06,0s7.11.51,10.74.79c.79,8.12,1.5,15.32,2.2,22.51l-25,1.74Zm0,98.82h24.1q.54,11.79,1.07,23.58l-25.17,1.88ZM-234-1039v22.68h-24.59c.75-9.06,1.42-17.08,2.06-25.08Zm-47.73-25h22.8c.79,8,1.49,15.24,2.2,22.43l-25,1.75Zm-24.82-99.2h23.13V-1140h-23.13ZM-307-469.27h48v23.34h-48ZM-331.46-965h23.18v48.16h-23.18Zm-.21,421.59H-308v22.92h-23.62ZM-332-146.71h23.59v47.44H-332Zm-1,320.33h-23.1V150H-333Zm-23.78-1187.85h23.55v22.67h-23.55Zm-24.29-223.48h23.91c0,5.25.1,8.93,0,12.6s-.46,7.1-.69,10.45h-23.2Zm-.11,694.35h23.62v22.8h-23.62Z"/><path class="cls-8" d="M684.7-48.72H659.65c-.4-8.42-.75-15.67-1.14-23.68-3.51-.38-6.65-1-9.79-1-16.88-.09-33.75,0-50.63-.1-4,0-8.06-.8-12.09-1.23l.23-.22c-.67,8.08-1.33,16.17-2.1,25.49l25,1.5v23.87h49.22V.36H635.39V25.12l23.17,1.11v23.5h24.52c.48-7.51,1-15.08,1.52-23.45l23.16-1.11v-48.4H684.39V-49S684.7-48.72,684.7-48.72Z"/><path class="cls-9" d="M510.34,182.67c0-2.45,0-4.88,0-7.36H486.16c-.11,2.41-.23,4.87-.34,7.36Z"/><path class="cls-10" d="M659.31,182.67h49.63v-8.55h-49C659.63,177,659.45,179.85,659.31,182.67Z"/><path class="cls-11" d="M461.14-49.3l24.2,1.35V0h24.88V-47.49l26.41-2.71-.21.23c-.7-7.24-1.4-14.47-2.23-22.93l-23.29-1c-.38-8-.72-15.22-1.1-23.35H486.12c-.31,7.08-.64,14.6-1,23.08l-23.66,1.5V-49Z"/><path class="cls-12" d="M784.28,74c-.53-7.27-1.07-14.53-1.69-23h49.08c.58-8.64,1.08-16.21,1.64-24.6l23.15-1.16V1.37C841,.47,825.19,1,808.15,1.11V25.4H758.87V74.93l-.3-.3,25.92-.89Z"/><path class="cls-13" d="M536.63-50.2c-.71,16.34-1.41,32.68-2.18,50.3L559.4,1.55V24.73h49.28V1.34H585.36c-.43-8.77-.79-16-1.22-24.84H560.53c-.42-8.77-.76-16-1.14-24-7.89-.82-15.45-1.61-23-2.43Z"/><path class="cls-14" d="M633.39,51.19H585.27V74.62l-24.5,1.14V98.12c8.13,2.36,54.86,3,72.62.88Z"/><path class="cls-15" d="M809.36,98.5c-.69,8.09-1.38,16.18-2.05,24,9.75,2.75,83.07,3.38,98.81,1V100.64c-3.93-.19-7.89-.55-11.84-.55-24.33-.06-48.66,0-73-.09-4,0-8-.89-12.08-1.34Z"/><path class="cls-16" d="M510.65,124.23h23.78v-48H486.25V99.51h23.14c.57,9,1.08,17,1.59,25Z"/><path class="cls-17" d="M1030,125.06h-23.3c-.36-8.3-.68-15.54-1-23.89H982.14v48c7.63.15,15.64.36,23.65.44,7.76.08,15.52,0,24.17,0Z"/><path class="cls-18" d="M708.94,173.8h23.78v-48H709.14c-.16,7.66-.48,15.68-.46,23.7,0,8.21.37,16.43.58,24.64Z"/><rect class="cls-19" x="833.39" y="150.28" width="23.14" height="32.4"/><path class="cls-20" d="M783.56,182.67c-.19-5.1-.4-10.2-.54-15.3-.15-5.29,0-10.58,0-16.8H758.71c-.16,7.67-.39,15.69-.48,23.71,0,2.78,0,5.59,0,8.39Z"/><rect class="cls-21" x="1007.1" y="175.24" width="23.15" height="7.44"/><path class="cls-22" d="M933.23,49c-.66,8.08-1.33,16.16-2.08,25.3h24.58V51.61L933,49.2Z"/><path class="cls-23" d="M933,49.2c-.7-7.25-1.41-14.49-2.2-22.61H908V50.74L933.22,49Z"/><path class="cls-24" d="M784.49,73.74c-.62,8.31-1.25,16.63-2,26.87l26.88-2.1-.14.15c-.77-7.2-1.57-14.39-2.44-22.34-7.45-.76-15-1.54-22.51-2.34Z"/><path class="cls-25" d="M758.87,74.93H734.55V99.17h24V74.63Z"/><path class="cls-26" d="M560.72,149.07H583.9V125.89H560.72Z"/><path class="cls-27" d="M387,182.67c0-3,0-5.93,0-8.9l-24.36,1.16v7.74Z"/><rect class="cls-28" x="560.64" y="175.38" width="23.61" height="7.29"/><path class="cls-29" d="M114.05,149q0,12.57,0,25.13l25.12,0,0-25.15Z"/></g></g></g><g id="Layer_16" data-name="Layer 16"><path class="cls-30" d="M585.47,1024.16H535V1073H486.91v-24.12H509V999.89H436.85v23.94L459.8,1025v24.74H412.18v23.81c6.33.28,12.61.76,18.9.77,3.3,0,4.21,1.28,4.39,4.35.38,6.17,1.14,12.31,1.77,18.84l22.21,2.58v47.31h-23.4v-49.53c-7.31.71-14.82,1.3-22.28,2.33-.94.13-2.19,2.55-2.24,3.94-.43,11.68-.66,23.37-.85,35.05-.1,6.51,0,13,0,20.35-10.61-.51-20.49-.6-30.29-1.51-39.25-3.67-76.78-13.76-112.07-31.46-77.38-38.81-128.36-100.44-156.18-181.81A370.52,370.52,0,0,1,92,838.37c-1-25.78-1.62-51.76.34-77.43,5.44-70.86,24.31-138.36,54.61-202.65,25.54-54.2,58.15-103.61,100.56-146.12,30.9-31,65.64-56.57,107.41-71.3a169,169,0,0,1,55.62-10.12v22.81H437l-.11-.1v24.68H411v73.78l24.32,1.61v22.74h24.35c.95-16.9,1.89-33.6,2.82-50.31l-.08.1,22.22,2.55v-49h25.23v22.45l24.26,1.85v48.43h-23v50H486.5v25H437v24.45h48.6V601l49.76,1-.12-.11q.12,36.14.23,72.28a7.12,7.12,0,0,1-.62,1.81l-23.41,1.3v23.14l22.73,1.72v23.07H485.43V653.17H461.1V701.3H436.72v48.52H411.07v49.59H460V752.24h99.6c.64,15.53,1.28,31.18,1.93,47.08l22.62,2.6v22.46H559.52c.56-8.06,1.11-16,1.73-24.83l-50,2c-.6-8-1.2-16-1.83-24.32H486.76v97.35l22.74,1.3v48.65c-24.36.68-48.52,1.87-72.7-.58,0-16,0-32.06,0-48.27H411.7v48.14H437V948.8H411.39v49.69h24.42v-23l24.75-1.76V951.2H485c.45,7.65.89,15.16,1.36,23.1H535.5V951h23.91c.54,7.61,1.06,15,1.61,22.68H584.1c.47-7.51.94-14.87,1.43-22.63h23.68c.49,7.91,1,15.8,1.5,24.08h23v49H609.79l.13.12v-23.36H585.34v23.37ZM411.86,628.29v47.09h22.59V628.29ZM411,849.38h24.49V826.87H411Zm74.3-223.73v-23.5H462.4v23.5ZM459.71,874.13c0-6.79.15-13.3-.14-19.78-.05-1.13-1.94-3.06-3.05-3.11-6.48-.29-13-.14-19.7-.14v23Z"/><path class="cls-30" d="M609.9,650.84l-24.66,2v22.75H559.73V602.82l-24.45-.92.12.11V552.75h24c.53,8,1,15.51,1.53,23.29H585l-.09-.1v25.85h50.41V626.5l.13-.12c-6.3.32-12.61,1.07-18.88.83-5.06-.2-6.51,2.21-6.61,6.42-.14,5.78-.13,11.55-.18,17.33Z"/><path class="cls-30" d="M609.63,477.81V502c-6.85.38-13,1-19.13,1-4,0-5.13,1.46-5.18,5.26-.06,6-.68,12-1.1,18.37H536.28V477.37c6.45,0,12.63-.18,18.79.07,3.56.15,4.62-1.28,4.67-4.6.12-6.51.53-13,.85-20.11h24.85V427l-25.22,1.55v-36.2c2.58,2.14,3.9,3.1,5.07,4.22,5.13,4.87,10.1,9.94,15.37,14.65,3.37,3,5.59,6.25,5.18,10.94-.29,3.46,1,4.83,4.83,5.11,2.79.21,6.28,1.67,8,3.76,11.87,14.48,23.37,29.26,35.78,45l-24.94,2c0-7.91,0-15.81,0-24.23l-23.82-1.09v25.17Z"/><path class="cls-30" d="M635.69,924.77H585.37c-.41-7.61-.84-15.32-1.29-23.64l-22.92-1.52c-1.88-15.42-2.14-30.68.34-46,.53-3.25,2.3-3.74,5.15-3.71,12.4.11,24.81.05,37.22,0h6.37V826.65h23.5v23.27H610v17.55c0,8.86.2,17.73-.08,26.59-.14,4.23.87,6,5.5,5.85,6-.18,12,.52,18.31.86.59,6.19,1.34,12,1.62,17.77.19,3.88,1.46,5.64,5.64,5.79,5.8.2,11.58,1.13,17.53,1.77v22.41H634.12C634.64,940.6,635.16,932.75,635.69,924.77Z"/><path class="cls-30" d="M660.65,850.11V825.38h23.71V775.82H732.7c0,7.32-.07,14.35,0,21.37,0,2.94-1.5,3.56-4,3.53-6-.07-12,0-18.32,0v24.48h21.78c-.68,8.79-1.29,16.77-1.91,24.93Z"/><path class="cls-30" d="M609.79,1024.17c.2,14.68.56,29.36.52,44,0,4.1,1.09,5.75,5.32,5.6,3.81-.13,7.65.4,13.06.74L610,1090.94v-16.79H561.26v-25.26H584l1.5-24.73-.13.14h24.58Z"/><path class="cls-30" d="M585,576V553.45h73.43v22.87c-1.21.11-2.38.31-3.56.31q-32.94,0-65.88,0a25.12,25.12,0,0,1-4.08-.66Z"/><path class="cls-30" d="M658.62,750.09H610.4v-22.7h48.22Z"/><path class="cls-30" d="M635.34,626.5H683v24.33H635.35l.11.13q0-12.29,0-24.58Z"/><path class="cls-30" d="M486.58,1149.54V1100h23.14v12c0,9.54-.1,19.08.06,28.62,0,2.76-.8,4.26-3.54,4.81C500,1146.68,493.68,1148.05,486.58,1149.54Z"/><path class="cls-30" d="M659.15,526.67H635.09v-46l1.56-.46c7.29,12.25,14.78,24.39,21.71,36.84C659.73,519.47,658.92,523.14,659.15,526.67Z"/><path class="cls-30" d="M536.43,1100.07h22.86c0,7.46.07,14.79-.1,22.12a4,4,0,0,1-2.1,2.68c-6.61,3.28-13.3,6.39-20.66,9.88Z"/><path class="cls-30" d="M635.35,650.83c-.44,8-.89,16.08-1.36,24.41H609.9v-24.4l-.1.12h25.66Z"/><path class="cls-30" d="M462.49,426l-25.42,2.85v-24.5h22.56q1.38,10.88,2.77,21.76Z"/><path class="cls-30" d="M685.64,949.59V926.22h23c0,6.89.17,13.4-.14,19.89-.06,1.21-2,3.26-3.16,3.32C699,949.76,692.63,949.59,685.64,949.59Z"/><path class="cls-30" d="M511.23,826.87h23V849.5h-23Z"/><path class="cls-30" d="M561.27,702H584v23.15H561.27Z"/><path class="cls-30" d="M437,353.56c-.61-7-1.22-14.06-1.93-22.33L460.73,336v17.49H436.92Z"/><path class="cls-30" d="M728.07,727.44c.81,7.18,1.64,14.51,2.55,22.64l-20.19,1.37v-24Z"/><path class="cls-30" d="M685.84,975.74H698c-4,8.09-7.69,15.58-11.38,23.08l-.82-.15Z"/><path class="cls-30" d="M485.4,344.36l15.86,7.31-.18.84H485.4Z"/><path class="cls-30" d="M599.43,1099.06l-13.11,8.87v-8.87Z"/><path class="cls-31" d="M2535.17,949.41h-46.56v-46.6h-23.34c-.44-8.18-.83-15.53-1.27-23.74h-22.47c-.42-8.18-.79-15.53-1.19-23.35H2418v93.2h-47.5V784.6h46.31v22.81h23.81v23.38h23.8v23.55h23.46V784.72h47.28Z"/><path class="cls-31" d="M2749.44,784.27h46.25v23.1h23.82v23.38h23.8v23.57h23.45V784.74h47.31V949h-46.5V902.85H2844.2c-.45-8.17-.85-15.52-1.29-23.74h-22.45c-.43-8.17-.81-15.53-1.21-23.37H2796.6V948.9h-47.16Z"/><path class="cls-31" d="M2724.73,830.85V948.8h-46.92V902.93h-70.39v46h-47.49V831.51h22.81V807.77h23.81v-23h71.18v22.71h23.47v23.39Zm-117.25.76v46.1H2677V831.34h-23.32V808.75h-23.33v22.86Z"/><path class="cls-31" d="M3175.8,807.75v47h93.55v24h-93.46v46.67H3293v23.63H3128.27V784.52h164.54v23.23Z"/><path class="cls-31" d="M2025.82,949V784.83h164.64v22.76H2073.62v46.74h93.13v24h-93.5V949Z"/><path class="cls-31" d="M2299.93,925.9h45.84v23.23H2204.92V926.05h46V808.26h-46.26V784.52h140.85v22.89h-45.6Z"/><path class="cls-31" d="M2986.37,902.32h22.76V925h47.49V902.56h46.77v23H3081V949h-95.28V926.52h-23.1c-.45-8.17-.86-15.51-1.31-23.72H2939V831.57h22.57V808.18h23.81V784.61h94.48v22.77h23.66V831h-46.25c-.39-7.15-.8-14.49-1.24-22.42H3010c-.33,7.25-.65,14.33-1,22.68h-22.61Z"/><path class="cls-30" d="M2522.77,937h-46.56V890.4h-23.35c-.44-8.17-.83-15.53-1.27-23.74h-22.47c-.41-8.17-.79-15.53-1.19-23.35H2405.6v93.2h-47.5V772.19h46.31V795h23.81v23.38H2452v23.55h23.45V772.31h47.29Z"/><path class="cls-30" d="M2737,771.87h46.25V795h23.82v23.38h23.8v23.57h23.45V772.33h47.31V936.61h-46.5V890.44h-23.37c-.44-8.17-.85-15.52-1.29-23.74h-22.45c-.42-8.17-.81-15.52-1.21-23.37h-22.65v93.16H2737Z"/><path class="cls-30" d="M2712.32,818.44V936.39H2665.4V890.52H2595v46h-47.49V819.1h22.81V795.36h23.81v-23h71.18v22.71h23.47v23.39Zm-117.25.76v46.11h69.5V818.93h-23.31V796.34h-23.34V819.2Z"/><path class="cls-30" d="M3163.4,795.34v47h93.54v24h-93.46V913h117.09v23.64H3115.86V772.11H3280.4v23.23Z"/><path class="cls-30" d="M2013.41,936.6V772.42h164.64v22.76H2061.21v46.74h93.13v24h-93.5V936.6Z"/><path class="cls-30" d="M2287.52,913.49h45.84v23.23H2192.51V913.64h46V795.85h-46.25V772.11h140.84V795h-45.6Z"/><path class="cls-30" d="M2974,889.91h22.76v22.67h47.49V890.15H3091v23h-22.39v23.46h-95.28V914.11h-23.1c-.45-8.17-.85-15.51-1.31-23.72h-22.29V819.16h22.57V795.77H2973V772.2h94.48V795h23.66v23.65h-46.24c-.4-7.15-.81-14.49-1.25-22.42h-46c-.33,7.25-.65,14.33-1,22.68H2974Z"/><path class="cls-31" d="M1323.55,949.41h-46.92V855.62h-23.07v46.25h-24.29v-46h-23.41v93.46h-47.09V784.55h46.67v22.74H1229v23.3h23.86V807.83h23.86V784.3h46.87Z"/><path class="cls-31" d="M1133.62,949.4H1087V903.27H1016.1v46H968.92V831.59h22.79v-23.8h23.53V784.45h71.34v22.69h23.88v23.79h23.16Zm-117.37-118v46.37h69.81V831.35h-23.33V808.54h-23.39v22.87Z"/><path class="cls-31" d="M1466.61,903h-70.56v46.2h-47.57V831.71h23V807.9H1395V784.51h71.34V807h23.88v23.79h23.22V949h-46.79Zm-47.15-71.15H1396v46.1h69.66v-47h-22.36c-.36-8-.67-15.11-1-22.55h-22.86Z"/><path class="cls-31" d="M1893.36,926.07h-22.53v23.12H1751.66V926.37h-23.35V807.74h22.9v-23.3h118.73v22.63h23.42Zm-47.8-.64V808.62h-69.7V925.43Z"/><path class="cls-31" d="M1703.62,855.48v93.8H1586c-.4-7.2-.81-14.56-1.26-22.79H1562.2c-.43-8.2-.81-15.57-1.24-23.8h-22.44V831.3h22.89V807.85h23.87V784.31h118.08v23h-93.59v23.78H1586.3v70.84h22.47v23.32H1656v-46.1h-22.5V855.48Z"/><path class="cls-31" d="M802.35,808V784.42H943.9v23.35H897.45V949h-48V808Z"/><path class="cls-30" d="M1311.11,937H1264.2V843.18h-23.08v46.25h-24.29v-46h-23.41v93.46h-47.09V772.11H1193v22.74h23.52v23.3h23.86V795.39h23.86V771.87h46.87Z"/><path class="cls-30" d="M1121.18,937h-46.6V890.83h-70.92v46H956.48V819.15h22.8v-23.8h23.52V772h71.34V794.7H1098v23.79h23.16ZM1003.81,819v46.37h69.81V818.91h-23.33V796.1H1026.9V819Z"/><path class="cls-30" d="M1454.18,890.54h-70.57v46.2H1336V819.27h23v-23.8h23.52v-23.4h71.34v22.51h23.88v23.8H1501V936.59h-46.78ZM1407,819.39h-23.43v46.1h69.66v-47h-22.36c-.36-8-.67-15.11-1-22.54H1407Z"/><path class="cls-30" d="M1880.92,913.63h-22.53v23.12H1739.22V913.93h-23.35V795.3h22.9V772H1857.5v22.63h23.42Zm-47.8-.64V796.18h-69.7V913Z"/><path class="cls-30" d="M1691.18,843v93.8H1573.51c-.4-7.2-.81-14.56-1.26-22.79h-22.49c-.42-8.2-.81-15.57-1.24-23.8h-22.44V818.86H1549V795.41h23.87V771.87h118.08v23h-93.59v23.78h-23.47v70.84h22.47V912.8h47.26V866.7h-22.5V843Z"/><path class="cls-30" d="M789.91,795.56V772H931.46v23.35H885V936.56H837v-141Z"/><path class="cls-30" d="M1311.11,937H1264.2V843.18h-23.08v46.25h-24.29v-46h-23.41v93.46h-47.09V772.11H1193v22.74h23.52v23.3h23.86V795.39h23.86V771.87h46.87Z"/><path class="cls-30" d="M1121.18,937h-46.6V890.83h-70.92v46H956.48V819.15h22.8v-23.8h23.52V772h71.34V794.7H1098v23.79h23.16ZM1003.81,819v46.37h69.81V818.91h-23.33V796.1H1026.9V819Z"/><path class="cls-30" d="M1454.18,890.54h-70.57v46.2H1336V819.27h23v-23.8h23.52v-23.4h71.34v22.51h23.88v23.8H1501V936.59h-46.78ZM1407,819.39h-23.43v46.1h69.66v-47h-22.36c-.36-8-.67-15.11-1-22.54H1407Z"/><path class="cls-30" d="M1880.92,913.63h-22.53v23.12H1739.22V913.93h-23.35V795.3h22.9V772H1857.5v22.63h23.42Zm-47.8-.64V796.18h-69.7V913Z"/><path class="cls-30" d="M1691.18,843v93.8H1573.51c-.4-7.2-.81-14.56-1.26-22.79h-22.49c-.42-8.2-.81-15.57-1.24-23.8h-22.44V818.86H1549V795.41h23.87V771.87h118.08v23h-93.59v23.78h-23.47v70.84h22.47V912.8h47.26V866.7h-22.5V843Z"/><path class="cls-30" d="M789.91,795.56V772H931.46v23.35H885V936.56H837v-141Z"/></g></svg>