<svg xmlns="http://www.w3.org/2000/svg" xmlns:xlink="http://www.w3.org/1999/xlink" viewBox="0 0 3328.85 1400"><defs><style>.cls-1{fill:none;}.cls-2{clip-path:url(#clip-path);}.cls-3{clip-path:url(#clip-path-2);}.cls-4{fill:url(#linear-gradient);}.cls-5{fill:url(#linear-gradient-2);}.cls-6{fill:url(#linear-gradient-3);}.cls-7{fill:url(#linear-gradient-4);}.cls-8{fill:url(#linear-gradient-5);}.cls-9{fill:url(#linear-gradient-6);}.cls-10{fill:url(#linear-gradient-7);}.cls-11{fill:url(#linear-gradient-8);}.cls-12{fill:url(#linear-gradient-9);}.cls-13{clip-path:url(#clip-path-3);}.cls-14{clip-path:url(#clip-path-4);}.cls-15{fill:url(#linear-gradient-10);}.cls-16{fill:url(#linear-gradient-11);}.cls-17{fill:url(#linear-gradient-12);}.cls-18{fill:url(#linear-gradient-13);}.cls-19{fill:url(#linear-gradient-14);}.cls-20{fill:url(#linear-gradient-15);}.cls-21{fill:url(#linear-gradient-16);}.cls-22{fill:url(#linear-gradient-17);}.cls-23{fill:url(#linear-gradient-18);}.cls-24{fill:url(#linear-gradient-19);}.cls-25{fill:url(#linear-gradient-20);}.cls-26{fill:url(#linear-gradient-21);}.cls-27{fill:url(#linear-gradient-22);}.cls-28{fill:url(#linear-gradient-23);}.cls-29{fill:url(#linear-gradient-24);}.cls-30{fill:url(#linear-gradient-25);}.cls-31{fill:url(#linear-gradient-26);}.cls-32{fill:url(#linear-gradient-27);}.cls-33{fill:url(#linear-gradient-28);}.cls-34{fill:url(#linear-gradient-29);}.cls-35{fill:url(#linear-gradient-30);}.cls-36{fill:url(#linear-gradient-31);}.cls-37{fill:url(#linear-gradient-32);}.cls-38{fill:url(#linear-gradient-33);}.cls-39{fill:url(#linear-gradient-34);}.cls-40{fill:url(#linear-gradient-35);}.cls-41{fill:url(#linear-gradient-36);}.cls-42{fill:url(#linear-gradient-37);}.cls-43{fill:url(#linear-gradient-38);}.cls-44{fill:url(#linear-gradient-39);}.cls-45{fill:url(#linear-gradient-40);}.cls-46{fill:url(#linear-gradient-41);}.cls-47{fill:url(#linear-gradient-42);}.cls-48{fill:url(#linear-gradient-43);}.cls-49{fill:url(#linear-gradient-44);}.cls-50{fill:#4f4f4f;}</style><clipPath id="clip-path"><rect class="cls-1" x="202.94" y="-1543.09" width="592.55" height="992.27"/></clipPath><clipPath id="clip-path-2"><path class="cls-1" d="M203.17-573.7C364.4-571.65,559-682.51,570.45-961s-177-556.79-355.26-559S-158.5-1249-154.15-970.25,41.93-575.75,203.17-573.7Z"/></clipPath><linearGradient id="linear-gradient" x1="-1955.14" y1="-852.18" x2="375.12" y2="-852.18" gradientUnits="userSpaceOnUse"><stop offset="0" stop-color="#ff477e"/><stop offset="1" stop-color="#f8a050"/></linearGradient><linearGradient id="linear-gradient-2" x1="317.13" y1="16.47" x2="345.25" y2="16.47" xlink:href="#linear-gradient"/><linearGradient id="linear-gradient-3" x1="515.96" y1="15.79" x2="572.84" y2="15.79" xlink:href="#linear-gradient"/><linearGradient id="linear-gradient-4" x1="572.55" y1="-16.81" x2="600.1" y2="-16.81" xlink:href="#linear-gradient"/><linearGradient id="linear-gradient-5" x1="715.47" y1="2.12" x2="741.99" y2="2.12" xlink:href="#linear-gradient"/><linearGradient id="linear-gradient-6" x1="629.3" y1="2.29" x2="658.36" y2="2.29" xlink:href="#linear-gradient"/><linearGradient id="linear-gradient-7" x1="914.54" y1="16.42" x2="941.07" y2="16.42" xlink:href="#linear-gradient"/><linearGradient id="linear-gradient-8" x1="176.04" y1="15.58" x2="203.95" y2="15.58" xlink:href="#linear-gradient"/><linearGradient id="linear-gradient-9" x1="402.88" y1="16.51" x2="429.94" y2="16.51" xlink:href="#linear-gradient"/><clipPath id="clip-path-3"><rect class="cls-1" x="2005.06" y="-1534.21" width="522.87" height="1239.61"/></clipPath><clipPath id="clip-path-4"><path class="cls-1" d="M2005.35-323.18c201.42,2.56,444.55-135.93,458.83-483.89s-221.07-695.57-443.81-698.41S1553.53-1166.78,1559-818.57,1803.92-325.74,2005.35-323.18Z"/></clipPath><linearGradient id="linear-gradient-10" x1="-690.96" y1="-671.07" x2="2220.16" y2="-671.07" xlink:href="#linear-gradient"/><linearGradient id="linear-gradient-11" x1="2288.48" y1="139.78" x2="2465.48" y2="139.78" xlink:href="#linear-gradient"/><linearGradient id="linear-gradient-12" x1="2147.72" y1="414.1" x2="2182.84" y2="414.1" xlink:href="#linear-gradient"/><linearGradient id="linear-gradient-13" x1="2396.11" y1="413.25" x2="2467.17" y2="413.25" xlink:href="#linear-gradient"/><linearGradient id="linear-gradient-14" x1="2112.39" y1="88.21" x2="2220.48" y2="88.21" xlink:href="#linear-gradient"/><linearGradient id="linear-gradient-15" x1="2574.25" y1="17.12" x2="2643.2" y2="17.12" xlink:href="#linear-gradient"/><linearGradient id="linear-gradient-16" x1="2538.23" y1="212.08" x2="2678.37" y2="212.08" xlink:href="#linear-gradient"/><linearGradient id="linear-gradient-17" x1="2217.35" y1="139.6" x2="2323.63" y2="139.6" xlink:href="#linear-gradient"/><linearGradient id="linear-gradient-18" x1="2255.04" y1="266.28" x2="2359.01" y2="266.28" xlink:href="#linear-gradient"/><linearGradient id="linear-gradient-19" x1="2608" y1="317.83" x2="2749.48" y2="317.83" xlink:href="#linear-gradient"/><linearGradient id="linear-gradient-20" x1="2431.03" y1="53.25" x2="2536.79" y2="53.25" xlink:href="#linear-gradient"/><linearGradient id="linear-gradient-21" x1="2148.35" y1="301.56" x2="2217.32" y2="301.56" xlink:href="#linear-gradient"/><linearGradient id="linear-gradient-22" x1="2858.31" y1="337.38" x2="2926.77" y2="337.38" xlink:href="#linear-gradient"/><linearGradient id="linear-gradient-23" x1="2501.27" y1="121.83" x2="2536.61" y2="121.83" xlink:href="#linear-gradient"/><linearGradient id="linear-gradient-24" x1="2466.8" y1="372.52" x2="2501.22" y2="372.52" xlink:href="#linear-gradient"/><linearGradient id="linear-gradient-25" x1="2645.35" y1="396.18" x2="2678.48" y2="396.18" xlink:href="#linear-gradient"/><linearGradient id="linear-gradient-26" x1="2537.7" y1="396.39" x2="2574.01" y2="396.39" xlink:href="#linear-gradient"/><linearGradient id="linear-gradient-27" x1="2894.04" y1="414.04" x2="2927.19" y2="414.04" xlink:href="#linear-gradient"/><linearGradient id="linear-gradient-28" x1="2858.23" y1="106.25" x2="2891.41" y2="106.25" xlink:href="#linear-gradient"/><linearGradient id="linear-gradient-29" x1="2785.31" y1="246.07" x2="2820.5" y2="246.07" xlink:href="#linear-gradient"/><linearGradient id="linear-gradient-30" x1="2752.18" y1="213.19" x2="2788.27" y2="213.19" xlink:href="#linear-gradient"/><linearGradient id="linear-gradient-31" x1="2751.74" y1="141.43" x2="2785.54" y2="141.43" xlink:href="#linear-gradient"/><linearGradient id="linear-gradient-32" x1="2572.44" y1="282.64" x2="2610.92" y2="282.64" xlink:href="#linear-gradient"/><linearGradient id="linear-gradient-33" x1="2503.84" y1="282.25" x2="2538.66" y2="282.25" xlink:href="#linear-gradient"/><linearGradient id="linear-gradient-34" x1="2397.38" y1="-1.64" x2="2432.2" y2="-1.64" xlink:href="#linear-gradient"/><linearGradient id="linear-gradient-35" x1="2078" y1="104.82" x2="2112.82" y2="104.82" xlink:href="#linear-gradient"/><linearGradient id="linear-gradient-36" x1="1971.52" y1="71.23" x2="2007.43" y2="71.23" xlink:href="#linear-gradient"/><linearGradient id="linear-gradient-37" x1="2255.37" y1="35.76" x2="2291.46" y2="35.76" xlink:href="#linear-gradient"/><linearGradient id="linear-gradient-38" x1="2254.96" y1="354.66" x2="2288.15" y2="354.66" xlink:href="#linear-gradient"/><linearGradient id="linear-gradient-39" x1="1971.46" y1="412.99" x2="2006.33" y2="412.99" xlink:href="#linear-gradient"/><linearGradient id="linear-gradient-40" x1="2254.84" y1="414.15" x2="2288.64" y2="414.15" xlink:href="#linear-gradient"/><linearGradient id="linear-gradient-41" x1="2005.85" y1="104.67" x2="2039.89" y2="104.67" xlink:href="#linear-gradient"/><linearGradient id="linear-gradient-42" x1="1544.49" y1="69.79" x2="1580.42" y2="69.79" xlink:href="#linear-gradient"/><linearGradient id="linear-gradient-43" x1="1544.45" y1="-1.16" x2="1578.47" y2="-1.16" xlink:href="#linear-gradient"/><linearGradient id="linear-gradient-44" x1="1615.43" y1="389.15" x2="1651.46" y2="389.15" xlink:href="#linear-gradient"/></defs><g id="Fix_0001" data-name="Fix 0001"><g class="cls-2"><g class="cls-3"><path class="cls-4" d="M-562.87,20.68V12.37h26.66v8.31h342.56c.3-3.67.6-7.29.89-10.88l25.83,2.68v8.2h58.5V10.38h-28V-17.56h27.94c-.23-9.38-.62-18.75-.66-28.13,0-9.17.3-18.33.5-28.91h28.08q.09,28.56.17,57.1h27.18c.61-9.71,1.15-18.35,1.8-28.66H3.27C4.28-57,5.13-66.14,6-75.23c8.56.79,17.16,1.55,26.81,2.4,0,7.93-.18,14.93,0,21.91.34,10.66.94,21.31,1.4,32-11.63.58-23.26,1.3-34.9,1.7-7.4.26-14.82.05-22.66.05C-23.84-7-24.26,1.35-24.72,10.51H-80.47V20.68H5.33V10.48H31.68c1-10.92,1.93-20,2.8-29.12,8.56.92,17.15,1.81,26.72,2.81,0,6.9-.14,13,0,19,.16,5.83.39,11.66.61,17.49h57.21V11h26.69l1.51-28.48h56.32l0,28.43c14.13.1,28.26.43,42.38.23,13.89-.19,27.89,1.16,43-1.1V-17.77H345.6V-45.92H261.2V-74.47h25.95V-103H259.7v-56.17c-6.4,0-11.47,0-16.53,0q-48-.34-96-.72V-188h56.4v-28.34H145.82v-55.89l-27-1.25v-27.33c37.74-1.21,74.83.41,113.23-1v-56.29h28v-15.16c0-21.77-.1-43.53,0-65.3.13-20.79.51-41.59.79-62.38l-29.71,1.76v56.37H146c.71,9.65,1.31,17.91,1.89,26.19l-30,3.09V-359h-29v-28.07h-28v-26.81H-24.39c.58,9.31,1.1,17.57,1.6,25.85-9.53,2.83-19.05,1.76-29.9.34v-54.5H-81.27v54.55h-27V-471.8H-82v-56.06l-27-1.34c-.38-19.07-.63-37.15.11-56.44h28.33v28.2l28.7,1.26v55.77h28.48c-.24-9.44-.65-18.87-.67-28.31,0-9.19.36-18.39.55-27.07H3.75c.47,9.4.89,17.72,1.31,26.09H31.78v-54.93L5.19-585.94v-57c-9.39.28-18.78.74-28.17.79-9.64,0-19.29-.31-28.45-.48V-670l26.75-1.22c.56-10.78,1-19.66,1.49-28.54H-50.91c-2.73-18.09-2.1-73.39,1.19-84.73h26.41l.91-29.32q13.72.48,27.49.91c-.72-9.18-2.12-18.4,1.4-28.46H33.2l0,28.48H60.3c.66,10.49,1.21,19.14,1.73,27.42H90.25v-27.28h26.92c.6-10.55,1.12-19.81,1.65-29.07H89.58c.49-18.9-.94-37,1-56.35h28.17V-926.5h56.82c-.78-9.15-2-18.33.83-27.22h55.57v27.16l27.22,1.19v26.89H232q.11,28.29.22,56.59c28,1.67,55.91,1.29,83.62.15V-897.1l-26.29-1.32v-112.09h26.57c.56,9.47,1.08,18.15,1.68,28.31l57.37-2.53q-.74-18.87-1.46-37.74c-.21-5.46-.38-10.92-.57-16.44H259.56v55.05h-57v-26.94l-28-1.29v-55.27l-27.42-1.55c-.44-18.16-.89-36.33-1.37-56.1-6.08,0-11.14,0-16.2,0q-33.81-.35-67.63-.73.52-14.64,1-29.28c4.55.54,9.1,1.5,13.65,1.52,28.25.15,56.51,0,84.76.12,4.08,0,8.15.57,12.72.91.56,9.63,1.06,18.28,1.57,27.12h27.88V-1041h28.61v-55.74h28.19v-55.71h27.31c2,28.42-.57,56.12,1.52,83.28h55.24v-26.58l-26.73-1.67v-27l27.89-1.41v-84.73l-56.4-.4c-.44-18.17-.89-36.35-1.37-56.33H232.53v-27.52c18.87-1.77,37.2.73,56.52-1.74v-27.53h28.19v-57.06h27.21v-55.47l-28-1.83v-26.26h-28.5v56.1l-26.18-1.92c-.58,10.66-1.32,21.32-1.67,32-.27,8.34,0,16.69,0,25.15H231v-26.56l-28.41-1.61v-56.39H147.37v-28c14.52,0,28.11.15,41.69,0,13.92-.2,27.92.89,42.91-.84v-27.84H175.36c-.44-10-.82-18.69-1.19-27.06H89.29v54.84H61.72c-.33-18.1-.65-36.2-1-55.07l-27.17-1.51q.5-14.58,1-29.13c8.59,2.41,17.11,1.78,26.9.22v-27.52h57.31c-.54-9.08-1.07-18.17-1.62-27.49l-28-1.29c.8-10.29,1.54-19.73,2.25-29.15,8.64,2.31,17.22,2,27.12-.12v-25.56H147v54.69h27.15c.5-9.42.95-18.1,1.46-27.94h28.29c-.48-8.82-1-17.64-1.49-27.2l-26.81-1.68v-26.87l26.73-1.47V-1725h-28v2.8H90c-.32,9.29-.64,18.58-1,28H32c.46-10.54.9-20.73,1.34-30.77H-53c-.06,1.26-.12,2.49-.18,3.79h-55.14c-.66,10-1.23,18.69-1.79,27.24h-28.19v-27l-26.91-1.2V-1725h-85.62v30.9h-28.77c.1-10.49-.06-20.68-.07-30.9H-422.48v2.55h-26.9V-1725H-1955.14V20.68ZM230.82-44.5v26.6H204q.44-14.46.89-28.92C213.41-46,222-45.28,230.82-44.5Zm-54.74-.83V-74c5.46,0,9.67-.12,13.87,0s8.16.58,12.35.9c.79,9.34,1.48,17.58,2.15,25.84Zm-.63-84.54h27.08v26.57H175.45ZM146.5-407c0-3.12,1-6.22,1.57-9.33,11.61.5,23.24,1,34.88,1.43,6.42.23,12.85.31,19.42.46v27.13l-28,1.85v54.62H146.42C146.42-357,146.36-382,146.5-407Zm-.79-548.48H118.65V-982h27.06ZM90.37-1068.59h56.44c-.33,9.15-.66,18.31-1,27.8H90.37Zm171-142h27.53v27.8H261.32Zm-57.53,29.87h27v55h-26.9c-.24-9.29-.63-18.59-.65-27.88S203.61-1172,203.79-1180.75ZM-593.11-188.3h-26.47v-26.49h26.47Zm28.62-227.37H-591V-442.4h26.55Zm28.7,312.16h-27.06v-26.13h27.06ZM-392.9-1153.82c-.33,9.18-.65,18.37-1,27.68h-28.48c.86-10.41,1.62-19.6,2.36-28.75Zm-27.91-370v-26.6h26.6v26.6Zm200.35,2.08h52.86c2.74,17.47,2.1,73.63-1.06,84.29h-25.07c-.52,10.1-.94,18.41-1.4,27.42h-26.49C-224.32-1432.19-223.41-1511.88-220.46-1521.73Zm-1.63-30.36v-27.8h56.43c-.32,9.15-.65,18.3-1,27.8Zm197,541.28v28.16H-79.72V-954h26.23c.91,9.53,1.71,17.79,2.46,26.09-4.52.59-9,1.59-13.56,1.63-18.89.2-37.8.08-56.69.08h-15.16v-28.94H-110V-982.4l-55.26-1.3c-.25-9.29-.66-18.58-.7-27.87s.32-18.33.52-28.56h56.59v28.73c15,0,28.66-.12,42.29,0C-52.65-1011.2-38.6-1012.1-25.06-1010.81ZM-51.57-1154.5v-26.17h26.66v26.17ZM-193.4-301.29c-9.64,0-19.28-.33-30.3-.55.91-20.48,1.75-39.1,2.55-57.68l27.33,2.86V-330h28.47c-1.12-28.07-1.24-56.12.06-83.78h27.81v55.14l27.45,1.28v112.24h-27.25V-217h-56.91c-.31-19-.57-37.05.13-56.17h28.71q.06-14.44.11-28.87C-174.63-301.8-184-301.33-193.4-301.29Zm-87.18-56v26.62h-55v-26.62Zm-54.8-29.94V-414h26.55v26.71Zm-.31-57V-472h113.16c-.31,9.15-.61,18.31-.93,27.74Zm-.79-367.26c0,8-.18,15,0,22,.33,10.7.93,21.38,1.38,32.13-9.54,3.09-19.08,1.68-29.51.74-.41-19-.61-37,0-54.86Zm-27.13-200v-27.29H-309c.77,9.23,1.47,17.49,2.11,25.78C-325.84-1009.66-344.79-1012.07-363.61-1011.48Zm27.16,141.11c.23-19-.62-37.08.56-56.19h28.22v56.19Zm29.13,172.52h26.85v83.43h-26.91C-308.5-642.37-308.61-670.3-307.32-697.85Zm.4-87.16v-27.08h26.07V-785Zm84.1,23.88c.33,10.69.93,21.38,1.38,32.12-9.54,3.09-19.08,1.69-29.5.75-.42-19-.62-37,0-54.86h28.06C-222.86-775.12-223-768.12-222.82-761.13ZM-164-841.56h26.54v28.28h-27.9C-166.17-822.31-167.32-831.38-164-841.56Zm-1.67,28.62v27.8h-27.53v-27.8Zm27.27-55.85-55.32-1.29q.48-14.58.94-29.13c4.55.49,9.1,1.33,13.66,1.37,19.36.16,38.73,0,58.1.12,3.59,0,7.18.75,10.9,1.17v54.65h-27Zm-28.56,114.2v26.31h-27v-26.32Zm.26,227.22c.46,9.39.87,17.7,1.36,27.74h26.76v27.24h-83.63c-.7-9.07-2.14-18.22,1.62-28.37h26.33v-26.61ZM-250-671.52v-27.79h27.53v27.79Zm26.31,58.89V-586h-26.27v-26.58Zm1.58-87q.48-14.57.95-29.12l26.91.83v28.28Zm28-142.3h-27.53v-27.8H-194Zm-55.75,453.8-28.65,2v-27.71h26.13C-251.41-404.63-250.6-396.39-249.8-388.15Zm-29,87.59h26.59v26.61h-26.59Zm.33,57.14h26.13c.91,9.22,1.72,17.47,2.52,25.71l-28.65,2Zm28.88,25.93,25.82,2.74v26h-28.18C-251.06-199.15-250.3-208.34-249.57-217.49Zm-2.34-140c.91-11.61,1.64-21.07,2.34-30.48l25.67,2.7c.89,9.08,1.7,17.29,2.51,25.49ZM-137.24-586.3h-27.53v-27.8h27.53Zm-.13-85.22c-.33-19-.58-37.05.12-56.15h28.35v29.18h27.21v27ZM-108.56-728c-.7-9.08-2.15-18.2,1-26.64h25.92V-728Zm-56.59-341.27v-26.61h26.59v26.61Zm26.81-56.86c.9-10.45,1.7-19.67,2.47-28.86l25.72,3v25.88Zm85.06,85.67h-55.26c-.24-9.29-.63-18.58-.66-27.87s.34-18.38.52-27.19h27.21c.45,9.32.84,17.63,1.28,26.81l26.91,1.18Zm-28.15-170.72h-55.44V-1239h56.43C-80.77-1229.87-81.09-1220.72-81.43-1211.22ZM-110.12-1325H-138.3c.85-10.36,1.6-19.54,2.35-28.71l25.83,2.68ZM-136-1155.19l-29.33,1,.9-28.88,25.61,2.26C-137.81-1171.59-136.9-1163.38-136-1155.19Zm-58.46-27.76c0-9.64-.07-18.53,0-27.42.1-9.2.36-18.4.55-27.2H-166c0,7.11-.14,13.18,0,19.25.32,11.63.82,23.26,1.19,34.94C-174.35-1180.54-183.85-1181.67-194.46-1182.95Zm28.82-141.9h-27.53v-27.8h27.53Zm-.08,171.1c-.3,9.15-.6,18.3-.92,27.74h-83.85v-27.74Zm-29.5,58V-1069h-26.55v-26.74ZM-224-1239.09h-27.3c.5-19.32-.93-37.38.85-55.43H-224Zm-26.9,254.64v-26.36l28.58-1.36V-1039h28.17v55.62h28.51v28.08h-28.49q.57,27.91,1.15,55.84L-222-897.36v-58l-28.45,1.59c-.56,9.3-1.08,17.92-1.62,26.9h-55.23v-26.9l26.49-1.61c1.06-10.64,2-19.85,2.86-29C-269.35-982.09-260.78-982.45-250.9-984.45Zm-27.81-84.43v-26.48h26.47v26.48Zm26.6-256h-26.76v-26.61h26.76ZM-278.2-984.67l-30.44,2.31c.82-11.48,1.49-20.87,2.16-30.23l25.76,2.27C-279.82-1001.12-279-992.89-278.2-984.67Zm-2.67-169.63H-308.7v-27.48h-26.55v-28.46h54.38ZM-309-1495.41h-28.18c.86-10.39,1.62-19.58,2.35-28.74l25.83,2.74Zm-54.71-27v-28.73c5.42,0,9.63-.13,13.82,0s8.16.58,12.31.9c.91,9.31,1.72,17.56,2.53,25.79Zm26.27,114.48v26.11H-364v-26.11Zm-.12,312.33v27.22c-19.12.06-37.2.58-55.3-.32v-26.9Zm-138.92,736.9h26.54v28.28h-27.89C-478.64-339.41-479.79-348.48-476.44-358.66ZM-478.11-330v27.8h-27.53V-330Zm27.25-282.79v26.71h-26.55v-26.71ZM-477.31-643v-27h26.48v27Zm29.45,256h26.39q.71,13.62,1.42,27.24-14.77.39-29.54.82C-450-368-451.59-377.06-447.86-387.06Zm-1-27.49v-27.71h26.13c.9,9.22,1.71,17.47,2.52,25.71ZM-449-500.9v-27.94h55.08c.47-9.95.88-18.6,1.29-27.11h27v55.05Zm57.14-171.31-28.65,2v-27.71h26.14C-393.44-688.69-392.63-680.44-391.83-672.21ZM-394-842.08c.87-10.38,1.63-19.58,2.36-28.74l25.83,2.74v26Zm-.22,57h-27v-26.33h27Zm.22,141.84c.87-10.4,1.63-19.59,2.36-28.75l27.1,1.08c-.32,9.18-.65,18.36-1,27.67Zm2.13-227.8-28.65,2v-27.71h26.14C-393.44-887.53-392.63-879.28-391.83-871Zm-29.66,86.29v27.92h-29.27c.86-10.39,1.62-19.6,2.35-28.78Zm-55.8.94v-27.71h26.13c.91,9.22,1.71,17.46,2.52,25.7Zm26.12-256.75H-477.8v-26.79h26.63Zm-.08,143.69v26.7h-55v-26.7Zm-28.07-200.46H-506.2c-.77-9.08-2.2-18.2,1-26.63h25.92ZM-534-1069.2V-1097h27.53v27.79Zm26.54,58.86V-984H-534v-26.38Zm28.1-257.83h-28.18c.86-10.38,1.63-19.58,2.36-28.74l25.82,2.75Zm-54.7-27v-27.71H-508c.91,9.23,1.71,17.47,2.52,25.71Zm26.48,85.85v26.57h-27.06v-26.57ZM-534.1-243.42H-508c.91,9.22,1.71,17.47,2.52,25.71l-28.65,2Zm28.88,25.91q18.89.73,37.76,1.47c5.46.2,10.94.36,16.46.54v26.76h-56.58C-506.71-199.14-505.95-208.34-505.22-217.51Zm-.48,59.31h26.14c.9,9.22,1.71,17.46,2.52,25.7l-28.66,2ZM-478.11-75h-27.53v-27.79h27.53Zm55.61,0h-27.94v-26.61l-27.31-1.52q.5-14.61.95-29.18c11.61.49,23.21,1,34.82,1.46,6.41.24,12.81.34,19.48.51Zm28.29-255.83H-422.4c.9-10.45,1.7-19.67,2.47-28.86l25.72,3Zm0-56.6h-27q.58-14.48,1.16-28.93l25.82,2.74ZM-392.4-300h26.6v83.36h-26.6Zm.33,141.83h26.13c.9,9.22,1.71,17.46,2.52,25.7l-28.65,2Zm54.7,54.67h-28.18c.86-10.4,1.63-19.59,2.36-28.74l25.82,2.74Zm.08-567.72h-26.88c-.77-9.08-2.2-18.19,1-26.62h25.92Zm2.5-85.91,25.83,2.68v26h-28.18C-336.29-738.81-335.54-748-334.79-757.16ZM-335.93-614h28.19v29.18h27.21v27h-55.91C-336.25-576.93-337-594.95-335.93-614Zm26.67,596h-26.06V-45.13h26.06Zm.2-227.56h-27v-26h27Zm2,58.8h26.32V-160H-307Zm.18,57h26.14c.9,9.23,1.71,17.47,2.52,25.71l-28.66,2Zm26.5,83.93c.84-20.23,1.63-39.13,2.39-58l26.1,2.77c.43,9.15.82,17.44,1.3,27.45h26.74c.84,10,1.53,18.19,2.17,26.45C-240.5-43.9-259.36-46.13-280.36-45.87Zm56.82,57.69c.82-21,1.56-39.84,2.29-58.63l27.14.87q.57,27.67,1.08,55.42Zm56.67-58.12h-26.91c-.69-9.08-2.15-18.21,1-26.64h25.92ZM-24.94-217.14H-51.53v-26.6h26.59ZM88.69-46.7H62.08V-73.3H88.69Zm56.84,0h-28.3c.86-19.83,1.67-38.48,2.49-57.13q12.84,1.38,25.81,2.72Zm1.29-112.87v27.93l-29.27,1.76c.7,9.37,1.31,17.57,1.89,25.78-5,.6-9.92,1.62-14.88,1.65-29.07.16-58.14,0-87.21.12-4,0-8.06.52-13.36.89C4.6-92,5.12-83.8,5.63-75.56c-9.52,2.85-19,1.7-28.37.61-2.5-19.77-1.86-45.35,1.68-56.38H89c.49-9.92.91-18.55,1.39-28.27Zm-169.56-.62V-188H4.79v27.79Zm139.87-54.55v26H89c.85-10.36,1.6-19.55,2.35-28.74Q104.17-216.1,117.13-214.77ZM89.6-271.67c0,7.92-.17,14.92,0,21.91.34,10.66.94,21.31,1.4,32l-29.21,3c-.45,8.93-.87,17.26-1.33,26.41H5.14V-215.2L33.05-217v-26.73l27-1.48c1-10.6,1.85-19.75,2.7-28.87C71.35-273.28,80-272.52,89.6-271.67Zm-112-116c18,.71,36.06,1.39,55.83,2.14v83.77l26.85,1.22c.81,9.59,1.51,17.85,2.18,26.12-19,3.35-38,.92-58.33,1.57v-84.29L-24.63-359C-23.83-369.38-23.13-378.55-22.43-387.7Zm-58.39,86.35c.09-9.18.33-18.35.51-27.83h55.57V-302l-27,1.65c-.47,9.35-.88,17.66-1.33,26.6H-80.84C-80.84-283.61-80.9-292.48-80.82-301.35Zm27.53,142.64v83.76h-27c-.34-18.15-.68-36.29-1-55.13h-27.07c-.57,9.2-1.11,17.89-1.64,26.5h-55.52c-.41-9.47-.78-17.79-1.16-26.56l-26.69-1.32v-55.33h26.56c.58,9.45,1.11,18.13,1.64,26.68h27c.45-9.45.86-18.11,1.32-27.86h28v29.25ZM-107.57-215h25.92v26.64h-26.91C-109.25-197.41-110.72-206.54-107.57-215Zm-29.32-399.47v-26.63h55.15c.77,9.22,1.47,17.46,2.13,25.7ZM-53.24-586H-80.11l.9-28.93c8.56.79,17.16,1.55,26,2.32Zm.81-227.67c0-9.63-.07-18.53,0-27.41.1-9.2.36-18.4.54-27.2H-24c0,7.13-.14,13.19,0,19.25.32,11.63.81,23.27,1.21,34.93C-32.3-811.27-41.81-812.39-52.43-813.68Zm112.82-28H33.51c-.77-9.08-2.2-18.2,1-26.63H60.39Zm28.47-140.4V-927l-27,1.67c-.47,9.45-.89,17.79-1.29,25.89-16.26,2.74-102,2.21-113.48-.88.72-8.92,1.47-18.09,2.21-27.27,14.69,2.38,44,1.92,55.53-1.26v-25c19.41-2.13,37.78.84,57.09-2.1v-26.19Zm-111.6-87.12V-1097H4.79v27.79Zm27.88-28.13v-28.07H61.59c-.33,9.15-.66,18.31-1,28.06ZM31.82-1039v55.35H5.35V-1039ZM145.53-1183h-28.3c.86-19.83,1.67-38.48,2.49-57.12q12.84,1.38,25.81,2.71Zm56.81-139.61v111.19h-27.4c0-37,0-72.93.07-108.82,0-1.71.91-3.42,1.44-5.11Zm-55.59-57.06h28.07c0,8-.18,15,0,22,.33,10.69.94,21.38,1.43,32.07l-29.54,2C146.33-1343.77,146.12-1361.84,146.75-1379.63Zm-28.44-.13v84.82h27.38v27.1l-28.12,1.68c.68,9.28,1.29,17.53,1.87,25.79l-30.17,3.09v56l-26.34-1.94q0,14.05-.08,28.1c-19.09,3.65-38.16,1-58,1.78-1.14-29.36.41-57-1-86H-80.1c-.59-9-1.17-18.07-1.83-28.25H-108V-1296h26.59c.46-9.93.86-18.54,1.3-28.18h28v56h28.54v-27.29H4.58v-57H32c.57-10,1.07-18.64,1.57-27.28Zm-141.07-57.45v-27.63H3.47c.78,9.23,1.47,17.47,2.14,25.73ZM5-1409.15c-.44,9.09-.88,18.19-1.32,27.41H-23.2v-27.4Zm1-29.57c9,.3,18.12.57,27.19.85v28.35H5.35Q5.66-1424.13,6-1438.72Zm-57.9-56.51v-27.85H33.19c-.33,9.18-.66,18.37-1,27.84Zm27,144.25v26.42H-51.71q.51-14.58,1-29.16ZM-51-1354l-28.65,2v-27.71h26.13C-52.57-1370.43-51.77-1362.19-51-1354Zm139.65-82.15v25.88H60.5c.9-10.45,1.7-19.67,2.48-28.86Zm-53.82-30.37H61.42q.72,13.62,1.43,27.23l-29.34,1C32.67-1447.24,31.52-1456.31,34.87-1466.48Zm-2.06-170c.09-9.18.34-18.35.52-27.22H88.55c.91,9.22,1.71,17.46,2.52,25.69-9.6,1-19.18,1.93-29.21,2.94-.46,8.91-.89,17.23-1.34,26.19H32.79C32.79-1618.71,32.71-1627.6,32.81-1636.48Zm-27.2,58H31.74c.9,9.22,1.71,17.46,2.52,25.69l-28.65,2Zm-28.87-142H3.58V-1637H-23.33C-24.44-1665-24.55-1692.91-23.26-1720.46ZM-51.7-1609.21v-27.44h28c-.21,28.08-.43,56.16-.65,84.41H-81.66c.91-19.89,1.77-38.59,2.6-57.26C-70.5-1606.75-62-1607.61-51.7-1609.21ZM-52.21-1467H-81.49c.86-10.39,1.62-19.59,2.37-28.77l26.9.86C-52.21-1485.68-52.21-1476.46-52.21-1467Zm-27-225.08h25.93v26.64H-80.15C-80.85-1674.51-82.31-1683.63-79.17-1692.07Zm-29.61,27h28.3q.65,27.71,1.3,55.41c-9.59,3.24-19.19,1.53-30,1.1C-109.06-1627.75-109.69-1645.82-108.78-1665.06Zm1.21,143.41h25.69c.9,9.23,1.71,17.44,2.51,25.65q-14.58.51-29.15,1C-109.3-1504.09-110.7-1513.2-107.57-1521.65Zm-28.79,27h27.53v27.79h-27.53Zm-.75,57.25c28.73,0,56.24-.36,83.76.23V-1410h-83.76Zm-.31,27.75q.61,27.81,1.2,55.66l-29.09,1c-.25-9.25-.66-18.51-.7-27.76s.3-18.33.5-28.91ZM-158-1636.34c6.41.24,12.83.34,19.53.51v55.6h-26.88c-.54-9-1.09-17.92-1.65-27.09l-28-1.29c.78-10.29,1.51-19.72,2.23-29.13C-181.16-1637.27-169.57-1636.76-158-1636.34Zm-120.86-28.82h56.45v-55.58h27.08c.61,9.41,1.16,18.1,1.8,28h26.29v27.43l-27.69,1.3c.69,9.43,1.29,17.66,1.85,25.94-11.62.58-23.24,1.29-34.86,1.69-7.4.26-14.81,0-23.55,0v55.77h-27.37Zm-.41,143.71h28c0,5.47.11,9.68,0,13.89s-.52,8.15-.79,12.1h-27.15Zm-28.45,56.53h27.31c.54,9.56,1,18.22,1.59,28.07H-252V-1410h-55.75C-308.15-1428.95-308.41-1447-307.69-1464.92Zm-27.63-170.46h26.55v26.57h-26.55ZM-364-1692h26.66v26.18H-364Zm-28.23,340.56h26.35v83.6h-26.35Zm-.6,114h28c0,5.46.11,9.68,0,13.88s-.52,8.15-.79,12.1h-27.15Zm1.24,56.62h25.93v26.62h-26.88C-393.35-1163.22-394.77-1172.34-391.62-1180.77ZM-420.88-1692h26.73v83.35h-26.73Zm.65,536.87-28.65,2v-27.71h26.13C-421.85-1171.59-421-1163.34-420.23-1155.1ZM-439-1465.9c5.47.23,10.93.37,16.33.55v26.73h-56.58c.9-10.46,1.7-19.69,2.47-28.88Q-457.85-1466.69-439-1465.9Zm-12-29.12h-26.88c-.77-9.08-2.2-18.2,1-26.63h25.93Zm-28.26-57.2c.86-10.39,1.62-19.58,2.36-28.74l25.82,2.74v26Zm2-140.34h26.28v26.84H-477.2Zm-28.49,84.64c5.41,0,9.62-.12,13.81,0s8.16.58,12.31.9c.91,9.31,1.72,17.55,2.53,25.79l-28.65,2Zm0,113.25h27.62l1.23,27-28.85,2.15Zm-2.09,115.29v26H-536c.86-10.38,1.62-19.57,2.35-28.73ZM-562.51-1408h26.14c.9,9.22,1.71,17.46,2.51,25.7l-28.65,2Zm-28.44-113.69h26.51v26.57h-26.51Zm-.49,795.28h55v26.74h-55ZM-619.5-1294.6h26.56v55.19H-619.5Zm-.23,483.15h27.07v26.27h-27.07Zm-.39,454.65h27v54.36h-27Zm-1.15,367.11h-26.47v-27h26.47ZM-648.51-1351h27v26h-27Zm-27.84-256.12h27.4c0,6,.11,10.23,0,14.44s-.52,8.13-.79,12h-26.58Zm-.12,795.75h27.06v26.14h-27.06Z"/><path class="cls-5" d="M345.24,20.68c0-2.8,0-5.59,0-8.43H317.52q-.18,4.14-.39,8.43Z"/><path class="cls-6" d="M516,20.68h56.88V10.89H516.68C516.34,14.19,516.12,17.44,516,20.68Z"/><path class="cls-7" d="M572.84,10.51H600.1v-55h-27c-.19,8.77-.55,18-.52,27.15,0,9.42.42,18.83.66,28.25Z"/><rect class="cls-8" x="715.47" y="-16.44" width="26.52" height="37.13"/><path class="cls-9" d="M658.36,20.68c-.21-5.84-.46-11.69-.62-17.54-.17-6.05,0-12.12,0-19.24H629.88c-.18,8.78-.45,18-.55,27.17,0,3.18,0,6.4,0,9.61Z"/><rect class="cls-10" x="914.54" y="12.16" width="26.53" height="8.52"/><path class="cls-11" d="M203.93,20.68q0-5.1,0-10.2L176,11.81v8.87Z"/><rect class="cls-12" x="402.88" y="12.33" width="27.06" height="8.36"/></g></g><g class="cls-13"><g class="cls-14"><path class="cls-15" d="M1048.36,419.37V409h33.3v10.4h428c.37-4.59.74-9.11,1.11-13.61l32.27,3.36v10.25h73.08V406.49h-35v-34.9H1616c-.3-11.71-.79-23.43-.83-35.14,0-11.45.37-22.91.62-36.12h35.08l.21,71.34h34c.76-12.14,1.43-22.93,2.24-35.81h68.39c1.26-13.57,2.33-25,3.38-36.31,10.7,1,21.44,1.92,33.5,3,0,9.91-.22,18.65,0,27.37.42,13.31,1.17,26.62,1.75,40-14.53.73-29.06,1.63-43.59,2.13-9.26.32-18.53.06-28.31.06-.64,12.73-1.17,23.15-1.74,34.59H1651v12.72H1758.2V406.62h32.91c1.31-13.65,2.41-25,3.51-36.38,10.69,1.15,21.42,2.26,33.37,3.51,0,8.62-.17,16.2,0,23.76.2,7.28.49,14.57.76,21.86h71.48V407.21h33.34c.66-12.49,1.24-23.32,1.89-35.58h70.34q0,17.76.05,35.52c17.65.13,35.3.54,53,.3,17.34-.24,34.83,1.45,53.7-1.38V371.33h70.74V336.15H2077.85V300.49h32.41V264.81H2076V194.63c-8,0-14.33,0-20.66,0q-60-.44-119.93-.91V158.63h70.45V123.24H1933.7V53.42l-33.77-1.57V17.71c47.15-1.51,93.5.51,141.46-1.2V-53.82h35V-72.75c0-27.19-.14-54.38,0-81.57.17-26,.64-52,1-77.94l-37.11,2.2v70.43H1933.87c.88,12,1.63,22.37,2.36,32.72L1898.79-123v68.1h-36.27V-90h-35V-123.5H1721.06c.74,11.62,1.39,21.94,2,32.28-11.92,3.54-23.8,2.2-37.35.43v-68.08H1650v68.14h-33.73V-195.87h32.87v-70l-33.7-1.68c-.47-23.82-.78-46.41.15-70.5H1651v35.22l35.86,1.58v69.67h35.57c-.29-11.79-.8-23.58-.83-35.36,0-11.49.45-23,.68-33.82h34c.58,11.74,1.11,22.14,1.63,32.59h33.38v-68.63L1758-338.48v-71.21c-11.73.35-23.46.93-35.19,1-12,.06-24.1-.39-35.54-.6v-34.16l33.42-1.52c.7-13.47,1.28-24.57,1.85-35.66h-34.62c-3.41-22.59-2.62-91.68,1.49-105.85h33l1.14-36.63q17.15.6,34.35,1.15c-.9-11.47-2.66-23,1.74-35.56H1793l0,35.58h33.88c.83,13.1,1.51,23.9,2.17,34.25h35.25v-34.08h33.64c.74-13.18,1.4-24.75,2-36.32h-36.53c.61-23.6-1.17-46.23,1.21-70.39h35.18v-35.43h71c-1-11.43-2.47-22.9,1-34h69.43V-764l34,1.49v33.59h-34q.14,35.34.27,70.7c35,2.09,69.84,1.61,104.46.19V-727.2l-32.84-1.63v-140h33.2c.7,11.83,1.34,22.67,2.09,35.36l71.67-3.15q-.91-23.58-1.82-47.15c-.27-6.82-.48-13.65-.72-20.54H2075.8v68.77h-71.2v-33.66l-35-1.61v-69l-34.25-1.94c-.55-22.69-1.11-45.39-1.71-70.08-7.6,0-13.92.06-20.24,0q-42.24-.42-84.49-.9.64-18.3,1.28-36.58c5.68.67,11.36,1.87,17,1.9,35.3.18,70.6,0,105.9.14,5.09,0,10.18.71,15.88,1.14.7,12,1.33,22.85,2,33.89h34.84V-907h35.74v-69.65h35.22v-69.59h34.12c2.55,35.5-.72,70.11,1.89,104h69v-33.2l-33.39-2.09v-33.7l34.85-1.75v-105.86l-70.47-.49c-.55-22.7-1.1-45.41-1.71-70.38H2042V-1224c23.57-2.21,46.47.91,70.6-2.17v-34.4h35.23v-71.28h34v-69.3l-35-2.28v-32.81h-35.59v70.09l-32.71-2.41c-.72,13.33-1.65,26.64-2.09,40-.34,10.42-.07,20.85-.07,31.43h-36.27v-33.19l-35.49-2v-70.44h-69v-34.92c18.13,0,35.1.18,52.07,0,17.39-.25,34.88,1.11,53.61-1.06v-34.78h-70.72c-.55-12.49-1-23.34-1.49-33.8h-106v68.51h-34.44c-.41-22.61-.83-45.22-1.25-68.79l-34-1.89q.61-18.21,1.2-36.39c10.73,3,21.37,2.22,33.61.28v-34.39h71.59c-.67-11.34-1.34-22.69-2-34.33l-35-1.62c1-12.86,1.91-24.65,2.81-36.41,10.8,2.88,21.51,2.55,33.88-.15v-31.93h35.72v68.31h33.93c.61-11.77,1.18-22.6,1.82-34.89h35.34c-.6-11-1.21-22-1.86-34l-33.49-2.09v-33.57l33.39-1.85v-38.89h-34.93v3.51H1863.93c-.4,11.6-.79,23.21-1.19,34.94h-71.22c.58-13.16,1.13-25.9,1.68-38.45H1685.29c-.08,1.58-.15,3.12-.23,4.74h-68.88c-.82,12.49-1.53,23.35-2.24,34h-35.21v-33.69l-33.62-1.49v-3.59h-107v38.61h-35.93c.11-13.1-.08-25.83-.09-38.61H1223.75v3.2h-33.61v-3.2H-691V419.37Zm991.53-81.44v33.24h-33.57q.56-18.07,1.12-36.14C2018.14,336,2028.88,337,2039.89,337.93Zm-68.39-1V301.07c6.82,0,12.09-.15,17.34,0s10.18.73,15.43,1.13c1,11.67,1.85,22,2.68,32.28Zm-.77-105.62h33.82v33.19h-33.82Zm-36.18-346.2c0-3.89,1.24-7.77,2-11.65,14.51.62,29,1.26,43.58,1.78,8,.29,16.05.39,24.27.58v33.9l-35,2.31v68.23h-34.87C1934.46-52.47,1934.38-83.69,1934.55-114.92Zm-1-685.19h-33.81V-833.3h33.81Zm-69.13-141.32h70.5c-.41,11.44-.82,22.87-1.24,34.73h-69.26ZM2078-1118.86h34.4c0,11.41,0,22.82,0,34.73H2078Zm-71.86,37.31h33.77v68.75h-33.61c-.3-11.61-.79-23.22-.82-34.83S2005.9-1070.59,2006.13-1081.55ZM1010.58,158.29H977.52V125.2h33.06Zm35.76-284h-33.17v-33.4h33.17Zm35.86,390h-33.81V231.57h33.81ZM1260.7-1047.9c-.41,11.47-.82,22.94-1.23,34.57h-35.58c1.08-13,2-24.48,2.95-35.91Zm-34.86-462.22v-33.23h33.22v33.23Zm250.29,2.59h66c3.42,21.83,2.62,92-1.32,105.31h-31.32c-.65,12.61-1.18,23-1.75,34.25h-33.09C1471.3-1395.66,1472.44-1495.21,1476.13-1507.53Zm-2-37.92v-34.73h70.5c-.41,11.43-.82,22.87-1.24,34.73Zm246.14,676.21v35.18h-68.29v35.82h32.77c1.15,11.91,2.14,22.23,3.08,32.59-5.65.75-11.29,2-16.94,2-23.61.25-47.22.11-70.83.11h-18.93v-36.17h33v-34.08l-69-1.63c-.31-11.61-.82-23.21-.87-34.82-.05-11.45.4-22.9.65-35.67h70.69V-870c18.78,0,35.81-.16,52.83,0C1685.77-869.73,1703.31-870.86,1720.23-869.24Zm-33.11-179.51v-32.7h33.3v32.7ZM1509.93,17.13c-12,.06-24.09-.41-37.85-.68,1.14-25.59,2.18-48.85,3.18-72.06L1509.41-52v33.28H1545c-1.4-35.07-1.55-70.11.07-104.66h34.75v68.88l34.29,1.61V87.28h-34v35.11h-71.1c-.39-23.79-.71-46.29.16-70.18H1545q.08-18,.14-36.07C1533.38,16.49,1521.66,17.08,1509.93,17.13ZM1401-52.89v33.26h-68.74V-52.89Zm-68.45-37.39v-33.38h33.17v33.38Zm-.39-71.2v-34.67h141.36c-.38,11.44-.76,22.89-1.15,34.67Zm-1-458.81c0,10-.22,18.74,0,27.47.42,13.36,1.17,26.71,1.72,40.13-11.91,3.87-23.83,2.11-36.86.93-.51-23.7-.77-46.27,0-68.53Zm-33.89-249.79v-34.09h68.23c1,11.53,1.84,21.84,2.64,32.2C1344.48-867.81,1320.81-870.83,1297.29-870.08Zm33.92,176.28c.3-23.8-.77-46.32.71-70.19h35.25v70.19Zm36.4,215.52h33.54V-374h-33.62C1366.14-409,1366-443.86,1367.61-478.28Zm.51-108.88V-621h32.56v33.83Zm105.06,29.83c.41,13.36,1.16,26.71,1.72,40.13-11.92,3.86-23.83,2.11-36.86.93-.52-23.7-.77-46.27,0-68.53h35C1473.12-574.81,1472.9-566.06,1473.18-557.33Zm73.51-100.47h33.16v35.32H1545C1543.94-633.76,1542.51-645.09,1546.69-657.8ZM1544.6-622v34.73h-34.39V-622Zm34.07-69.77-69.11-1.62q.62-18.21,1.18-36.39c5.69.61,11.37,1.66,17.06,1.71,24.2.2,48.39,0,72.59.16,4.49,0,9,.93,13.61,1.45v68.27c-12,0-22.87,0-33.77,0C1579.73-669.06,1579.22-679.91,1578.67-691.82ZM1543-549.16v32.87h-33.71v-32.88Zm.33,283.86c.58,11.74,1.09,22.11,1.7,34.66h33.44v34H1474c-.87-11.34-2.67-22.76,2-35.45h32.89V-265.3ZM1439.24-445.38V-480.1h34.39v34.72Zm32.85,73.57v33.2h-32.8v-33.2Zm2-108.72q.59-18.18,1.19-36.37l33.61,1v35.34Zm35-177.77h-34.4V-693h34.4ZM1439.47-91.38l-35.79,2.51v-34.62h32.65C1437.46-112,1438.46-101.67,1439.47-91.38Zm-36.2,109.43h33.22V51.28h-33.22Zm.41,71.38h32.65c1.13,11.52,2.13,21.82,3.14,32.11l-35.79,2.51Zm36.08,32.39,32.26,3.43v32.48h-35.21C1437.89,144.74,1438.84,133.26,1439.76,121.82ZM1436.84-53c1.12-14.51,2-26.32,2.92-38.08l32.06,3.37L1475-55.89Zm143.25-285.9H1545.7v-34.73h34.39Zm-.17-106.46c-.4-23.79-.72-46.29.16-70.15h35.41v36.44h34v33.7Zm36-70.61c-.87-11.34-2.69-22.74,1.23-33.28h32.39V-516Zm-70.71-426.34v-33.24h33.22v33.24Zm33.5-71c1.13-13.06,2.12-24.58,3.09-36.06l32.13,3.73v32.33Zm106.27,107h-69c-.3-11.6-.79-23.21-.82-34.82s.42-23,.65-34h34c.56,11.64,1,22,1.59,33.49l33.63,1.48Zm-35.18-213.28h-69.25v-34.72h70.5C1650.64-1142.91,1650.23-1131.48,1649.8-1119.62ZM1614-1261.71h-35.2c1-13,2-24.42,2.93-35.87l32.27,3.35Zm-32.33,212.1L1545-1048.3q.55-18,1.12-36.08l32,2.82C1579.38-1070.1,1580.51-1059.85,1581.64-1049.61Zm-73-34.69c0-12-.09-23.14,0-34.25.12-11.49.45-23,.68-34h34.79c0,8.88-.18,16.47,0,24,.41,14.53,1,29,1.49,43.64C1533.73-1081.28,1521.86-1082.69,1508.6-1084.3Zm36-177.26h-34.39v-34.73h34.39Zm-.09,213.74c-.38,11.43-.76,22.86-1.14,34.66H1438.61v-34.66Zm-36.85,72.48v33.4h-33.17v-33.4Zm-36-179.09h-34.1c.62-24.13-1.15-46.7,1.07-69.25h33ZM1438.1-836.31v-32.93l35.7-1.7v-33.51H1509V-835h35.61v35.08H1509l1.44,69.77-36.29,2.6V-800l-35.55,2c-.69,11.63-1.34,22.4-2,33.61h-69V-798l33.08-2c1.32-13.28,2.47-24.79,3.57-36.25C1415.05-833.36,1425.75-833.82,1438.1-836.31Zm-34.75-105.48v-33.08h33.07v33.08Zm33.24-319.81h-33.43v-33.25h33.43Zm-32.6,425-38,2.88c1-14.33,1.86-26.07,2.69-37.76l32.18,2.84Zm-3.34-211.91h-34.77v-34.34h-33.16v-35.54h67.93Zm-35.09-426.15h-35.21c1.08-13,2-24.46,3-35.9l32.26,3.43Zm-68.34-33.67v-35.9c6.77,0,12-.15,17.26,0s10.19.73,15.38,1.12c1.14,11.64,2.14,21.94,3.15,32.23Zm32.81,143v32.62h-33.22v-32.62Zm-.14,390.17v34c-23.9.06-46.48.72-69.09-.4v-33.62ZM1156.34-54.54h33.16v35.33h-34.85C1153.59-30.49,1152.16-41.82,1156.34-54.54Zm-2.09,35.76V15.94h-34.39V-18.78Zm34-353.28v33.37h-33.17v-33.37Zm-33-37.72v-33.76h33.08v33.76ZM1192-90h33q.88,17,1.78,34-18.46.51-36.91,1C1189.41-66.18,1187.38-77.53,1192-90Zm-1.28-34.34V-159h32.65c1.13,11.53,2.14,21.83,3.14,32.12Zm-.1-107.87v-34.9h68.8c.59-12.43,1.11-23.24,1.62-33.87h33.74v68.77Zm71.38-214-35.79,2.51v-34.62h32.65C1260-466.83,1261-456.53,1262-446.24Zm-2.66-212.22c1.08-13,2-24.46,2.95-35.9l32.26,3.42v32.48Zm-.28,71.2c-12,0-22.85,0-33.72,0v-32.89h33.72Zm.28,177.2c1.08-13,2-24.48,2.95-35.92l33.85,1.34c-.4,11.48-.81,22.95-1.22,34.58ZM1262-694.64l-35.79,2.5v-34.62h32.64Zm-37,107.8V-552h-36.58c1.08-13,2-24.49,2.94-35.95Zm-69.72,1.16V-620.3h32.65l3.15,32.12Zm32.63-320.75h-33.27v-33.46h33.27Zm-.09,179.51v33.36h-68.7v-33.36Zm-35.07-250.42h-33.58c-1-11.34-2.75-22.73,1.2-33.26h32.38Zm-68.37,35.15v-34.72h34.4v34.72Zm33.16,73.53v33h-33.15v-33Zm35.11-322.1h-35.2c1.07-13,2-24.46,2.94-35.9l32.26,3.43Zm-68.34-33.67V-1259H1117c1.13,11.52,2.14,21.82,3.14,32.11Zm33.08,107.24V-1084h-33.8v-33.19ZM1084.3,89.43H1117l3.15,32.11-35.8,2.51Zm36.08,32.37q23.58.93,47.17,1.83c6.83.26,13.67.45,20.57.68v33.43h-70.68C1118.52,144.75,1119.47,133.25,1120.38,121.8Zm-.59,74.09h32.65c1.12,11.52,2.13,21.82,3.14,32.11l-35.79,2.51Zm34.46,103.94h-34.39V265.11h34.39Zm69.47,0h-34.91V266.61l-34.11-1.9q.61-18.24,1.18-36.45c14.5.62,29,1.27,43.51,1.82,8,.3,16,.43,24.33.64Zm35.34-319.6h-35.21c1.13-13,2.12-24.57,3.08-36l32.13,3.73Zm.06-70.7c-11.95,0-22.84,0-33.72,0q.75-18.09,1.45-36.14l32.27,3.43Zm2.2,109.16h33.24V122.85h-33.24Zm.41,177.18h32.65l3.15,32.11-35.8,2.51Zm68.34,68.29h-35.2c1.07-13,2-24.46,2.94-35.9l32.26,3.43Zm.1-709.22h-33.58c-1-11.34-2.75-22.73,1.2-33.26h32.38Zm3.13-107.33,32.26,3.35v32.52h-35.2Zm-1.43,178.79h35.22v36.44h34v33.7h-69.85C1331.48-327.21,1330.5-349.73,1331.87-373.58ZM1365.19,371h-32.56V337.14h32.56Zm.25-284.28h-33.72V54.23h33.72Zm2.53,73.47h32.88v33.52H1368Zm.22,71.21h32.65l3.15,32.12-35.8,2.5Zm33.1,104.86c1.06-25.28,2-48.89,3-72.46l32.6,3.45c.54,11.43,1,21.79,1.62,34.29h33.42c1,12.44,1.9,22.73,2.7,33.05C1451.09,338.69,1427.52,335.9,1401.29,336.23Zm71,72.07c1-26.28,1.94-49.78,2.86-73.25l33.9,1.08q.7,34.59,1.35,69.24Zm70.8-72.62h-33.62c-.87-11.34-2.7-22.74,1.23-33.28h32.39Zm177.3-213.42h-33.22V89h33.22Zm142,212.93h-33.25V302h33.25Zm71,0H1898c1.08-24.77,2.1-48.07,3.11-71.37,10.71,1.15,21.44,2.27,32.26,3.39Zm1.6-141V229l-36.56,2.19c.87,11.72,1.63,22,2.36,32.21-6.2.74-12.39,2-18.59,2.06-36.32.21-72.63.06-109,.15-5,0-10.07.65-16.69,1.11.76,11.8,1.42,22.08,2,32.37-11.88,3.57-23.73,2.12-35.43.76-3.13-24.69-2.32-56.65,2.1-70.42h137.48c.61-12.4,1.14-23.19,1.74-35.33Zm-211.82-.77V158.65h34.39v34.72Zm174.73-68.15v32.52h-35.2l2.94-35.9Q1881.67,123.57,1897.86,125.22Zm-34.38-71.09c0,9.9-.23,18.64,0,27.38.41,13.32,1.16,26.63,1.74,40l-36.5,3.75c-.56,11.15-1.08,21.56-1.65,33H1758V124.69l34.86-2.24V89.05l33.79-1.85c1.23-13.24,2.3-24.66,3.37-36.06C1840.67,52.12,1851.42,53.07,1863.48,54.13Zm-140-144.94c22.5.88,45,1.74,69.74,2.67V16.51L1826.81,18c1,12,1.88,22.31,2.71,32.64-23.72,4.18-47.43,1.15-72.86,1.95V-52.67L1720.77-55C1721.76-67.93,1722.64-79.38,1723.52-90.81Zm-73,107.86c.12-11.45.42-22.91.64-34.75h69.42V16.19l-33.77,2c-.58,11.68-1.1,22.06-1.66,33.24h-34.65C1650.55,39.22,1650.47,28.14,1650.57,17.05ZM1685,195.25V299.89h-33.75c-.42-22.67-.85-45.34-1.29-68.86H1616.1c-.71,11.49-1.38,22.34-2,33.1H1544.7c-.52-11.83-1-22.23-1.45-33.18l-33.35-1.65V160.19h33.18c.73,11.81,1.39,22.65,2.05,33.33h33.74c.56-11.81,1.08-22.62,1.65-34.81h35v36.54ZM1617.15,125h32.39v33.28h-33.62C1615.05,146.91,1613.22,135.51,1617.15,125Zm-36.63-499v-33.27h68.9c1,11.53,1.83,21.82,2.67,32.12ZM1685-338.56h-33.57q.55-18.06,1.12-36.13c10.7,1,21.44,1.92,32.45,2.89ZM1686-623c0-12-.1-23.14,0-34.25.13-11.49.45-23,.68-34h34.79c0,8.9-.17,16.48,0,24.05.4,14.53,1,29.06,1.51,43.63C1711.18-620,1699.31-621.36,1686-623ZM1827-658H1793.4c-1-11.34-2.75-22.73,1.2-33.26H1827Zm35.57-175.39v68.84l-33.78,2.07c-.59,11.81-1.11,22.23-1.62,32.35-20.31,3.43-127.44,2.75-141.77-1.1.91-11.14,1.84-22.6,2.77-34.07,18.35,3,54.94,2.4,69.37-1.58V-798c24.24-2.65,47.2,1.06,71.32-2.62v-32.71ZM1723.13-942.19v-34.72h34.39v34.72ZM1758-977.34v-35.06h70.53c-.41,11.44-.82,22.88-1.25,35.06Zm33.34,72.84v69.15h-33.07V-904.5Zm142.06-179.81H1898c1.08-24.77,2.1-48.07,3.11-71.36,10.71,1.15,21.44,2.26,32.26,3.39Zm71-174.41v138.91h-34.23c0-46.27,0-91.11.09-135.94,0-2.15,1.14-4.28,1.8-6.39ZM1934.87-1330h35.06c0,10-.22,18.78.06,27.52.41,13.36,1.16,26.71,1.78,40.06l-36.91,2.56C1934.34-1285.2,1934.08-1307.78,1934.87-1330Zm-35.53-.16v106h34.2v33.86l-35.13,2.1c.86,11.58,1.61,21.89,2.34,32.22l-37.7,3.85v69.9l-32.9-2.42q0,17.55-.1,35.1c-23.85,4.56-47.67,1.19-72.52,2.22-1.42-36.68.52-71.26-1.26-107.4h-104.8c-.73-11.27-1.46-22.57-2.29-35.29h-32.56v-35.47h33.22c.57-12.41,1.06-23.17,1.62-35.21h35v69.91h35.66v-34.09h35.14v-71.16h34.27c.72-12.46,1.35-23.28,2-34.08Zm-176.24-71.77v-34.52h32.78c1,11.53,1.83,21.83,2.66,32.14Zm34.66,35c-.55,11.36-1.1,22.72-1.66,34.25h-33.55v-34.24Zm1.28-36.94q16.95.55,34,1.06v35.42h-34.79Q1758.63-1385.58,1759-1403.82Zm-72.33-70.6v-34.79H1793c-.4,11.47-.81,22.94-1.23,34.79Zm33.78,180.21v33h-33.55q.63-18.22,1.25-36.43Zm-32.62-3.72c-11.92.85-23.82,1.69-35.79,2.52V-1330h32.65C1685.86-1318.51,1686.87-1308.21,1687.87-1297.93Zm174.46-102.62v32.32h-35.21c1.12-13.06,2.12-24.57,3.09-36Zm-67.23-38h33.17q.9,17,1.78,34-18.33.67-36.65,1.3C1792.35-1414.47,1790.91-1425.8,1795.1-1438.5Zm-2.58-212.38c.12-11.46.43-22.92.66-34h69l3.15,32.1-36.5,3.66c-.57,11.14-1.1,21.53-1.67,32.73H1792.5C1792.5-1628.67,1792.41-1639.78,1792.52-1650.88Zm-34,72.45h32.65c1.13,11.52,2.14,21.81,3.14,32.1-11.92.85-23.82,1.68-35.79,2.52Zm-36.06-177.36H1756v104.24H1722.4C1721-1686.48,1720.87-1721.37,1722.48-1755.79Zm-35.53,139v-34.28h35c-.28,35.08-.55,70.16-.82,105.45h-71.61c1.14-24.84,2.21-48.2,3.25-71.52C1663.47-1613.73,1674.08-1614.81,1687-1616.81Zm-.64,177.68h-36.57c1.07-13,2-24.48,3-35.95l33.61,1.08C1686.31-1462.48,1686.31-1451,1686.31-1439.13Zm-33.67-281.19H1685V-1687H1651.4C1650.53-1698.38,1648.71-1709.78,1652.64-1720.32Zm-37,33.75H1651q.81,34.6,1.63,69.23c-12,4-24,1.91-37.48,1.37C1615.29-1640,1614.51-1662.54,1615.64-1686.57Zm1.51,179.15h32.09c1.13,11.52,2.14,21.79,3.15,32.05l-36.42,1.21C1615-1485.49,1613.25-1496.87,1617.15-1507.42Zm-36,33.7h34.4V-1439h-34.4Zm-.93,71.53c35.89,0,70.26-.45,104.64.28v34H1580.25Zm-.39,34.66q.78,34.74,1.5,69.54l-36.34,1.26c-.31-11.56-.82-23.12-.87-34.68s.37-22.91.62-36.12Zm-25.67-283.17c8,.3,16,.43,24.4.64v69.45H1545c-.68-11.2-1.37-22.4-2.07-33.85l-35-1.6c1-12.87,1.88-24.64,2.79-36.4C1525.22-1651.86,1539.7-1651.23,1554.19-1650.7Zm-151-36h70.51v-69.44h33.84c.75,11.75,1.45,22.61,2.25,35h32.83v34.27l-34.58,1.62c.86,11.78,1.61,22.07,2.3,32.41-14.51.73-29,1.61-43.55,2.12-9.23.32-18.49.06-29.42.06V-1581h-34.18Zm-.51,179.53h34.94c0,6.83.13,12.09,0,17.34-.17,5.1-.65,10.19-1,15.12H1402.7Zm-35.56,70.61h34.12c.68,12,1.29,22.77,2,35.08h33.46v33.57h-69.65C1366.58-1391.62,1366.25-1414.15,1367.14-1436.56Zm-34.51-212.94h33.17v33.19h-33.17Zm-35.86-70.71h33.3v32.7h-33.3Zm-35.28,425.45h32.92v104.45h-32.92Zm-.74,142.46h34.94c0,6.82.14,12.08,0,17.34-.16,5.09-.65,10.18-1,15.12h-33.92Zm1.55,70.73h32.39v33.26h-33.58C1260.14-1059.65,1258.36-1071,1262.3-1081.57Zm-36.55-638.63h33.39v104.13h-33.39Zm.8,670.69-35.79,2.51v-34.62h32.65C1224.54-1070.1,1225.55-1059.8,1226.55-1049.51Zm-23.39-388.26c6.83.28,13.65.46,20.4.68v33.39h-70.68c1.13-13.07,2.12-24.59,3.08-36.08Q1179.56-1438.76,1203.16-1437.77Zm-14.93-36.38h-33.58c-1-11.34-2.75-22.73,1.19-33.25h32.39Zm-35.31-71.47c1.08-13,2-24.46,2.95-35.9l32.26,3.43v32.47Zm2.46-175.31h32.83v33.52h-32.83Zm-35.59,105.74c6.77,0,12-.15,17.26,0s10.19.73,15.38,1.12c1.13,11.64,2.14,21.94,3.15,32.23l-35.79,2.5Zm0,141.47h34.5q.78,16.89,1.55,33.77l-36,2.68Zm-2.62,144v32.48H1082c1.08-13,2-24.46,2.94-35.91Zm-68.33-35.82h32.64l3.15,32.11-35.79,2.51Zm-35.53-142h33.11v33.19h-33.11ZM1012.67-514h68.71v33.4h-68.71Zm-35-709.76h33.18v69H977.62Zm-.3,603.59h33.82v32.82H977.32Zm-.48,568h33.78V15.7H976.84Zm-1.43,458.63H942.34V372.64h33.07Zm-34-1700.66h33.72v32.46H941.37Zm-34.78-320h34.24c0,7.52.13,12.78,0,18-.17,5.09-.66,10.16-1,15H906.59Zm-.15,994.1h33.81v32.66H906.44Z"/><path class="cls-16" d="M2432.47,88.08h-35.86c-.58-12-1.08-22.43-1.64-33.91-5-.53-9.52-1.39-14-1.42-24.16-.14-48.32,0-72.48-.15-5.78-.05-11.54-1.15-17.31-1.76l.32-.31c-.95,11.57-1.9,23.14-3,36.48l35.74,2.16v34.18h70.48v35h-32.83V193.8l33.18,1.59V229h35.1c.69-10.75,1.39-21.59,2.17-33.57l33.16-1.6V124.57H2432c0-13.82,0-25.39,0-37Z"/><path class="cls-17" d="M2182.83,419.37c0-3.51,0-7,0-10.54h-34.63c-.16,3.44-.32,7-.49,10.54Z"/><path class="cls-18" d="M2396.11,419.37h71.06V407.13H2397C2396.58,411.25,2396.31,415.32,2396.11,419.37Z"/><path class="cls-19" d="M2112.39,87.25,2147,89.18v68.71h35.63v-68L2220.48,86l-.31.32c-1-10.36-2-20.72-3.18-32.83L2183.63,52c-.54-11.43-1-21.79-1.56-33.42h-33.92c-.44,10.14-.91,20.9-1.45,33l-33.88,2.15v34Z"/><path class="cls-20" d="M2574.52,16.4,2607.45,18V51.74l-33.2,1.73V86.9h68.95V-17.55h-33.42c-.73-12.4-1.37-23.26-2.06-35.12h-33.2Z"/><path class="cls-21" d="M2575,263.72c-.77-10.4-1.53-20.8-2.42-33h70.27c.82-12.36,1.55-23.2,2.35-35.2l33.13-1.67v-34c-22.17-1.29-44.76-.57-69.15-.37V194.2h-70.56v70.91l-.43-.43,37.11-1.28Z"/><path class="cls-22" d="M2220.48,86c-1,23.39-2,46.78-3.13,72l35.72,2.08v33.18h70.56V159.75h-33.39c-.62-12.56-1.13-22.93-1.75-35.56h-33.8c-.6-12.56-1.09-22.94-1.63-34.39-11.29-1.18-22.12-2.31-32.92-3.48Z"/><path class="cls-23" d="M2359,231.12h-68.9v33.54L2255,266.3v32c11.63,3.38,78.54,4.37,104,1.26Z"/><path class="cls-24" d="M2610.94,298.85,2608,333.24c14,3.95,118.94,4.85,141.48,1.5V301.92c-5.64-.27-11.3-.78-17-.79-34.83-.08-69.67.05-104.5-.13-5.76,0-11.51-1.26-17.29-1.92Z"/><path class="cls-25" d="M2504.06,86.29c-.76-10.37-1.52-20.75-2.39-32.49l35.12-2.14V18.41h-69.18c-.5,10.49-1,21.27-1.61,33.71h-32.49c-3.56,13-2.69,24.44-1.05,36,0,0-.45-.48-.44-.47L2504.37,86Z"/><path class="cls-26" d="M2183.28,335.69h34V267h-69V300.3h33.13c.82,13,1.54,24.41,2.26,35.86Z"/><path class="cls-27" d="M2926.77,336.88h-33.34c-.53-11.88-1-22.25-1.51-34.2h-33.61v68.7c10.93.22,22.39.52,33.86.64,11.11.11,22.22,0,34.6,0Z"/><path class="cls-28" d="M2504.37,86c-1,23.42-2,46.83-3.1,71.73h35.34V89.77c-10.94-1.15-21.77-2.28-32.58-3.45Z"/><path class="cls-29" d="M2467.17,406.66h34V337.92h-33.77c-.23,11-.68,22.44-.65,33.92,0,11.76.53,23.53.83,35.29Z"/><rect class="cls-30" x="2645.35" y="372.98" width="33.13" height="46.38"/><path class="cls-31" d="M2574,419.37c-.27-7.31-.58-14.61-.78-21.92-.21-7.56,0-15.14,0-24h-34.78c-.22,11-.56,22.46-.68,33.94,0,4,0,8,0,12Z"/><rect class="cls-32" x="2894.04" y="408.72" width="33.15" height="10.65"/><path class="cls-33" d="M2858.23,122.85h33.18V89.66h-33.18Z"/><path class="cls-34" d="M2788.29,228c-.95,11.56-1.9,23.13-3,36.21h35.19V231.73L2788,228.27Z"/><path class="cls-35" d="M2788,228.27c-1-10.37-2-20.75-3.16-32.36h-32.63v34.56q18.08-1.25,36.09-2.5Z"/><path class="cls-36" d="M2785.54,157.74V125.12h-33.8v32.62Z"/><path class="cls-37" d="M2575.34,263.4c-.9,11.91-1.79,23.81-2.9,38.47,14.66-1.14,26.56-2.06,38.48-3l-.19.21c-1.11-10.31-2.25-20.59-3.5-32-10.66-1.09-21.46-2.2-32.22-3.34Z"/><path class="cls-38" d="M2538.66,265.11h-34.82v34.71h34.38c0-12.06,0-23.6,0-35.14Z"/><path class="cls-39" d="M2432.2-18.78h-34.82V15.93h34.38c0-12.06,0-23.6,0-35.14Z"/><path class="cls-40" d="M2112.82,87.68H2078v34.71h34.39V87.25Z"/><path class="cls-41" d="M2007,86.56c-.87-10.43-1.75-20.87-2.74-32.57h-32.75V88.47c11.92-.79,23.93-1.59,35.91-2.36Z"/><path class="cls-42" d="M2291.16,50.84c-1-10.38-2-20.75-3.16-32.36h-32.63V53q18.09-1.24,36.09-2.5Z"/><path class="cls-43" d="M2255,371.25h33.19V338.07H2255Z"/><path class="cls-44" d="M2006.3,419.37l0-12.75-34.87,1.67v11.08Z"/><rect class="cls-45" x="2254.84" y="408.93" width="33.8" height="10.44"/><path class="cls-46" d="M2005.85,122.77h34V89.56c-11.18-1-22.06-2-32.91-3l.45-.48q-.54,18.54-1.12,37.13Z"/><path class="cls-47" d="M1544.49,51.82V87.76h35.93c-.58-11.05-1.16-22.09-1.8-34.12Z"/><path class="cls-48" d="M1544.49-19.15q0,18,0,36h34V-17.13Z"/><path class="cls-49" d="M1615.47,371.2q0,18,0,36l36,0,.06-36Z"/></g></g><path d="M828.68,1119.08h-76v73.52h-72.5v-36.33h33.29V1082.5H604.75v36.07l34.59,1.74v37.28H567.58v35.87c9.54.43,19,1.15,28.49,1.15,5,0,6.33,1.94,6.61,6.56.56,9.29,1.71,18.56,2.66,28.39l33.47,3.88v71.3H603.55v-74.63c-11,1.06-22.33,2-33.57,3.5-1.42.2-3.3,3.84-3.38,6-.64,17.59-1,35.2-1.27,52.8-.16,9.81,0,19.61,0,30.67-16-.77-30.88-.9-45.65-2.28-59.14-5.53-115.68-20.74-168.86-47.41C234.2,1214.87,157.4,1122,115.48,999.4c-17.76-51.93-28.27-105.47-30.3-160.27-1.44-38.85-2.45-78,.51-116.66C93.87,615.7,122.32,514,168,417.13,206.45,335.46,255.59,261,319.49,197c46.56-46.68,98.9-85.23,161.84-107.43,26.75-9.44,54.29-15,83.8-15.24v34.37H605l-.16-.15V145.7H565.8V256.86l36.64,2.43v34.26h36.7c1.43-25.47,2.84-50.63,4.25-75.8l-.13.14,33.48,3.84V147.91h38v33.82l36.54,2.78v73h-34.6v75.29H679.57v37.71H605v36.84h73.23v74.1l75,1.58-.18-.18q.18,54.46.34,108.92a10.43,10.43,0,0,1-.93,2.72l-35.27,2v34.86l34.25,2.6v34.77H678V560.08H641.29V632.6H604.56v73.12H565.91v74.72H639.6V709.35H789.68c1,23.41,1.93,47,2.91,70.95l34.08,3.92v33.83H789.58c.85-12.14,1.68-24,2.62-37.41l-75.41,3.08c-.9-12.08-1.81-24.15-2.75-36.64H680V893.76l34.28,2V969c-36.72,1-73.12,2.81-109.55-.88,0-24.15,0-48.31,0-72.72h-37.8V968h38v37.57H566.39v74.88h36.79v-34.59l37.3-2.67v-34h36.83c.68,11.52,1.34,22.84,2,34.8h74v-35.09h36c.81,11.45,1.6,22.54,2.42,34.16h34.78c.72-11.31,1.42-22.4,2.16-34.09h35.68c.74,11.92,1.48,23.81,2.25,36.28h34.65v73.88h-36l.2.18v-35.19h-37v35.2ZM567.1,522.6v71h34v-71Zm-1.3,333.13h36.88V821.81H565.8ZM677.74,518.62V483.21H643.25v35.41ZM639.2,893c0-10.24.23-20-.21-29.81-.08-1.7-2.93-4.6-4.6-4.68-9.76-.45-19.55-.22-29.69-.22V893Z"/><path d="M865.49,556.57l-37.14,3v34.27H789.9V484.23l-36.84-1.4.18.18V408.78h36.21c.79,12.07,1.54,23.37,2.31,35.09H828l-.13-.14v38.94h76v37.24l.19-.18c-9.49.48-19,1.61-28.45,1.24-7.61-.31-9.81,3.34-10,9.68-.2,8.7-.19,17.4-.27,26.11Z"/><path d="M865.09,295.87v36.49c-10.32.57-19.57,1.49-28.82,1.43-6,0-7.74,2.2-7.8,7.93-.1,9-1,18.07-1.66,27.68H754.58V295.21c9.7,0,19-.28,28.3.1,5.36.22,7-1.93,7-6.93.18-9.81.8-19.61,1.28-30.3h37.44V219.26l-38,2.34V167.06c3.89,3.22,5.87,4.67,7.64,6.35,7.73,7.35,15.21,15,23.16,22.08,5.07,4.53,8.42,9.42,7.81,16.47-.45,5.22,1.58,7.28,7.27,7.71,4.2.31,9.46,2.51,12.05,5.67,17.9,21.81,35.21,44.09,53.92,67.74l-37.58,3c0-11.92,0-23.82,0-36.51L829,258v37.92Z"/><path d="M904.35,969.32H828.54c-.63-11.46-1.27-23.09-1.95-35.62l-34.53-2.29c-2.83-23.23-3.23-46.23.51-69.27.8-4.9,3.47-5.63,7.76-5.59,18.69.17,37.38.07,56.08.07H866V821.47h35.41v35.06H865.71V883c0,13.35.3,26.71-.13,40-.2,6.38,1.31,9,8.3,8.82,9-.27,18,.78,27.58,1.29.89,9.33,2,18,2.44,26.78.28,5.85,2.2,8.5,8.5,8.72,8.74.3,17.44,1.71,26.42,2.67v33.77H902C902.78,993.16,903.56,981.35,904.35,969.32Z"/><path d="M942,856.83V819.57h35.72V744.9h72.84c0,11-.1,21.61,0,32.19.06,4.43-2.26,5.37-6,5.32-9-.1-18,0-27.59,0v36.88h32.81c-1,13.25-1.94,25.27-2.88,37.57Z"/><path d="M865.32,1119.09c.31,22.11.85,44.23.79,66.34,0,6.17,1.65,8.67,8,8.44,5.74-.21,11.53.6,19.67,1.11l-28.1,24.72v-25.3H792.2v-38.06h34.22c.79-12.94,1.52-25.1,2.26-37.26l-.2.2h37Z"/><path d="M828,443.87v-34H938.64v34.45c-1.81.17-3.58.47-5.35.47q-49.63,0-99.26,0a37.84,37.84,0,0,1-6.16-1Z"/><path d="M938.9,706.12H866.25v-34.2H938.9Z"/><path d="M903.83,519.91h71.78v36.65H903.85l.16.2q0-18.51,0-37Z"/><path d="M679.69,1308v-74.63h34.85v18.05c0,14.37-.15,28.75.09,43.12.07,4.17-1.19,6.42-5.32,7.24C699.83,1303.68,690.38,1305.73,679.69,1308Z"/><path d="M939.7,369.48H903.46V300.12l2.34-.7c11,18.46,22.27,36.75,32.71,55.51C940.57,358.64,939.36,364.16,939.7,369.48Z"/><path d="M754.8,1233.45h34.43c0,11.24.12,22.29-.14,33.33,0,1.4-1.74,3.33-3.16,4-10,4.94-20,9.62-31.13,14.88Z"/><path d="M903.85,556.56c-.68,12.11-1.35,24.22-2.05,36.79H865.49V556.57l-.15.19H904Z"/><path d="M643.39,217.75,605.08,222V185.12h34q2.07,16.38,4.16,32.79Z"/><path d="M979.61,1006.72V971.51h34.59c0,10.37.25,20.18-.22,30-.09,1.82-3,4.92-4.76,5C999.7,1007,990.14,1006.72,979.61,1006.72Z"/><path d="M716.83,821.8h34.63v34.1H716.83Z"/><path d="M792.23,633.65h34.25v34.87H792.23Z"/><path d="M605,108.66c-.92-10.59-1.83-21.18-2.91-33.65l38.6,7.13v26.34c-12.18,0-24,0-35.86,0Z"/><path d="M1043.55,672c1.22,10.81,2.46,21.85,3.84,34.1L1017,708.18V672Z"/><path d="M979.92,1046.11H998.3l-17.15,34.79-1.23-.23Z"/><path d="M677.91,94.79l23.89,11-.27,1.27H677.91Z"/><path d="M849.72,1231.93,830,1245.3v-13.37Z"/></g><g id="Layer_16" data-name="Layer 16"><path class="cls-50" d="M2383,1085.12h-48.62v-48.67H2310c-.46-8.54-.87-16.22-1.33-24.79h-23.46c-.44-8.54-.83-16.22-1.25-24.39h-23.32v97.33h-49.6V913h48.36v23.81h24.87v24.42h24.86v24.59h24.49v-72.7H2383Z"/><path class="cls-50" d="M2606.79,912.66h48.3v24.12H2680V961.2h24.86v24.61h24.49V913.14h49.4v171.57h-48.56v-48.22h-24.4c-.47-8.54-.89-16.21-1.35-24.79H2681c-.44-8.54-.84-16.21-1.26-24.41H2656v97.29h-49.25Z"/><path class="cls-50" d="M2581,961.31v123.17h-49v-47.9h-73.5v48.05h-49.6V962h23.82V937.2h24.87v-24h74.33v23.72h24.51v24.43Zm-122.44.79v48.14h72.58V961.81h-24.35V938.22H2482.4V962.1Z"/><path class="cls-50" d="M3052,937.18v49.11h97.69v25h-97.6v48.73H3174.4v24.68h-172V912.92h171.83v24.26Z"/><path class="cls-50" d="M1815.29,1084.69V913.24h171.93V937h-122v48.81h97.25v25.08h-97.64v73.79Z"/><path class="cls-50" d="M2137.36,1060.56h47.88v24.26H2038.15v-24.1h48v-123h-48.3V912.92H2185v23.9h-47.62Z"/><path class="cls-50" d="M2854.21,1035.94H2878v23.68h49.6v-23.43h48.84v24H2953v24.5h-99.49v-23.46h-24.13c-.47-8.53-.89-16.2-1.36-24.77h-23.29V962.05h23.58V937.62h24.86V913h98.67v23.78h24.7v24.7h-48.29c-.41-7.47-.84-15.14-1.3-23.42h-48.09c-.34,7.58-.67,15-1.07,23.69h-23.61Z"/><path d="M2370.07,1072.16h-48.62v-48.67h-24.38c-.45-8.54-.87-16.21-1.33-24.79h-23.46c-.43-8.54-.83-16.22-1.25-24.38h-23.31v97.32h-49.61V900.05h48.37v23.81h24.86v24.42h24.86v24.59h24.49v-72.7h49.38Z"/><path d="M2593.83,899.7h48.3v24.12H2667v24.42h24.86v24.61h24.49V900.19h49.4v171.56h-48.56v-48.22h-24.4c-.47-8.53-.89-16.21-1.35-24.79H2668c-.44-8.53-.84-16.21-1.26-24.4h-23.65v97.28h-49.25Z"/><path d="M2568,948.35v123.17h-49v-47.9h-73.51v48.06h-49.59V949h23.82V924.24h24.86v-24h74.33v23.72h24.51v24.43Zm-122.44.79v48.14h72.58V948.85h-24.35V925.26h-24.37v23.88Z"/><path d="M3039.08,924.22v49.11h97.69v25h-97.6v48.73h122.27v24.68h-172V900h171.83v24.26Z"/><path d="M1802.33,1071.73V900.28h171.94v23.77h-122v48.82h97.25V998h-97.64v73.78Z"/><path d="M2124.4,1047.6h47.88v24.26H2025.19v-24.1h48v-123h-48.3V900H2172v23.91H2124.4Z"/><path d="M2841.25,1023H2865v23.68h49.59v-23.43h48.84v24h-23.39v24.5h-99.49v-23.46h-24.13c-.47-8.53-.89-16.2-1.36-24.77H2791.8V949.09h23.58V924.67h24.87V900.05h98.66v23.78h24.7v24.7h-48.29c-.41-7.47-.84-15.13-1.3-23.42h-48.09c-.34,7.58-.67,15-1.07,23.69h-23.61Z"/><path class="cls-50" d="M2129.68,817.33H2043V644h-42.64v85.47h-44.89v-85H1912.2V817.14h-87V512.67h86.24v42h43.46v43H1999V555.69h44.11V512.22h86.6Z"/><path class="cls-50" d="M1778.7,817.3h-86.12V732.06h-131v85h-87.19V599.61h42.12v-44h43.47V512.49h131.84v41.92h44.12v44h42.8Zm-216.88-218V685h129V599.15h-43.1V557h-43.23v42.26Z"/><path class="cls-50" d="M2394.06,731.53h-130.4v85.36h-87.91V599.82h42.42v-44h43.47V512.6h131.84v41.6h44.12v44h42.91V816.62h-86.45ZM2306.91,600h-43.29v85.19h128.72V598.4H2351c-.66-14.81-1.25-27.93-1.86-41.66h-42.26Z"/><path class="cls-50" d="M3182.66,774.19H3141v42.72H2920.8V774.75h-43.15V555.52H2920V512.46h219.4v41.83h43.28ZM3094.32,773V557.15H2965.53V773Z"/><path class="cls-50" d="M2832,643.74V817.08H2614.59c-.74-13.3-1.5-26.91-2.34-42.11H2570.7c-.79-15.15-1.5-28.78-2.29-44h-41.47V599.06h42.3V555.73h44.1V512.24h218.21v42.47h-173v43.95h-43.36V729.57h41.52v43.09h87.34v-85.2h-41.58V643.74Z"/><path class="cls-50" d="M1166.53,556V512.43h261.58v43.16h-85.83v261H1253.6V556Z"/><path d="M2106.69,794.34H2020V621h-42.64v85.47h-44.89v-85h-43.26V794.16h-87V489.69h86.23v42h43.46v43H1976V532.7h44.1V489.23h86.6Z"/><path d="M1755.71,794.32H1669.6V709.07h-131V794h-87.19V576.62h42.12v-44H1537V489.51H1668.8v41.92h44.12v44h42.79Zm-216.88-218V662h129V576.16h-43.1V534h-43.23v42.26Z"/><path d="M2371.07,708.54H2240.68V793.9h-87.91V576.84h42.41v-44h43.47V489.61H2370.5v41.6h44.12v44h42.9V793.63h-86.45Zm-87.15-131.49h-43.29v85.2h128.72V575.42H2328c-.66-14.81-1.24-27.94-1.86-41.67h-42.26Z"/><path d="M3159.67,751.21H3118v42.72H2897.81V751.76h-43.15V532.53H2897V489.47H3116.4V531.3h43.27ZM3071.33,750V534.16H2942.54V750Z"/><path d="M2809,620.76V794.09H2591.6c-.74-13.3-1.49-26.9-2.34-42.11h-41.55c-.79-15.15-1.5-28.78-2.29-44H2504V576.07h42.3V532.74h44.11V489.25h218.2v42.48H2635.61v43.94h-43.37V706.58h41.53v43.09h87.33V664.48h-41.58V620.76Z"/><path d="M1143.54,533V489.45h261.58V532.6H1319.3v261h-88.68V533Z"/><path d="M2106.69,794.34H2020V621h-42.64v85.47h-44.89v-85h-43.26V794.16h-87V489.69h86.23v42h43.46v43H1976V532.7h44.1V489.23h86.6Z"/><path d="M1755.71,794.32H1669.6V709.07h-131V794h-87.19V576.62h42.12v-44H1537V489.51H1668.8v41.92h44.12v44h42.79Zm-216.88-218V662h129V576.16h-43.1V534h-43.23v42.26Z"/><path d="M2371.07,708.54H2240.68V793.9h-87.91V576.84h42.41v-44h43.47V489.61H2370.5v41.6h44.12v44h42.9V793.63h-86.45Zm-87.15-131.49h-43.29v85.2h128.72V575.42H2328c-.66-14.81-1.24-27.94-1.86-41.67h-42.26Z"/><path d="M3159.67,751.21H3118v42.72H2897.81V751.76h-43.15V532.53H2897V489.47H3116.4V531.3h43.27ZM3071.33,750V534.16H2942.54V750Z"/><path d="M2809,620.76V794.09H2591.6c-.74-13.3-1.49-26.9-2.34-42.11h-41.55c-.79-15.15-1.5-28.78-2.29-44H2504V576.07h42.3V532.74h44.11V489.25h218.2v42.48H2635.61v43.94h-43.37V706.58h41.53v43.09h87.33V664.48h-41.58V620.76Z"/><path d="M1143.54,533V489.45h261.58V532.6H1319.3v261h-88.68V533Z"/></g></svg>