<svg xmlns="http://www.w3.org/2000/svg" xmlns:xlink="http://www.w3.org/1999/xlink" viewBox="0 0 1400 1400"><defs><style>.cls-1{fill:none;}.cls-2{clip-path:url(#clip-path);}.cls-3{clip-path:url(#clip-path-2);}.cls-4{fill:url(#linear-gradient);}.cls-5{fill:url(#linear-gradient-2);}.cls-6{fill:url(#linear-gradient-3);}.cls-7{fill:url(#linear-gradient-4);}.cls-8{fill:url(#linear-gradient-5);}.cls-9{fill:url(#linear-gradient-6);}.cls-10{fill:url(#linear-gradient-7);}.cls-11{fill:url(#linear-gradient-8);}.cls-12{fill:url(#linear-gradient-9);}.cls-13{fill:url(#linear-gradient-10);}.cls-14{fill:#4f4f4f;}.cls-15{fill:#fff;}</style><clipPath id="clip-path"><rect class="cls-1" x="660.27" y="-1526.21" width="592.55" height="992.27"/></clipPath><clipPath id="clip-path-2"><path class="cls-1" d="M660.5-556.82c161.23,2.05,355.85-108.81,367.28-387.34s-177-556.78-355.25-559.05S298.83-1232.1,303.18-953.37,499.27-558.87,660.5-556.82Z"/></clipPath><linearGradient id="linear-gradient" x1="-1497.81" y1="-835.3" x2="832.45" y2="-835.3" gradientUnits="userSpaceOnUse"><stop offset="0" stop-color="#ff477e"/><stop offset="1" stop-color="#f8a050"/></linearGradient><linearGradient id="linear-gradient-2" x1="774.47" y1="33.35" x2="802.58" y2="33.35" xlink:href="#linear-gradient"/><linearGradient id="linear-gradient-3" x1="973.29" y1="32.67" x2="1030.17" y2="32.67" xlink:href="#linear-gradient"/><linearGradient id="linear-gradient-4" x1="1029.88" y1="0.07" x2="1057.43" y2="0.07" xlink:href="#linear-gradient"/><linearGradient id="linear-gradient-5" x1="1172.8" y1="19" x2="1199.32" y2="19" xlink:href="#linear-gradient"/><linearGradient id="linear-gradient-6" x1="1086.63" y1="19.17" x2="1115.7" y2="19.17" xlink:href="#linear-gradient"/><linearGradient id="linear-gradient-7" x1="1371.87" y1="33.3" x2="1398.41" y2="33.3" xlink:href="#linear-gradient"/><linearGradient id="linear-gradient-8" x1="633.37" y1="32.46" x2="661.28" y2="32.46" xlink:href="#linear-gradient"/><linearGradient id="linear-gradient-9" x1="860.21" y1="33.39" x2="887.27" y2="33.39" xlink:href="#linear-gradient"/><linearGradient id="linear-gradient-10" x1="348.38" y1="13.38" x2="377.23" y2="13.38" xlink:href="#linear-gradient"/></defs><g id="Fix_0001" data-name="Fix 0001"><g class="cls-2"><g class="cls-3"><path class="cls-4" d="M-105.54,37.57V29.25h26.66v8.32H263.68q.45-5.51.89-10.89l25.83,2.68v8.21h58.5V27.26h-28V-.68h27.93c-.23-9.38-.62-18.75-.66-28.13,0-9.16.3-18.33.5-28.91h28.08q.09,28.56.17,57.1h27.18c.61-9.71,1.15-18.35,1.8-28.66H460.6c1-10.86,1.86-20,2.71-29.07,8.56.79,17.16,1.55,26.81,2.4,0,7.93-.17,14.93,0,21.91.34,10.66.94,21.31,1.4,32-11.63.58-23.26,1.3-34.89,1.7-7.41.26-14.83,0-22.66,0-.52,10.19-.93,18.53-1.39,27.69H376.86V37.57h85.81V27.36H489c1.05-10.92,1.93-20,2.81-29.12,8.55.92,17.14,1.81,26.71,2.81,0,6.9-.14,13,0,19,.16,5.83.39,11.67.61,17.5h57.21V27.84h26.69c.53-10,1-18.67,1.52-28.48H660.9q0,14.21,0,28.43c14.12.1,28.25.43,42.37.23,13.89-.19,27.89,1.16,43-1.09V-.88h56.62V-29h-84.4V-57.59h26V-86.15H717v-56.18c-6.41,0-11.47,0-16.54,0q-48-.34-96-.72v-28.08h56.4v-28.34H603.15v-55.88l-27-1.26v-27.33c37.74-1.21,74.84.41,113.23-1V-341.2h28v-15.16c0-21.76-.1-43.53,0-65.3.13-20.79.51-41.59.79-62.38l-29.71,1.76v56.37H603.29c.7,9.65,1.3,17.92,1.88,26.2l-30,3.09v54.51h-29v-28.07h-28V-397H432.94c.58,9.3,1.11,17.56,1.6,25.84-9.53,2.83-19.05,1.76-29.9.34v-54.49H376.06v54.54h-27v-84.17h26.32V-511l-27-1.34c-.38-19.07-.63-37.15.11-56.44h28.33v28.2l28.7,1.26v55.77H434c-.24-9.44-.65-18.87-.67-28.31,0-9.19.36-18.39.55-27.07h27.18c.48,9.4.89,17.73,1.31,26.1h26.73v-54.94l-26.6-1.31v-57c-9.39.28-18.77.74-28.17.79-9.64,0-19.29-.31-28.45-.48V-653.1l26.75-1.22c.56-10.78,1-19.66,1.49-28.54H406.43c-2.74-18.09-2.11-73.39,1.18-84.73H434l.91-29.32q13.72.48,27.49.91c-.72-9.18-2.12-18.4,1.4-28.46h26.71l0,28.48h27.13c.66,10.49,1.21,19.14,1.73,27.42h28.22v-27.28h26.93c.59-10.55,1.11-19.81,1.64-29.07H546.91c.49-18.9-.94-37,1-56.35H576v-28.36h56.82c-.78-9.15-2-18.33.83-27.22h55.57v27.16l27.22,1.19v26.89h-27.2q.11,28.29.22,56.59c28,1.67,55.91,1.29,83.62.15v-55.36l-26.29-1.31v-112.1H773.4c.57,9.47,1.08,18.15,1.68,28.31l57.37-2.53q-.74-18.87-1.46-37.73c-.21-5.47-.38-10.93-.57-16.45H716.89v55h-57v-26.94l-28-1.29v-55.27L604.49-1052c-.44-18.16-.88-36.33-1.37-56.09-6.08,0-11.14,0-16.2,0l-67.63-.72q.53-14.65,1-29.29c4.54.54,9.09,1.5,13.64,1.52,28.25.15,56.51,0,84.76.12,4.08,0,8.15.57,12.72.91.56,9.64,1.06,18.29,1.57,27.12h27.88v84.32H689.5v-55.74h28.19v-55.71H745c2,28.42-.57,56.12,1.52,83.29h55.24v-26.58L775-1080.57v-27l27.89-1.4v-84.74l-56.4-.39c-.44-18.17-.88-36.36-1.37-56.34H689.86v-27.52c18.87-1.77,37.2.73,56.52-1.73v-27.54h28.19v-57.06h27.21v-55.47l-28-1.83v-26.26H745.28v56.1l-26.19-1.92c-.57,10.66-1.32,21.32-1.67,32-.27,8.34,0,16.69,0,25.15h-29v-26.56l-28.41-1.61v-56.39H604.71v-28c14.51,0,28.1.15,41.68,0,13.92-.2,27.92.89,42.91-.84v-27.84H632.69c-.44-10-.82-18.69-1.19-27.06H546.63v54.84H519.05c-.32-18.1-.65-36.2-1-55.07l-27.16-1.51q.48-14.57,1-29.13c8.58,2.41,17.1,1.78,26.89.23v-27.53h57.31c-.54-9.08-1.07-18.17-1.62-27.48l-28-1.3c.8-10.29,1.54-19.73,2.25-29.14,8.65,2.3,17.22,2,27.12-.12v-25.56h28.6v54.68h27.15c.5-9.42,1-18.1,1.46-27.94h28.29c-.48-8.82-1-17.64-1.49-27.2l-26.8-1.68v-26.86L659.7-1677v-31.13h-28v2.8H547.3c-.32,9.29-.64,18.58-.95,28h-57c.46-10.53.9-20.73,1.34-30.77H404.3c-.06,1.26-.12,2.49-.18,3.79H349c-.65,10-1.23,18.69-1.79,27.24H319v-27l-26.92-1.2v-2.86H206.47v30.9H177.7c.1-10.49-.06-20.68-.06-30.9H34.86v2.55H8v-2.55H-1497.81V37.57ZM688.15-27.62V-1H661.28l.9-28.93C670.74-29.16,679.34-28.4,688.15-27.62Zm-54.74-.83V-57.13c5.46,0,9.67-.12,13.87,0s8.16.58,12.36.9c.78,9.34,1.47,17.58,2.14,25.84ZM632.79-113h27.07v26.57H632.79Zm-29-277.12c0-3.12,1-6.22,1.57-9.33,11.61.5,23.25,1,34.88,1.43,6.42.23,12.85.31,19.43.46v27.13l-28,1.85v54.62H603.75C603.75-340.12,603.69-365.12,603.83-390.11ZM603-938.59H576v-26.56H603ZM547.7-1051.71h56.44c-.33,9.16-.66,18.31-1,27.8H547.7Zm170.95-142h27.53v27.8H718.65Zm-57.53,29.87h27v55H661.25c-.24-9.29-.63-18.59-.65-27.88S660.94-1155.1,661.12-1163.87Zm-796.9,992.45h-26.47V-197.9h26.47Zm28.62-227.37h-26.55v-26.73h26.55ZM-78.45-86.62h-27.07v-26.14h27.07ZM64.43-1136.94c-.33,9.18-.65,18.37-1,27.68H35c.86-10.4,1.63-19.6,2.36-28.75Zm-27.9-370v-26.61H63.12v26.61Zm200.35,2.07h52.85c2.74,17.47,2.1,73.64-1.06,84.29H263.6c-.51,10.1-.94,18.42-1.4,27.42H235.71C233-1415.31,233.92-1495,236.88-1504.85Zm-1.64-30.36V-1563h56.44c-.33,9.15-.66,18.31-1,27.8Zm197,541.28v28.16H377.61v28.68h26.23c.92,9.53,1.71,17.79,2.46,26.09-4.52.59-9,1.59-13.55,1.63-18.9.2-37.8.09-56.7.09H320.89v-29h26.39v-27.29L292-966.82c-.25-9.29-.66-18.58-.69-27.87s.31-18.33.52-28.56h56.58v28.73c15,0,28.66-.12,42.29,0C404.69-994.32,418.73-995.22,432.28-993.93Zm-26.51-143.69v-26.17h26.65v26.17ZM263.93-284.41c-9.64,0-19.28-.33-30.3-.55.92-20.48,1.75-39.1,2.55-57.68l27.34,2.86v26.64H292c-1.12-28.07-1.24-56.12.06-83.78h27.81v55.14l27.45,1.28v112.24H320.05v28.1H263.14c-.31-19-.57-37.05.13-56.17H292q.06-14.43.11-28.87C282.7-284.92,273.32-284.45,263.93-284.41Zm-87.18-56v26.62h-55v-26.62ZM122-370.39v-26.72H148.5v26.72Zm-.31-57v-27.74H234.8c-.31,9.15-.61,18.31-.93,27.74Zm-.79-367.26c0,8-.18,15,0,22,.33,10.69.93,21.37,1.38,32.12-9.54,3.09-19.08,1.68-29.51.74-.41-19-.61-37,0-54.86Zm-27.13-200v-27.29h54.62c.78,9.24,1.47,17.49,2.11,25.78C131.49-992.78,112.54-995.19,93.72-994.6Zm27.16,141.11c.24-19-.62-37.08.56-56.19h28.22v56.19ZM150-681h26.85v83.43H150C148.83-625.49,148.72-653.42,150-681Zm.41-87.16v-27.08h26.06v27.08Zm84.09,23.88c.34,10.7.94,21.38,1.38,32.13-9.54,3.08-19.08,1.68-29.5.74-.42-19-.62-37,0-54.86h28.06C234.47-758.24,234.29-751.24,234.51-744.25Zm58.85-80.43H319.9v28.28H292C291.16-805.43,290-814.5,293.36-824.68Zm-1.67,28.62v27.8H264.16v-27.8ZM319-851.91l-55.32-1.29q.48-14.58.94-29.13c4.55.49,9.1,1.33,13.66,1.37,19.36.16,38.73,0,58.1.12a107.2,107.2,0,0,1,10.9,1.17V-825h-27C319.8-833.69,319.4-842.37,319-851.91ZM290.4-737.71v26.31h-27v-26.32Zm.26,227.22c.46,9.4.87,17.7,1.36,27.74h26.77v27.25H235.15c-.7-9.08-2.14-18.22,1.62-28.38H263.1v-26.61ZM207.35-654.64v-27.79h27.53v27.79Zm26.3,58.89v26.58H207.39v-26.58Zm1.58-87q.48-14.57,1-29.12l26.91.83v28.29Zm28-142.3H235.75v-27.8h27.53Zm-55.75,453.8-28.65,2V-397H205C205.92-387.75,206.73-379.51,207.53-371.27Zm-29,87.6h26.6v26.6h-26.6Zm.33,57.13H205c.9,9.22,1.71,17.47,2.51,25.71l-28.65,2Zm28.88,25.93,25.83,2.74v26H205.4C206.27-182.27,207-191.46,207.76-200.61Zm-2.34-140c.91-11.61,1.64-21.07,2.34-30.47l25.67,2.69c.9,9.08,1.7,17.29,2.51,25.49ZM320.09-569.42H292.56v-27.8H320.1C320.09-588.08,320.09-578.95,320.09-569.42ZM320-654.64c-.33-19-.58-37.05.12-56.15h28.35v29.18h27.21v27Zm28.81-56.52c-.69-9.08-2.15-18.2,1-26.64h25.92v26.64Zm-56.59-341.27V-1079h26.59v26.61ZM319-1109.29c.9-10.45,1.7-19.67,2.47-28.86l25.72,3v25.88Zm85.06,85.67H348.79c-.24-9.29-.63-18.58-.65-27.87s.33-18.38.51-27.19h27.21c.45,9.32.84,17.63,1.28,26.81l26.91,1.18ZM375.9-1194.34H320.46v-27.8h56.43C376.56-1213,376.24-1203.84,375.9-1194.34Zm-28.69-113.74H319c.85-10.37,1.6-19.55,2.35-28.72l25.83,2.69ZM321.34-1138.3l-29.34,1,.9-28.88,25.61,2.26C319.53-1154.71,320.43-1146.5,321.34-1138.3Zm-58.47-27.77c0-9.63-.07-18.53,0-27.42.1-9.2.36-18.4.55-27.2h27.84c0,7.11-.14,13.19,0,19.25.33,11.63.82,23.26,1.19,34.94C283-1163.66,273.49-1164.79,262.87-1166.07ZM291.69-1308H264.16v-27.79h27.53Zm-.08,171.1-.91,27.75H206.85v-27.75Zm-29.5,58v26.74H235.56v-26.74Zm-28.78-143.35H206c.5-19.32-.92-37.38.85-55.43h26.45Zm-26.9,254.64v-26.36L235-995.28v-26.83h28.17v55.62h28.51v28.08H263.2q.57,27.92,1.15,55.84l-29.05,2.09v-58l-28.45,1.59c-.56,9.3-1.08,17.92-1.62,26.9H150v-26.9l26.48-1.61c1.06-10.63,2-19.85,2.86-29C188-965.21,196.55-965.57,206.43-967.57ZM178.62-1052v-26.48h26.47V-1052Zm26.6-256H178.46v-26.61h26.76ZM179.13-967.79l-30.44,2.31c.82-11.48,1.49-20.87,2.16-30.23l25.76,2.27C177.51-984.24,178.32-976,179.13-967.79Zm-2.67-169.62H148.63v-27.49H122.08v-28.46h54.38Zm-28.09-341.12H120.19c.86-10.38,1.62-19.58,2.35-28.74l25.83,2.74Zm-54.7-27v-28.73c5.42,0,9.62-.12,13.81,0s8.16.58,12.31.9c.91,9.31,1.72,17.56,2.53,25.79ZM119.93-1391v26.11H93.34V-1391Zm-.12,312.33v27.22c-19.12.06-37.2.58-55.3-.31v-26.91ZM-19.1-341.78H7.44v28.28h-27.9C-21.3-322.53-22.45-331.6-19.1-341.78Zm-1.68,28.62v27.8H-48.31v-27.8ZM6.47-595.95v26.72H-20.07v-26.72ZM-20-626.14v-27H6.5v27Zm29.44,256H35.86q.72,13.62,1.42,27.24l-29.54.82C7.37-351.1,5.74-360.18,9.47-370.18Zm-1-27.49v-27.71H34.58c.9,9.22,1.71,17.47,2.52,25.71ZM8.36-484V-512H63.44c.47-9.95.89-18.6,1.29-27.11h27V-484ZM65.5-655.32l-28.65,2V-681H63C63.89-671.81,64.7-663.56,65.5-655.32ZM63.38-825.2c.86-10.38,1.62-19.58,2.35-28.74l25.83,2.74v26Zm-.23,57h-27v-26.32h27Zm.23,141.84c.86-10.4,1.62-19.59,2.35-28.74L92.84-654c-.33,9.18-.66,18.36-1,27.67ZM65.5-854.16l-28.65,2v-27.71H63C63.89-870.65,64.7-862.4,65.5-854.16ZM35.84-767.87V-740H6.57c.86-10.39,1.62-19.6,2.35-28.78Zm-55.8.93v-27.71H6.18c.9,9.22,1.71,17.47,2.51,25.7ZM6.16-1023.69H-20.47v-26.79H6.16ZM6.09-880v26.7h-55V-880ZM-22-1080.45H-48.86c-.78-9.08-2.21-18.2,1-26.63H-22Zm-54.73,28.13v-27.79h27.53v27.79Zm26.54,58.86v26.38H-76.71v-26.38Zm28.1-257.83H-50.25c.86-10.38,1.63-19.58,2.36-28.74l25.82,2.75Zm-54.7-27V-1306h26.13c.91,9.23,1.71,17.47,2.52,25.71Zm26.48,85.85v26.57H-77.35v-26.57ZM-76.77-226.54h26.13c.91,9.22,1.72,17.47,2.52,25.71l-28.65,2Zm28.88,25.92,37.76,1.46c5.47.21,10.94.36,16.46.54v26.76H-50.25C-49.38-182.26-48.62-191.46-47.89-200.62Zm-.47,59.3h26.13c.9,9.22,1.71,17.47,2.52,25.7l-28.65,2Zm27.58,83.2H-48.31V-85.91h27.53Zm55.61,0H6.89V-84.71l-27.31-1.52q.5-14.61,1-29.18c11.61.49,23.21,1,34.83,1.46,6.4.24,12.81.34,19.47.51ZM63.12-313.93H34.93c.91-10.45,1.7-19.67,2.47-28.86l25.72,3Zm.05-56.6h-27q.59-14.48,1.16-28.93l25.83,2.75Zm1.76,87.38h26.6v83.36H64.93Zm.33,141.83H91.39c.91,9.22,1.71,17.47,2.52,25.7l-28.65,2ZM120-86.65H91.78c.86-10.4,1.63-19.59,2.36-28.74L120-112.65ZM120-654.37H93.16c-.77-9.07-2.2-18.19,1-26.62H120Zm2.5-85.91,25.83,2.69v26H120.19C121-721.93,121.79-731.11,122.54-740.28ZM121.4-597.17h28.19V-568H176.8v27H120.89C121.09-560,120.3-578.07,121.4-597.17Zm26.67,596H122V-28.25h26.06Zm.21-227.56h-27v-26h27Zm2,58.81h26.33v26.83H150.29Zm.19,57h26.13c.9,9.23,1.71,17.47,2.52,25.71l-28.65,2ZM177-29c.84-20.24,1.64-39.14,2.4-58l26.09,2.77c.43,9.15.82,17.44,1.3,27.45H233.5c.84,10,1.53,18.19,2.17,26.45C216.83-27,198-29.25,177-29ZM233.79,28.7c.82-21,1.56-39.84,2.29-58.63l27.14.87q.57,27.67,1.08,55.42Zm56.68-58.12H263.55c-.69-9.08-2.15-18.21,1-26.64h25.93ZM432.39-200.26H405.8v-26.6h26.59ZM546-29.82H519.41v-26.6H546Zm56.84,0h-28.3c.86-19.82,1.67-38.48,2.49-57.12q12.84,1.38,25.81,2.71Zm1.29-112.87v27.93L574.89-113c.69,9.38,1.3,17.57,1.88,25.78-5,.6-9.92,1.62-14.88,1.65-29.07.16-58.14,0-87.21.12-4,0-8.06.52-13.36.89.61,9.45,1.13,17.67,1.64,25.91-9.52,2.85-19,1.7-28.37.61-2.5-19.76-1.86-45.35,1.68-56.37H546.32c.49-9.93.91-18.56,1.39-28.28Zm-169.56-.61v-27.8h27.53v27.8Zm139.87-54.56v26H546.28c.85-10.36,1.6-19.55,2.35-28.74Q561.5-199.22,574.46-197.89Zm-27.53-56.9c0,7.92-.17,14.92.05,21.91.33,10.66.93,21.31,1.4,32l-29.22,3c-.45,8.93-.87,17.26-1.32,26.41H462.47v-26.85l27.91-1.79v-26.73l27-1.48c1-10.6,1.85-19.74,2.7-28.87C528.68-256.4,537.28-255.64,546.93-254.79Zm-112-116c18,.71,36.06,1.4,55.83,2.14v83.78l26.85,1.21c.81,9.6,1.51,17.86,2.18,26.12-19,3.35-38,.93-58.32,1.57v-84.29l-28.74-1.84C433.5-352.5,434.2-361.67,434.9-370.82Zm-58.39,86.35c.09-9.18.33-18.35.51-27.83h55.57v27.14l-27,1.64c-.47,9.35-.88,17.66-1.33,26.6H376.49C376.49-266.73,376.43-275.6,376.51-284.47ZM404-141.83v83.76H377c-.34-18.15-.68-36.29-1-55.13H348.92c-.57,9.2-1.11,17.89-1.64,26.51H291.76c-.41-9.48-.77-17.8-1.16-26.56l-26.69-1.33V-169.9h26.56c.58,9.45,1.11,18.13,1.64,26.68h27c.45-9.45.86-18.11,1.32-27.86h28v29.25Zm-54.28-56.26h25.92v26.64H348.77C348.08-180.53,346.62-189.65,349.76-198.09ZM320.44-597.56v-26.63h55.15c.77,9.22,1.47,17.46,2.14,25.7Zm83.65,28.43H377.22l.9-28.92c8.57.78,17.16,1.54,26,2.31Zm.81-227.67c0-9.63-.07-18.52,0-27.41.1-9.2.36-18.4.55-27.2h27.84c0,7.13-.14,13.19,0,19.25.32,11.64.82,23.27,1.22,34.93C425-794.38,415.52-795.51,404.9-796.8Zm112.82-28H490.84c-.77-9.08-2.2-18.2,1-26.62h25.92Zm28.47-140.4v55.11l-27,1.66c-.48,9.45-.89,17.79-1.3,25.89-16.26,2.75-102,2.21-113.48-.88.72-8.92,1.47-18.09,2.21-27.27,14.69,2.38,44,1.92,55.53-1.26v-25c19.41-2.13,37.78.85,57.09-2.1V-965.2Zm-111.6-87.12v-27.79h27.53v27.79Zm27.88-28.13v-28.07h56.45c-.33,9.16-.65,18.31-1,28.07Zm26.68,58.3v55.35H462.68v-55.35Zm113.71-143.93h-28.3c.86-19.83,1.67-38.48,2.49-57.12q12.84,1.38,25.81,2.71Zm56.81-139.61v111.19h-27.4c0-37,0-72.93.07-108.82,0-1.71.91-3.42,1.44-5.11Zm-55.59-57.06h28.07c0,8-.18,15,0,22,.34,10.69.94,21.38,1.43,32.07l-29.54,2.05C603.66-1326.89,603.45-1345,604.08-1362.75Zm-28.44-.13v84.82H603v27.1l-28.12,1.68c.68,9.28,1.29,17.53,1.87,25.79l-30.17,3.09v56l-26.34-2q0,14.06-.08,28.1c-19.09,3.65-38.16,1-58,1.78-1.14-29.36.41-57-1-86H377.23c-.58-9-1.17-18.06-1.83-28.25H349.33v-28.39h26.59c.46-9.94.86-18.55,1.3-28.19h28v56h28.54v-27.29h28.14v-57h27.43c.57-10,1.07-18.63,1.57-27.28Zm-141.07-57.45V-1448h26.24c.77,9.23,1.46,17.47,2.13,25.73Zm27.74,28.06c-.44,9.1-.88,18.19-1.32,27.41H434.13v-27.4Zm1-29.57q13.57.45,27.19.85v28.35H462.68Zm-57.9-56.51v-27.85h85.08c-.33,9.18-.66,18.37-1,27.85Zm27,144.25v26.42H405.63q.5-14.58,1-29.16Zm-26.11-3c-9.54.68-19.07,1.34-28.65,2v-27.71h26.14C404.76-1353.55,405.57-1345.31,406.37-1337.07ZM546-1419.22v25.87H517.83c.9-10.45,1.7-19.66,2.48-28.86ZM492.2-1449.6h26.56q.71,13.62,1.42,27.23l-29.34,1C490-1430.36,488.85-1439.43,492.2-1449.6Zm-2.06-170c.09-9.17.35-18.35.52-27.22h55.22c.91,9.22,1.71,17.46,2.52,25.69-9.59,1-19.18,1.94-29.21,2.94-.46,8.91-.88,17.23-1.34,26.2H490.12C490.12-1601.83,490.05-1610.71,490.14-1619.6Zm-27.2,58h26.13c.91,9.22,1.71,17.46,2.52,25.7-9.54.68-19.07,1.34-28.65,2Zm-28.87-142h26.85v83.44H434C432.89-1648.1,432.78-1676,434.07-1703.58Zm-28.44,111.25v-27.44h28c-.22,28.08-.44,56.16-.66,84.41H375.67c.91-19.89,1.77-38.58,2.6-57.25C386.83-1589.87,395.33-1590.73,405.63-1592.33Zm-.51,142.22H375.84c.86-10.39,1.62-19.59,2.37-28.77l26.9.86C405.12-1468.8,405.12-1459.58,405.12-1450.11Zm-27-225.08h25.93v26.64H377.18C376.48-1657.62,375-1666.75,378.16-1675.19Zm-29.61,27h28.3q.64,27.7,1.3,55.41c-9.59,3.24-19.19,1.54-30,1.1C348.27-1610.87,347.65-1628.94,348.55-1648.17Zm1.21,143.4h25.69c.9,9.23,1.71,17.45,2.51,25.66l-29.15,1C348-1487.21,346.63-1496.32,349.76-1504.77Zm-28.79,27H348.5V-1450H321Zm-.75,57.25c28.73,0,56.25-.36,83.76.23v27.17c-28.53,0-56.15,0-83.76,0Zm-.31,27.75q.61,27.81,1.2,55.66l-29.09,1c-.25-9.25-.65-18.5-.7-27.76s.3-18.33.5-28.91Zm-20.55-226.67c6.42.24,12.83.34,19.53.51v55.6H292c-.54-9-1.09-17.92-1.65-27.09l-28-1.29c.79-10.29,1.51-19.72,2.23-29.13C276.17-1620.39,287.77-1619.88,299.36-1619.46ZM178.5-1648.28H235v-55.58H262c.61,9.41,1.17,18.1,1.8,28h26.29v27.43l-27.69,1.3c.69,9.43,1.29,17.66,1.85,25.94-11.62.58-23.24,1.29-34.86,1.69-7.4.26-14.81,0-23.55,0v55.77H178.5Zm-.4,143.71h28c0,5.47.11,9.68,0,13.89s-.52,8.15-.79,12.1H178.1ZM149.64-1448H177c.54,9.56,1,18.22,1.59,28.07h26.79v26.87H149.57C149.18-1412.07,148.92-1430.11,149.64-1448ZM122-1618.5h26.55v26.57H122ZM93.3-1675.1H120v26.18H93.3ZM65.07-1334.54H91.42v83.61H65.07Zm-.6,114h28c0,5.46.11,9.68,0,13.88s-.52,8.15-.79,12.11H64.47Zm1.24,56.62H91.64v26.62H64.76C64-1146.34,62.56-1155.46,65.71-1163.89Zm-29.25-511.2H63.18v83.35H36.46Zm.64,536.87-28.65,2v-27.71H34.58C35.49-1154.7,36.29-1146.46,37.1-1138.22ZM18.37-1449c5.47.22,10.93.36,16.33.54v26.73H-21.87c.9-10.46,1.69-19.69,2.46-28.88Q-.51-1449.81,18.37-1449Zm-12-29.12H-20.46c-.77-9.08-2.2-18.2,1-26.62H6.42Zm-28.26-57.21c.86-10.39,1.62-19.58,2.36-28.74l25.82,2.74v26Zm2-140.34H6.41v26.84H-19.87ZM-48.36-1591c5.42,0,9.62-.13,13.81,0s8.16.58,12.31.9c.91,9.31,1.72,17.56,2.53,25.79l-28.65,2Zm0,113.24h27.62l1.23,27-28.85,2.15Zm-2.09,115.29v26H-78.65c.86-10.39,1.62-19.58,2.35-28.74Zm-54.71-28.67H-79c.9,9.22,1.71,17.47,2.52,25.7l-28.66,2Zm-28.43-113.69h26.5v26.58h-26.5Zm-.5,795.28h55v26.74h-55Zm-28-568.14h26.56v55.19h-26.56Zm-.24,483.15h27.07v26.28H-162.4Zm-.39,454.65h27v54.36h-27Zm-1.15,367.11h-26.47V.16h26.47Zm-27.24-1361.32h27v26h-27ZM-219-1590.25h27.4c0,6,.11,10.23,0,14.44s-.52,8.14-.78,12H-219Zm-.12,795.75h27.06v26.14h-27.06Z"/><path class="cls-5" d="M802.57,37.57c0-2.81,0-5.6,0-8.44H774.86c-.13,2.76-.26,5.58-.39,8.44Z"/><path class="cls-6" d="M973.29,37.57h56.88v-9.8H974C973.67,31.07,973.45,34.33,973.29,37.57Z"/><path class="cls-7" d="M1030.17,27.39h27.26v-55h-27c-.18,8.78-.55,18-.52,27.15,0,9.42.42,18.83.66,28.25Z"/><rect class="cls-8" x="1172.8" y="0.44" width="26.52" height="37.13"/><path class="cls-9" d="M1115.7,37.57c-.22-5.85-.47-11.7-.63-17.55-.17-6,0-12.12,0-19.24h-27.83c-.18,8.78-.45,18-.55,27.17,0,3.18,0,6.4,0,9.62Z"/><rect class="cls-10" x="1371.87" y="29.04" width="26.53" height="8.52"/><path class="cls-11" d="M661.27,37.57c0-3.41,0-6.81,0-10.21L633.37,28.7v8.87Z"/><rect class="cls-12" x="860.21" y="29.21" width="27.06" height="8.36"/><path class="cls-13" d="M348.41-1l0,28.79,28.79,0L377.23-1Z"/></g></g><path class="cls-14" d="M757.24,1350.68H737.09v-20.17H727c-.19-3.53-.37-6.72-.56-10.27h-9.72c-.18-3.54-.34-6.72-.52-10.1h-9.66v40.33H686v-71.11h20v9.87h10.3v10.12h10.3v10.19h10.15v-30.13h20.47Z"/><path class="cls-14" d="M850,1279.22h20v10h10.31v10.12h10.3v10.2h10.15v-30.11H921.2v71.09H901.08v-20H891c-.19-3.54-.36-6.72-.56-10.27h-9.71c-.18-3.54-.35-6.72-.53-10.12h-9.8v40.32H850Z"/><path class="cls-14" d="M839.26,1299.37v51.05H819v-19.85H788.5v19.91H768v-50.82h9.87v-10.27h10.3v-10h30.8v9.83h10.16v10.12Zm-50.73.33v20H818.6v-20.07H808.51v-9.77h-10.1v9.89Z"/><path class="cls-14" d="M1034.46,1289.38v20.35h40.48v10.37H1034.5v20.2h50.67v10.23h-71.28v-71.21h71.21v10.06Z"/><path class="cls-14" d="M522,1350.5v-71h71.25v9.85H542.66v20.23H583v10.39H542.5v30.57Z"/><path class="cls-14" d="M655.43,1340.5h19.84v10.06H614.32v-10h19.91v-51h-20v-10.28h60.95v9.91H655.43Z"/><path class="cls-14" d="M952.48,1330.3h9.86v9.81h20.55v-9.71h20.23v9.94h-9.69v10.16H952.21v-9.73h-10c-.2-3.53-.37-6.71-.57-10.26H932v-30.83h9.77v-10.12h10.31v-10.2H993v9.86h10.24v10.23h-20c-.17-3.09-.35-6.27-.54-9.7H962.71c-.14,3.14-.28,6.2-.44,9.81h-9.79Z"/><path class="cls-15" d="M751.87,1345.31H731.72v-20.17h-10.1c-.19-3.53-.37-6.72-.56-10.27h-9.72c-.18-3.54-.34-6.72-.52-10.1h-9.66v40.33H680.61V1274h20v9.87H711V1294h10.3v10.19H731.4V1274h20.47Z"/><path class="cls-15" d="M844.59,1273.85h20v10h10.31V1294h10.3v10.2h10.15v-30.11h20.47v71.09H895.71v-20H885.59c-.19-3.54-.36-6.72-.56-10.27h-9.71c-.18-3.54-.35-6.72-.53-10.12H865v40.32h-20.4Z"/><path class="cls-15" d="M833.89,1294v51h-20.3V1325.2H783.13v19.91H762.58v-50.82h9.87V1284h10.3v-10h30.8v9.83h10.16V1294Zm-50.73.33v20h30.07v-20.07H803.14v-9.77H793v9.89Z"/><path class="cls-15" d="M1029.09,1284v20.35h40.48v10.37h-40.44v20.2h50.67v10.23h-71.28V1274h71.21V1284Z"/><path class="cls-15" d="M516.6,1345.13v-71h71.25v9.85H537.29v20.23h40.3v10.39H537.13v30.57Z"/><path class="cls-15" d="M650.06,1335.13H669.9v10.06H609v-10h19.91v-51h-20V1274H669.8v9.91H650.06Z"/><path class="cls-15" d="M947.11,1324.93H957v9.81h20.55V1325h20.23V1335h-9.69v10.16H946.84v-9.73h-10c-.2-3.53-.37-6.71-.57-10.26h-9.65v-30.83h9.77v-10.12H946.7V1274h40.88v9.86h10.24v10.23h-20c-.17-3.09-.35-6.27-.54-9.7H957.34c-.14,3.14-.28,6.2-.44,9.81h-9.79Z"/><path class="cls-14" d="M652.25,1239.71H616.33v-71.82H598.66v35.42h-18.6v-35.24H562.13v71.57H526.07V1113.47h35.74v17.41h18v17.84h18.27v-17.43h18.27v-18h35.89Z"/><path class="cls-14" d="M506.81,1239.7H471.12v-35.32h-54.3v35.2H380.69v-90.09h17.46v-18.23h18v-17.87h54.63v17.38h18.29V1149h17.73Zm-89.87-90.35v35.51h53.45V1149.3H452.53v-17.46H434.61v17.51Z"/><path class="cls-14" d="M761.8,1204.16h-54v35.37H671.34v-90h17.58v-18.23h18v-17.91h54.64v17.24h18.28v18.22h17.78v90.52H761.8Zm-36.11-54.49H707.75V1185h53.34v-36H744c-.27-6.13-.51-11.57-.77-17.26H725.69Z"/><path class="cls-14" d="M1088.59,1221.84h-17.26v17.7H980.08v-17.47H962.2v-90.85h17.54v-17.84h90.92v17.33h17.93Zm-36.61-.49V1131.9H998.61v89.45Z"/><path class="cls-14" d="M943.29,1167.78v71.83h-90.1c-.31-5.51-.62-11.15-1-17.45H835c-.33-6.28-.62-11.92-1-18.22H816.87v-54.67H834.4v-18h18.27v-18h90.42v17.6H871.42v18.21h-18v54.25h17.21v17.85h36.19v-35.3H889.62v-18.12Z"/><path class="cls-14" d="M253.14,1131.43v-18.06H361.53v17.88H326V1239.4H289.22v-108Z"/><path class="cls-15" d="M642.72,1230.19H606.8v-71.83H589.13v35.42h-18.6v-35.24H552.6v71.57H516.55V1103.94h35.73v17.42h18v17.84h18.27v-17.43h18.28v-18h35.88Z"/><path class="cls-15" d="M497.28,1230.18H461.6v-35.33H407.3v35.2H371.16V1140h17.46v-18.23h18v-17.87h54.64v17.37h18.28v18.22h17.73Zm-89.87-90.35v35.51h53.45v-35.56H443v-17.46H425.09v17.51Z"/><path class="cls-15" d="M752.28,1194.63h-54V1230H661.82v-90h17.57v-18.23h18v-17.92H752v17.24h18.28v18.22H788.1v90.52H752.28Zm-36.11-54.48H698.23v35.3h53.34v-36H734.45c-.28-6.14-.52-11.58-.77-17.27H716.17Z"/><path class="cls-15" d="M1079.06,1212.31h-17.25V1230H970.55v-17.48H952.67V1121.7h17.54v-17.84h90.92v17.33h17.93Zm-36.6-.49v-89.45H989.09v89.45Z"/><path class="cls-15" d="M933.77,1158.26v71.82H843.66c-.3-5.51-.62-11.15-1-17.45H825.48c-.33-6.27-.63-11.92-1-18.22H807.34v-54.67h17.53v-18h18.28v-18h90.42v17.6H861.9v18.21h-18v54.25h17.2v17.86h36.2v-35.31H880.1v-18.11Z"/><path class="cls-15" d="M243.61,1121.9v-18.06H352v17.89H316.44v108.14H279.69v-108Z"/><path class="cls-15" d="M642.72,1230.19H606.8v-71.83H589.13v35.42h-18.6v-35.24H552.6v71.57H516.55V1103.94h35.73v17.42h18v17.84h18.27v-17.43h18.28v-18h35.88Z"/><path class="cls-15" d="M497.28,1230.18H461.6v-35.33H407.3v35.2H371.16V1140h17.46v-18.23h18v-17.87h54.64v17.37h18.28v18.22h17.73Zm-89.87-90.35v35.51h53.45v-35.56H443v-17.46H425.09v17.51Z"/><path class="cls-15" d="M752.28,1194.63h-54V1230H661.82v-90h17.57v-18.23h18v-17.92H752v17.24h18.28v18.22H788.1v90.52H752.28Zm-36.11-54.48H698.23v35.3h53.34v-36H734.45c-.28-6.14-.52-11.58-.77-17.27H716.17Z"/><path class="cls-15" d="M1079.06,1212.31h-17.25V1230H970.55v-17.48H952.67V1121.7h17.54v-17.84h90.92v17.33h17.93Zm-36.6-.49v-89.45H989.09v89.45Z"/><path class="cls-15" d="M933.77,1158.26v71.82H843.66c-.3-5.51-.62-11.15-1-17.45H825.48c-.33-6.27-.63-11.92-1-18.22H807.34v-54.67h17.53v-18h18.28v-18h90.42v17.6H861.9v18.21h-18v54.25h17.2v17.86h36.2v-35.31H880.1v-18.11Z"/><path class="cls-15" d="M243.61,1121.9v-18.06H352v17.89H316.44v108.14H279.69v-108Z"/><path class="cls-15" d="M862.76,865.65H805.2v55.7H750.28V893.82H775.5V838H693.14v27.32l26.2,1.32v28.24H665V922c7.22.32,14.4.87,21.57.87,3.77,0,4.8,1.47,5,5,.42,7,1.29,14,2,21.5l25.35,2.94v54H692.23V949.76c-8.34.8-16.91,1.48-25.42,2.65-1.08.15-2.51,2.91-2.56,4.5-.49,13.33-.75,26.67-1,40-.12,7.42,0,14.85,0,23.22-12.12-.58-23.39-.68-34.58-1.73-44.79-4.18-87.62-15.7-127.91-35.91C412.46,938.21,354.28,867.88,322.53,775a422.58,422.58,0,0,1-22.95-121.4c-1.09-29.42-1.86-59.06.39-88.36,6.2-80.88,27.74-157.91,62.32-231.29,29.15-61.86,66.37-118.26,114.77-166.78C512.33,131.82,552,102.62,599.65,85.8a193,193,0,0,1,63.48-11.54v26h30.23l-.12-.11v28.16h-29.6v84.21l27.75,1.84v26h27.8c1.08-19.29,2.15-38.36,3.22-57.42l-.1.11,25.36,2.91V130h28.81v25.62l27.68,2.11V213H778v57H749.82v28.56H693.36v27.9h55.47v56.14l56.79,1.19-.14-.13q.15,41.25.26,82.49a8,8,0,0,1-.7,2.07l-26.72,1.48v26.41l25.94,2v26.33H748.59V442.23H720.82v54.93H693v55.39H663.72v56.59h55.82V555.3H833.22c.73,17.73,1.46,35.59,2.2,53.74l25.82,3v25.62H833.15c.64-9.19,1.27-18.2,2-28.33L778,611.63c-.68-9.15-1.37-18.29-2.08-27.75H750.11V695l26,1.48V752c-27.82.77-55.39,2.13-83-.66,0-18.3,0-36.6,0-55.09H664.44v54.94h28.82v28.46H664.08v56.72H692V810.15l28.26-2V782.39h27.9c.51,8.72,1,17.3,1.54,26.35h56.08V782.17H833c.62,8.67,1.22,17.08,1.84,25.88H861.2c.54-8.57,1.08-17,1.64-25.83h27c.56,9,1.11,18,1.7,27.48h26.25v56h-27.3l.15.13V839.14h-28V865.8ZM664.62,413.84v53.75h25.79V413.84Zm-1,252.33h27.94V640.48H663.64Zm84.79-255.35V384H722.3v26.82Zm-29.19,283.6c0-7.75.17-15.18-.17-22.58-.05-1.28-2.21-3.48-3.48-3.54-7.39-.34-14.8-.17-22.48-.17v26.29Z"/><path class="cls-15" d="M890.65,439.57l-28.14,2.25v26H833.39v-83l-27.91-1,.14.13V327.62H833c.61,9.15,1.17,17.7,1.76,26.58h27.45l-.1-.1v29.49h57.54V411.8l.14-.14c-7.18.37-14.39,1.23-21.55.94-5.77-.23-7.43,2.53-7.54,7.33-.16,6.59-.14,13.19-.21,19.78Z"/><path class="cls-15" d="M890.34,242.1v27.64c-7.81.43-14.82,1.13-21.83,1.08-4.57,0-5.86,1.67-5.91,6-.07,6.84-.78,13.68-1.26,21H806.63V241.6c7.36,0,14.41-.21,21.44.08,4.06.16,5.27-1.47,5.34-5.26.13-7.43.6-14.85,1-22.95h28.37v-29.4L834,185.84V144.52c2.95,2.44,4.45,3.54,5.79,4.82,5.85,5.56,11.52,11.34,17.54,16.72,3.84,3.43,6.37,7.14,5.91,12.48-.34,4,1.2,5.51,5.51,5.84,3.18.23,7.17,1.9,9.13,4.29,13.56,16.52,26.67,33.4,40.84,51.31-10.7.86-19.59,1.58-28.47,2.28,0-9,0-18,0-27.65L863,213.37V242.1Z"/><path class="cls-15" d="M920.08,752.22H862.66c-.48-8.69-1-17.49-1.48-27L835,723.5c-2.15-17.6-2.45-35,.38-52.47.61-3.71,2.63-4.27,5.88-4.23,14.16.13,28.32.05,42.48.05H891V640.22h26.82v26.57H890.81v20c0,10.12.23,20.24-.1,30.34-.15,4.84,1,6.84,6.29,6.68,6.81-.2,13.65.59,20.89,1,.67,7.07,1.54,13.66,1.85,20.28.21,4.43,1.67,6.45,6.44,6.61,6.62.23,13.21,1.29,20,2v25.58h-27.9C918.89,770.28,919.48,761.33,920.08,752.22Z"/><path class="cls-15" d="M948.57,667V638.78h27.06V582.22h55.17c0,8.35-.08,16.37,0,24.39,0,3.35-1.72,4.06-4.57,4-6.83-.08-13.65,0-20.91,0v27.94h24.86c-.77,10-1.47,19.14-2.18,28.46Z"/><path class="cls-15" d="M890.52,865.67c.24,16.75.64,33.5.59,50.24,0,4.68,1.25,6.57,6.08,6.4,4.35-.16,8.73.46,14.9.84l-21.28,18.72V922.71H835.13V893.88h25.92c.6-9.8,1.15-19,1.71-28.23l-.14.15h28Z"/><path class="cls-15" d="M862.25,354.2V328.42h83.81v26.1c-1.37.13-2.72.35-4.06.35q-37.59,0-75.19,0a28.1,28.1,0,0,1-4.66-.76Z"/><path class="cls-15" d="M946.25,552.85h-55V527h55Z"/><path class="cls-15" d="M919.69,411.8h54.37v27.77H919.7l.12.14q0-14,0-28Z"/><path class="cls-15" d="M749.91,1008.75V952.22h26.4v13.67c0,10.89-.12,21.78.07,32.66,0,3.16-.91,4.87-4,5.49C765.16,1005.48,758,1007,749.91,1008.75Z"/><path class="cls-15" d="M946.86,297.86H919.4V245.32l1.78-.54c8.32,14,16.87,27.84,24.77,42C947.52,289.64,946.6,293.83,946.86,297.86Z"/><path class="cls-15" d="M806.8,952.29h26.08c0,8.51.09,16.88-.11,25.25,0,1.06-1.31,2.52-2.39,3.05-7.54,3.75-15.19,7.3-23.58,11.28Z"/><path class="cls-15" d="M919.7,439.57l-1.55,27.86h-27.5V439.57l-.12.14h29.29Z"/><path class="cls-15" d="M722.41,182.92l-29,3.25v-28h25.76q1.58,12.42,3.15,24.84Z"/><path class="cls-15" d="M977.09,780.54V753.88h26.2c0,7.85.19,15.28-.17,22.69-.07,1.38-2.28,3.73-3.6,3.8C992.31,780.74,985.07,780.54,977.09,780.54Z"/><path class="cls-15" d="M778,640.48h26.23V666.3H778Z"/><path class="cls-15" d="M835.15,498h26v26.41h-26Z"/><path class="cls-15" d="M693.36,100.29c-.69-8-1.39-16.05-2.2-25.49l29.24,5.4v20H693.23Z"/><path class="cls-15" d="M1025.52,527c.92,8.2,1.87,16.56,2.91,25.84l-23.05,1.57V527Z"/><path class="cls-15" d="M977.32,810.39h13.92l-13,26.34-.93-.17Z"/><path class="cls-15" d="M748.56,89.78l18.09,8.34c-.06.33-.13.65-.2,1H748.56Z"/><path class="cls-15" d="M878.7,951.13c-5.64,3.83-9.92,6.72-15,10.13V951.13Z"/></g></svg>