<svg xmlns="http://www.w3.org/2000/svg" xmlns:xlink="http://www.w3.org/1999/xlink" viewBox="0 0 3328.85 1400"><defs><style>.cls-1{fill:none;}.cls-2{clip-path:url(#clip-path);}.cls-3{clip-path:url(#clip-path-2);}.cls-4{fill:url(#linear-gradient);}.cls-5{clip-path:url(#clip-path-3);}.cls-6{clip-path:url(#clip-path-4);}.cls-7{fill:url(#linear-gradient-2);}.cls-8{fill:url(#linear-gradient-3);}.cls-9{fill:url(#linear-gradient-4);}.cls-10{fill:url(#linear-gradient-5);}.cls-11{fill:url(#linear-gradient-6);}.cls-12{fill:url(#linear-gradient-7);}.cls-13{fill:url(#linear-gradient-8);}.cls-14{fill:url(#linear-gradient-9);}.cls-15{fill:url(#linear-gradient-10);}.cls-16{fill:url(#linear-gradient-11);}.cls-17{fill:url(#linear-gradient-12);}.cls-18{fill:url(#linear-gradient-13);}.cls-19{fill:url(#linear-gradient-14);}.cls-20{fill:url(#linear-gradient-15);}.cls-21{fill:url(#linear-gradient-16);}.cls-22{fill:url(#linear-gradient-17);}.cls-23{fill:url(#linear-gradient-18);}.cls-24{fill:url(#linear-gradient-19);}.cls-25{fill:url(#linear-gradient-20);}.cls-26{fill:url(#linear-gradient-21);}.cls-27{fill:url(#linear-gradient-22);}.cls-28{fill:url(#linear-gradient-23);}.cls-29{fill:url(#linear-gradient-24);}.cls-30{fill:#4f4f4f;}</style><clipPath id="clip-path"><rect class="cls-1" x="3989.23" y="-1181.83" width="517.04" height="865.83"/></clipPath><clipPath id="clip-path-2"><path class="cls-1" d="M3989.43-336c140.69,1.79,310.51-94.94,320.48-338s-154.41-485.84-310-487.81S3673.86-925.2,3677.65-682,3848.75-337.76,3989.43-336Z"/></clipPath><linearGradient id="linear-gradient" x1="2106.16" y1="-578.96" x2="4139.48" y2="-578.96" gradientUnits="userSpaceOnUse"><stop offset="0" stop-color="#ff477e"/><stop offset="1" stop-color="#f8a050"/></linearGradient><clipPath id="clip-path-3"><rect class="cls-1" x="410.68" y="-1181.83" width="517.04" height="865.83"/></clipPath><clipPath id="clip-path-4"><path class="cls-1" d="M410.88-336c140.69,1.79,310.51-94.94,320.48-338s-154.41-485.84-310-487.81S95.31-925.2,99.1-682,270.2-337.76,410.88-336Z"/></clipPath><linearGradient id="linear-gradient-2" x1="-1472.39" y1="-578.96" x2="560.92" y2="-578.96" xlink:href="#linear-gradient"/><linearGradient id="linear-gradient-3" x1="608.64" y1="-12.61" x2="732.27" y2="-12.61" xlink:href="#linear-gradient"/><linearGradient id="linear-gradient-4" x1="510.33" y1="178.99" x2="534.86" y2="178.99" xlink:href="#linear-gradient"/><linearGradient id="linear-gradient-5" x1="683.82" y1="178.4" x2="733.45" y2="178.4" xlink:href="#linear-gradient"/><linearGradient id="linear-gradient-6" x1="485.65" y1="-48.63" x2="561.14" y2="-48.63" xlink:href="#linear-gradient"/><linearGradient id="linear-gradient-7" x1="783.08" y1="37.89" x2="880.97" y2="37.89" xlink:href="#linear-gradient"/><linearGradient id="linear-gradient-8" x1="558.96" y1="-12.73" x2="633.2" y2="-12.73" xlink:href="#linear-gradient"/><linearGradient id="linear-gradient-9" x1="585.28" y1="75.75" x2="657.9" y2="75.75" xlink:href="#linear-gradient"/><linearGradient id="linear-gradient-10" x1="831.82" y1="111.75" x2="930.63" y2="111.75" xlink:href="#linear-gradient"/><linearGradient id="linear-gradient-11" x1="510.76" y1="100.39" x2="558.94" y2="100.39" xlink:href="#linear-gradient"/><linearGradient id="linear-gradient-12" x1="1006.65" y1="125.41" x2="1054.47" y2="125.41" xlink:href="#linear-gradient"/><linearGradient id="linear-gradient-13" x1="733.19" y1="149.95" x2="757.23" y2="149.95" xlink:href="#linear-gradient"/><linearGradient id="linear-gradient-14" x1="857.9" y1="166.47" x2="881.04" y2="166.47" xlink:href="#linear-gradient"/><linearGradient id="linear-gradient-15" x1="782.71" y1="166.62" x2="808.07" y2="166.62" xlink:href="#linear-gradient"/><linearGradient id="linear-gradient-16" x1="1031.61" y1="178.95" x2="1054.76" y2="178.95" xlink:href="#linear-gradient"/><linearGradient id="linear-gradient-17" x1="955.66" y1="61.63" x2="980.24" y2="61.63" xlink:href="#linear-gradient"/><linearGradient id="linear-gradient-18" x1="932.52" y1="38.66" x2="957.73" y2="38.66" xlink:href="#linear-gradient"/><linearGradient id="linear-gradient-19" x1="806.98" y1="87.17" x2="833.86" y2="87.17" xlink:href="#linear-gradient"/><linearGradient id="linear-gradient-20" x1="759.06" y1="86.9" x2="783.38" y2="86.9" xlink:href="#linear-gradient"/><linearGradient id="linear-gradient-21" x1="585.23" y1="137.48" x2="608.41" y2="137.48" xlink:href="#linear-gradient"/><linearGradient id="linear-gradient-22" x1="387.21" y1="178.22" x2="411.57" y2="178.22" xlink:href="#linear-gradient"/><linearGradient id="linear-gradient-23" x1="585.15" y1="179.03" x2="608.76" y2="179.03" xlink:href="#linear-gradient"/><linearGradient id="linear-gradient-24" x1="138.54" y1="161.57" x2="163.71" y2="161.57" xlink:href="#linear-gradient"/></defs><g id="Fix_0001" data-name="Fix 0001"><g class="cls-2"><g class="cls-3"><path class="cls-4" d="M3321,182.67v-7.26h23.25v7.26h298.91c.27-3.2.52-6.36.78-9.5l22.54,2.34v7.16h51.05v-9h-24.48V149.3h24.38c-.2-8.18-.55-16.36-.57-24.54,0-8,.26-16,.43-25.23h24.5l.15,49.83h23.72c.53-8.48,1-16,1.56-25H3815c.88-9.48,1.63-17.44,2.36-25.37,7.48.69,15,1.35,23.4,2.09,0,6.93-.15,13,0,19.12.29,9.3.81,18.59,1.22,27.91-10.15.51-20.3,1.14-30.45,1.49-6.47.22-12.94,0-19.77,0-.45,8.89-.82,16.17-1.22,24.16h-48.65v8.88h74.87v-8.9h23c.92-9.53,1.68-17.48,2.45-25.41,7.47.8,15,1.58,23.31,2.45,0,6-.12,11.31,0,16.59.14,5.09.35,10.19.53,15.27H3916v-8.49h23.29c.46-8.72.86-16.29,1.32-24.85h49.13q0,12.4,0,24.81c12.33.09,24.65.38,37,.21,12.11-.17,24.33,1,37.51-1V149.12h49.41V124.55h-73.65V99.64h22.65V74.72h-23.95v-49c-5.59,0-10,0-14.43,0l-83.77-.64V.56h49.21V-24.16h-50.39V-72.93L3915.81-74V-97.87c32.93-1.06,65.3.36,98.8-.84v-49.12h24.44V-161c0-19-.09-38,0-57,.11-18.15.45-36.29.68-54.44l-25.91,1.54v49.19h-74.34c.62,8.42,1.14,15.63,1.65,22.85l-26.15,2.7v47.57h-25.34v-24.5h-24.4V-196.5h-74.4c.51,8.11,1,15.32,1.4,22.55-8.32,2.46-16.62,1.53-26.09.29V-221.2h-24.93v47.59h-23.56V-247h23V-296l-23.54-1.17c-.33-16.64-.55-32.42.1-49.25h24.71v24.6l25,1.11V-272h24.85c-.21-8.23-.57-16.47-.58-24.7,0-8,.31-16,.47-23.62h23.72c.41,8.2.78,15.46,1.14,22.77h23.32v-47.94l-23.2-1.14V-396.4c-8.19.25-16.39.65-24.58.7-8.42,0-16.84-.27-24.83-.42V-420l23.34-1.07c.49-9.4.9-17.15,1.3-24.9h-24.18c-2.39-15.78-1.83-64,1-73.93h23l.79-25.59q12,.42,24,.8c-.63-8-1.85-16.06,1.22-24.84h23.31l0,24.86h23.67c.58,9.15,1.06,16.69,1.51,23.92h24.62v-23.8h23.5c.52-9.21,1-17.29,1.43-25.37h-25.51c.43-16.49-.82-32.29.84-49.16h24.58v-24.75h49.58c-.68-8-1.72-16,.72-23.75h48.49v23.7l23.75,1v23.47h-23.73q.09,24.68.19,49.38c24.41,1.45,48.79,1.12,73,.13v-48.31l-22.94-1.15v-97.8H4088c.49,8.26.94,15.83,1.47,24.7l50.06-2.21q-.64-16.47-1.28-32.93c-.18-4.77-.33-9.54-.5-14.35h-99.06v48h-49.73v-23.5l-24.42-1.13v-48.22l-23.93-1.35c-.38-15.85-.77-31.71-1.19-48.95-5.3,0-9.72,0-14.14,0l-59-.63q.45-12.78.9-25.55c4,.47,7.93,1.31,11.9,1.33,24.65.12,49.31,0,74,.1,3.56,0,7.11.49,11.1.79.49,8.41.92,16,1.37,23.67h24.33v73.58h25v-48.65h24.6V-841h23.83c1.78,24.79-.5,49,1.33,72.67h48.2v-23.2L4089.38-793v-23.53l24.33-1.23v-73.93l-49.22-.35c-.38-15.85-.77-31.72-1.19-49.16h-48.24v-24c16.46-1.55,32.45.64,49.31-1.51v-24H4089v-49.79h23.74v-48.4l-24.44-1.59v-22.92h-24.86v49l-22.85-1.68c-.5,9.31-1.15,18.61-1.45,27.92-.24,7.27-.05,14.56-.05,22h-25.34v-23.18l-24.79-1.41v-49.2h-48.18v-24.39c12.67,0,24.52.13,36.38,0,12.14-.17,24.36.77,37.44-.74v-24.29h-49.4c-.38-8.73-.71-16.3-1-23.61h-74.07v47.85H3866c-.29-15.79-.58-31.59-.88-48l-23.7-1.32q.42-12.72.83-25.42c7.5,2.1,14.93,1.56,23.47.2v-24h50c-.47-7.92-.94-15.85-1.41-24l-24.47-1.13c.7-9,1.34-17.22,2-25.43,7.55,2,15,1.77,23.67-.11v-22.3h24.95v47.71h23.7c.42-8.22.82-15.79,1.27-24.37h24.68c-.42-7.7-.84-15.39-1.3-23.74l-23.39-1.46v-23.45l23.33-1.29v-27.16h-24.41v2.45h-73.67c-.28,8.11-.55,16.21-.83,24.41h-49.74c.4-9.2.79-18.09,1.17-26.86h-75.38c-.05,1.11-.1,2.18-.15,3.31h-48.11c-.58,8.73-1.08,16.31-1.57,23.77h-24.59V-1337l-23.49-1v-2.5h-74.71v27h-25.1c.09-9.16,0-18-.06-27H3443.52v2.23H3420v-2.23H2106.16V182.67Zm692.54-56.88V149h-23.44l.78-25.24C3998.37,124.45,4005.87,125.11,4013.56,125.79Zm-47.76-.72v-25c4.76,0,8.44-.11,12.1,0s7.12.51,10.78.79c.69,8.14,1.29,15.34,1.88,22.54Zm-.55-73.77h23.63V74.49h-23.63ZM3940-190.51c0-2.71.86-5.42,1.37-8.14,10.13.44,20.28.88,30.43,1.25,5.61.2,11.22.27,16.95.4v23.68l-24.46,1.61V-124h-24.36C3939.92-146.89,3939.87-168.7,3940-190.51Zm-.69-478.58h-23.61v-23.18h23.61ZM3891-767.79h49.25c-.29,8-.57,16-.87,24.25H3891Zm149.17-123.93h24v24.25h-24ZM3990-865.67h23.59v48h-23.48c-.21-8.11-.54-16.22-.57-24.34S3989.82-858,3990-865.67ZM3294.63.32h-23.1V-22.79h23.1Zm25-198.4h-23.17v-23.33h23.17Zm25.05,272.39H3321V51.5h23.62Zm124.67-916.47c-.28,8-.56,16-.85,24.15h-24.85c.75-9.08,1.42-17.1,2.06-25.09ZM3445-1165v-23.22h23.2V-1165Zm174.82,1.81h46.12c2.38,15.24,1.83,64.25-.93,73.55h-21.87c-.45,8.81-.83,16.06-1.23,23.92h-23.11C3616.42-1085.06,3617.22-1154.6,3619.8-1163.19Zm-1.43-26.5v-24.25h49.24c-.28,8-.57,16-.87,24.25Zm171.92,472.31v24.58H3742.6v25h22.88c.8,8.32,1.5,15.53,2.15,22.77-3.94.52-7.88,1.39-11.83,1.43-16.49.17-33,.07-49.47.07H3693.1v-25.26h23v-23.81l-48.21-1.14c-.22-8.1-.58-16.21-.61-24.31s.27-16,.45-24.92h49.38v25.07c13.11,0,25-.11,36.9,0C3766.22-717.72,3778.48-718.51,3790.29-717.38Zm-23.13-125.38V-865.6h23.26v22.84ZM3643.4-98.27c-8.41,0-16.82-.29-26.44-.48.8-17.87,1.53-34.12,2.23-50.33l23.85,2.49v23.24h24.84c-1-24.49-1.08-49,0-73.1h24.27v48.11l24,1.13v97.93h-23.78v24.52h-49.66c-.27-16.61-.5-32.33.12-49h25.05L3668-99C3659.78-98.72,3651.59-98.31,3643.4-98.27Zm-76.07-48.91v23.23h-48v-23.23Zm-47.81-26.12v-23.31h23.16v23.31Zm-.28-49.73v-24.21H3618c-.26,8-.53,16-.8,24.21Zm-.69-320.46c0,7-.15,13.09,0,19.19.29,9.33.81,18.65,1.2,28-8.32,2.7-16.64,1.47-25.74.65-.36-16.56-.54-32.32,0-47.87ZM3494.88-718v-23.81h47.66c.68,8,1.28,15.25,1.85,22.49C3527.84-716.37,3511.31-718.48,3494.88-718Zm23.7,123.12c.21-16.62-.54-32.35.49-49h24.62v49ZM3544-444.3h23.43v72.8H3544C3543-395.89,3542.88-420.26,3544-444.3Zm.35-76.05V-544h22.74v23.63Zm73.38,20.84c.29,9.33.82,18.65,1.21,28-8.33,2.69-16.65,1.47-25.75.64-.36-16.55-.54-32.31,0-47.87h24.49C3617.7-511.73,3617.54-505.61,3617.73-499.51Zm51.35-70.18h23.16V-545H3667.9C3667.16-552.9,3666.16-560.81,3669.08-569.69Zm-1.46,25v24.25h-24v-24.25Zm23.8-48.73-48.27-1.13c.28-8.48.56-17,.82-25.42,4,.43,7.94,1.16,11.92,1.19,16.9.14,33.8,0,50.7.11a93.3,93.3,0,0,1,9.5,1V-570h-23.58C3692.15-577.55,3691.8-585.13,3691.42-593.45Zm-24.92,99.64v23H3643v-23Zm.23,198.27c.4,8.19.75,15.44,1.19,24.2h23.35v23.77h-73c-.61-7.91-1.87-15.89,1.41-24.76h23v-23.21ZM3594-421.32v-24.26h24v24.26ZM3617-369.94v23.19h-22.92v-23.19Zm1.38-75.93q.42-12.7.83-25.41l23.48.72v24.69ZM3642.84-570h-24v-24.25h24Zm-48.65,396-25,1.75v-24.18H3592C3592.78-188.45,3593.49-181.25,3594.19-174.06Zm-25.28,76.43h23.2v23.21h-23.2Zm.28,49.85H3592c.78,8.05,1.49,15.24,2.19,22.43l-25,1.75Zm25.2,22.63,22.53,2.39V-.07h-24.59C3593.09-9.15,3593.75-17.17,3594.39-25.15Zm-2-122.12c.79-10.14,1.43-18.39,2-26.6l22.4,2.35c.78,7.93,1.48,15.09,2.19,22.24ZM3692.41-347h-24v-24.26h24Zm-.12-74.36c-.28-16.62-.5-32.33.11-49h24.74v25.46h23.74v23.54Zm25.14-49.32c-.61-7.92-1.88-15.89.86-23.25h22.62v23.25Zm-49.38-297.79v-23.21h23.2v23.21Zm23.4-49.61c.78-9.12,1.48-17.16,2.15-25.18l22.44,2.6V-818Zm74.22,74.76h-48.22c-.21-8.11-.55-16.22-.57-24.32s.29-16,.45-23.73h23.74c.39,8.14.73,15.39,1.11,23.39l23.49,1Zm-24.57-149h-48.37v-24.26H3742C3741.68-908.52,3741.4-900.54,3741.1-892.25Zm-25-99.25h-24.59c.74-9,1.4-17.06,2.05-25l22.54,2.34Zm-22.58,148.14-25.59.92.78-25.2,22.35,2C3691.91-857.67,3692.7-850.51,3693.49-843.36Zm-51-24.23c0-8.4-.07-16.16,0-23.92.08-8,.31-16,.47-23.73h24.3c0,6.2-.12,11.5,0,16.79.29,10.15.72,20.3,1,30.49C3660-865.48,3651.74-866.46,3642.48-867.59Zm25.14-123.81h-24v-24.25h24Zm-.07,149.29c-.26,8-.52,16-.79,24.22h-73.17v-24.22Zm-25.73,50.63v23.33h-23.17v-23.33ZM3616.7-916.57h-23.82c.43-16.85-.81-32.62.75-48.37h23.07Zm-23.47,222.2v-23l24.94-1.18V-742h24.57v48.53h24.88v24.5h-24.86q.51,24.38,1,48.73l-25.35,1.83V-669l-24.83,1.39c-.48,8.11-.94,15.64-1.4,23.47H3544v-23.48l23.1-1.4c.93-9.28,1.73-17.32,2.5-25.32C3577.13-692.32,3584.61-692.64,3593.23-694.37ZM3569-768v-23.11h23.1V-768Zm23.22-223.38h-23.35v-23.22h23.35Zm-22.77,296.86-26.56,2c.71-10,1.3-18.2,1.88-26.37l22.48,2C3568-708.92,3568.7-701.74,3569.41-694.57Zm-2.33-148h-24.29v-24h-23.16v-24.82h47.45Zm-24.51-297.65H3518c.75-9.06,1.41-17.08,2.05-25.08l22.54,2.4Zm-47.74-23.52v-25.07c4.73,0,8.4-.11,12.06,0s7.12.51,10.74.78c.8,8.12,1.5,15.32,2.2,22.51Zm22.92,99.89v22.79h-23.2v-22.79Zm-.1,272.53v23.75c-16.69.05-32.46.51-48.26-.27v-23.48Zm-121.21,643h23.15v24.67h-24.34C3394.52-131.54,3393.51-139.45,3396.44-148.33Zm-1.46,25V-99.1h-24v-24.26Zm23.77-246.75v23.31h-23.16v-23.31Zm-23.07-26.34V-420h23.09v23.59Zm25.69,223.33h23q.61,11.9,1.24,23.77-12.9.36-25.78.72C3419.53-156.46,3418.12-164.39,3421.37-173.12Zm-.89-24v-24.18h22.8c.79,8.05,1.49,15.24,2.2,22.43Zm-.08-75.35v-24.37h48.06c.41-8.69.77-16.24,1.13-23.66h23.56v48Zm49.86-149.47-25,1.75v-24.18h22.81C3468.85-436.31,3469.56-429.11,3470.26-421.92Zm-1.86-148.23c.76-9.06,1.42-17.09,2.06-25.08l22.53,2.39v22.69Zm-.19,49.73h-23.55v-23h23.55Zm.19,123.77c.76-9.08,1.42-17.1,2.06-25.09l23.65.94c-.28,8-.57,16-.86,24.15Zm1.86-198.77-25,1.74v-24.17h22.8C3468.85-609.81,3469.56-602.61,3470.26-595.42Zm-25.88,75.29v24.35h-25.54c.75-9.05,1.41-17.1,2-25.1Zm-48.69.81V-543.5h22.8c.79,8,1.5,15.25,2.2,22.43Zm22.79-224h-23.24v-23.37h23.24ZM3418.41-618v23.3h-48V-618Zm-24.49-174.91h-23.45c-.68-7.92-1.92-15.87.83-23.23h22.62Zm-47.75,24.55v-24.25h24v24.25ZM3369.33-717v23h-23.16v-23Zm24.52-225h-24.59c.75-9.06,1.42-17.09,2.06-25.08l22.53,2.4Zm-47.73-23.52v-24.18h22.8c.79,8,1.49,15.24,2.2,22.43Zm23.1,74.9v23.18h-23.61v-23.18Zm-23.1,842.78h22.8c.79,8.05,1.49,15.24,2.2,22.43l-25,1.75Zm25.2,22.62q16.47.63,32.94,1.27c4.77.18,9.55.32,14.37.47V-.07h-49.37C3370-9.14,3370.68-17.17,3371.32-25.16Zm-.42,51.74h22.81c.79,8.05,1.49,15.24,2.19,22.43l-25,1.75ZM3395,99.18h-24V74.93h24Zm48.52,0h-24.39V76l-23.82-1.33c.28-8.49.57-17,.82-25.46,10.13.43,20.26.89,30.39,1.27,5.59.21,11.18.3,17,.45ZM3468.18-124h-24.59c.78-9.12,1.48-17.16,2.15-25.18l22.44,2.6Zm0-49.39h-23.55c.35-8.42.69-16.85,1-25.24l22.54,2.39Zm1.54,76.25H3493v72.74h-23.21Zm.29,123.75h22.8c.79,8.05,1.49,15.24,2.2,22.43l-25,1.75Zm47.73,47.7h-24.59c.75-9.07,1.42-17.09,2.06-25.07l22.53,2.39Zm.07-495.37H3494.4c-.68-7.92-1.92-15.87.83-23.23h22.62Zm2.18-75,22.54,2.34V-471H3518C3518.72-480,3519.38-488,3520-496Zm-1,124.88h24.6v25.45h23.74v23.54h-48.78C3518.76-338.79,3518.08-354.51,3519-371.17Zm23.28,520h-22.74V125.24h22.74Zm.18-198.56h-23.56V-72.36h23.56Zm1.76,51.31h23V25h-23Zm.16,49.75h22.8c.79,8,1.49,15.24,2.2,22.43l-25,1.75Zm23.11,73.23c.74-17.65,1.43-34.14,2.09-50.61l22.77,2.42c.38,8,.72,15.22,1.13,24h23.34c.73,8.68,1.33,15.87,1.89,23.08C3602.31,126.32,3585.85,124.37,3567.52,124.6Zm49.59,50.34c.71-18.35,1.35-34.77,2-51.16l23.68.76q.49,24.15.95,48.36Zm49.45-50.72h-23.49c-.6-7.92-1.88-15.88.87-23.24h22.62ZM3790.4-24.85h-23.21V-48.06h23.21Zm99.15,148.73h-23.22V100.66h23.22Zm49.6,0h-24.7c.75-17.3,1.46-33.58,2.17-49.85,7.47.81,15,1.58,22.53,2.37Zm1.12-98.49V49.73l-25.54,1.54c.61,8.18,1.14,15.33,1.65,22.49-4.33.52-8.66,1.42-13,1.44-25.36.15-50.73,0-76.09.11-3.52,0-7,.45-11.66.77.53,8.25,1,15.42,1.43,22.61-8.31,2.49-16.58,1.48-24.75.53-2.19-17.24-1.63-39.57,1.46-49.19h96c.42-8.65.79-16.19,1.21-24.67Zm-147.95-.53V.57h24V24.83Zm122-47.61V-.06h-24.59c.74-9,1.4-17.07,2.05-25.08Q3903.06-23.94,3914.36-22.78Zm-24-49.65c0,6.91-.15,13,0,19.12.29,9.3.81,18.6,1.22,27.92l-25.49,2.62c-.39,7.79-.76,15.06-1.16,23h-48.31V-23.15L3841-24.71V-48l23.59-1.29c.87-9.25,1.61-17.23,2.36-25.19C3874.42-73.84,3881.92-73.17,3890.34-72.43Zm-97.75-101.24c15.71.62,31.46,1.22,48.71,1.87v73.09l23.43,1.06c.71,8.38,1.31,15.58,1.9,22.8-16.57,2.92-33.13.8-50.89,1.36V-147l-25.07-1.61C3791.36-157.69,3792-165.69,3792.59-173.67Zm-51,75.34c.08-8,.29-16,.44-24.28h48.49v23.68L3767-97.5c-.41,8.16-.77,15.41-1.16,23.21h-24.21C3741.62-82.85,3741.56-90.59,3741.64-98.33Zm24,124.47V99.22h-23.58c-.29-15.83-.59-31.67-.9-48.1h-23.62c-.5,8-1,15.61-1.43,23.13h-48.44c-.36-8.27-.68-15.53-1-23.18l-23.28-1.16V1.65h23.17c.51,8.24,1,15.81,1.43,23.27h23.57c.39-8.24.75-15.8,1.15-24.3h24.43V26.14Zm-47.37-49.09h22.62V.29h-23.48C3716.83-7.63,3715.55-15.59,3718.29-22.95Zm-25.58-348.57v-23.24h48.12c.68,8.05,1.28,15.24,1.87,22.43Zm73,24.81h-23.44l.78-25.24c7.47.68,15,1.34,22.66,2Zm.71-198.66c0-8.41-.07-16.16,0-23.92.08-8,.31-16.05.47-23.73h24.3c0,6.22-.12,11.51,0,16.8.29,10.15.72,20.3,1.06,30.47C3784-543.26,3775.68-544.24,3766.41-545.37Zm98.45-24.43H3841.4c-.67-7.92-1.92-15.88.83-23.23h22.63Zm24.84-122.51v48.08l-23.6,1.45c-.41,8.25-.77,15.53-1.13,22.6-14.19,2.39-89,1.92-99-.77.63-7.78,1.29-15.79,1.94-23.8,12.81,2.08,38.37,1.68,48.45-1.1v-21.78c16.93-1.85,33,.74,49.81-1.83v-22.85Zm-97.38-76v-24.25h24v24.25Zm24.32-24.55v-24.49h49.26c-.29,8-.57,16-.88,24.49ZM3839.93-742v48.29h-23.11V-742Zm99.22-125.59h-24.7c.75-17.3,1.46-33.58,2.17-49.85q11.21,1.22,22.53,2.37Zm49.56-121.83v97H3964.8c0-32.32,0-63.63.06-95,0-1.5.8-3,1.26-4.46Zm-48.5-49.78h24.49c0,7-.15,13.12,0,19.22.29,9.33.81,18.66,1.24,28l-25.77,1.79C3939.84-1007.91,3939.66-1023.68,3940.21-1039.2Zm-24.82-.11v74h23.89v23.65l-24.53,1.46c.59,8.09,1.12,15.29,1.63,22.51L3890.05-915v48.83l-23-1.7q0,12.25-.07,24.51c-16.66,3.19-33.3.84-50.66,1.56-1-25.62.37-49.77-.88-75h-73.2c-.51-7.87-1-15.76-1.59-24.65h-22.75v-24.77h23.21c.39-8.67.74-16.19,1.13-24.59h24.45V-942h24.9v-23.82h24.55v-49.7h23.94c.5-8.7.93-16.26,1.37-23.8Zm-123.09-50.13v-24.11h22.89c.68,8,1.28,15.24,1.86,22.45Zm24.2,24.48c-.38,7.94-.76,15.87-1.15,23.92h-23.44v-23.91Zm.9-25.8q11.83.39,23.72.74v24.74h-24.29Q3817.1-1078,3817.4-1090.76Zm-50.52-49.31v-24.3h74.24c-.29,8-.57,16-.87,24.3Zm23.59,125.87v23.05H3767q.45-12.72.88-25.44Zm-22.78-2.6q-12.48.9-25,1.76v-24.18h22.81C3766.29-1031.17,3767-1024,3767.69-1016.8Zm121.85-71.68v22.58H3865c.78-9.12,1.48-17.16,2.16-25.18Zm-47-26.5h23.18q.61,11.88,1.24,23.76l-25.6.9C3840.66-1098.2,3839.66-1106.11,3842.58-1115Zm-1.8-148.34c.09-8,.31-16,.46-23.75h48.19c.78,8,1.49,15.24,2.19,22.42l-25.49,2.56c-.4,7.78-.77,15-1.17,22.86h-24.19C3840.77-1247.81,3840.7-1255.57,3840.78-1263.32Zm-23.73,50.6h22.81c.78,8,1.49,15.24,2.19,22.42l-25,1.76Zm-25.19-123.88h23.43v72.81H3791.8C3790.83-1288.19,3790.74-1312.56,3791.86-1336.6Zm-24.81,97.07v-23.94h24.44c-.19,24.51-.38,49-.57,73.65h-50c.8-17.35,1.55-33.66,2.27-50C3750.64-1237.38,3758.06-1238.13,3767.05-1239.53Zm-.45,124.1h-25.55c.75-9.06,1.42-17.09,2.07-25.1l23.48.75Zm-23.52-196.39h22.62v23.24h-23.48C3741.61-1296.5,3740.34-1304.46,3743.08-1311.82Zm-25.84,23.57h24.69l1.14,48.35c-8.37,2.83-16.75,1.34-26.18,1C3717-1255.7,3716.45-1271.47,3717.24-1288.25Zm1.06,125.13h22.41c.79,8,1.49,15.22,2.19,22.38l-25.43.85C3716.79-1147.8,3715.57-1155.75,3718.3-1163.12Zm-25.13,23.54h24c0,8,0,15.93,0,24.25h-24Zm-.65,50c25.07,0,49.08-.32,73.09.2v23.7c-24.9,0-49,0-73.09,0Zm-.27,24.21q.54,24.26,1.05,48.57l-25.38.88c-.22-8.08-.58-16.15-.61-24.23s.26-16,.43-25.22Zm-17.93-197.78c5.6.2,11.19.29,17,.44v48.51h-23.45c-.48-7.82-1-15.64-1.45-23.64L3642-1239c.69-9,1.32-17.21,1.95-25.42C3654.08-1264,3664.2-1263.57,3674.32-1263.19Zm-105.46-25.15h49.25v-48.5h23.64c.52,8.21,1,15.79,1.57,24.45h22.93v23.93l-24.16,1.13c.61,8.23,1.13,15.42,1.62,22.64-10.14.51-20.28,1.13-30.42,1.48-6.45.22-12.92,0-20.55,0v48.66h-23.88Zm-.35,125.4h24.4c0,4.76.09,8.44,0,12.11s-.45,7.11-.69,10.56h-23.68Zm-24.84,49.32h23.84c.47,8.34.89,15.9,1.38,24.49h23.37v23.45h-48.65C3543.28-1082.24,3543.05-1098,3543.67-1113.62Zm-24.1-148.74h23.16v23.18h-23.16Zm-25.05-49.38h23.26v22.83h-23.26Zm-24.64,297.16h23v73h-23Zm-.52,99.5h24.41c0,4.76.09,8.44,0,12.11s-.46,7.11-.69,10.56h-23.69Zm1.08,49.4h22.63v23.23h-23.46C3468.94-850.37,3467.69-858.33,3470.44-865.68Zm-25.52-446.06h23.31V-1239h-23.31Zm.56,468.46-25,1.74v-24.17h22.8C3444.07-857.67,3444.77-850.47,3445.48-843.28Zm-16.34-271.19c4.76.19,9.53.32,14.25.47v23.33H3394c.78-9.13,1.48-17.18,2.15-25.2Q3412.66-1115.17,3429.14-1114.47Zm-10.43-25.41h-23.46c-.67-7.92-1.92-15.88.84-23.23h22.62Zm-24.66-49.92c.75-9.06,1.41-17.09,2-25.08l22.54,2.4v22.68Zm1.72-122.45h22.93v23.42h-22.93Zm-24.87,73.85c4.73,0,8.4-.1,12.06,0s7.12.51,10.74.79c.8,8.12,1.5,15.32,2.2,22.51l-25,1.74Zm0,98.82H3395l1.08,23.58-25.18,1.88Zm-1.83,100.6v22.68h-24.59c.76-9.06,1.42-17.08,2.06-25.08Zm-47.73-25h22.81c.78,8,1.49,15.24,2.19,22.43l-25,1.75Zm-24.81-99.2h23.12V-1140h-23.12Zm-.43,693.93h48v23.34h-48ZM3271.6-965h23.18v48.16H3271.6Zm-.2,421.59H3295v22.92H3271.4Zm-.34,396.71h23.59v47.44h-23.59Zm-1,320.33H3247V150h23.1Zm-23.77-1187.85h23.55v22.67h-23.55ZM3222-1237.71h23.92c0,5.25.09,8.93,0,12.6s-.46,7.1-.69,10.45H3222Zm-.1,694.35h23.61v22.8h-23.61Z"/></g></g><g class="cls-5"><g class="cls-6"><path class="cls-7" d="M-257.54,182.67v-7.26h23.26v7.26H64.63c.26-3.2.52-6.36.78-9.5L88,175.51v7.16h51v-9H114.52V149.3H138.9c-.21-8.18-.55-16.36-.58-24.54,0-8,.26-16,.44-25.23h24.5q.08,24.91.14,49.83h23.72c.53-8.48,1-16,1.57-25h47.77c.88-9.48,1.62-17.44,2.36-25.37,7.47.69,15,1.35,23.4,2.09,0,6.93-.16,13,0,19.12.29,9.3.82,18.59,1.23,27.91-10.15.51-20.3,1.14-30.46,1.49-6.46.22-12.94,0-19.77,0-.44,8.89-.81,16.17-1.21,24.16H163.39v8.88h74.87v-8.9h23c.92-9.53,1.69-17.48,2.46-25.41,7.46.8,15,1.58,23.3,2.45,0,6-.12,11.31,0,16.59.14,5.09.34,10.19.53,15.27h49.93v-8.49h23.28c.47-8.72.87-16.29,1.32-24.85h49.14l0,24.81c12.33.09,24.66.38,37,.21,12.12-.17,24.33,1,37.52-1V149.12h49.4V124.55H461.52V99.64h22.64V74.72H460.22v-49c-5.59,0-10,0-14.43,0L362,25.06V.56h49.21V-24.16H360.84V-72.93L337.26-74V-97.87c32.93-1.06,65.3.36,98.8-.84v-49.12H460.5V-161c0-19-.09-38,0-57,.11-18.15.44-36.29.68-54.44l-25.92,1.54v49.19H361c.61,8.42,1.14,15.63,1.64,22.85l-26.14,2.7v47.57H311.12v-24.5H286.71V-196.5H212.32c.51,8.11,1,15.32,1.4,22.55-8.32,2.46-16.62,1.53-26.09.29V-221.2H162.69v47.59H139.13V-247h23V-296l-23.53-1.17c-.34-16.64-.55-32.42.09-49.25h24.72v24.6l25,1.11V-272h24.84c-.2-8.23-.56-16.47-.58-24.7,0-8,.31-16,.48-23.62h23.72c.41,8.2.77,15.46,1.14,22.77h23.32v-47.94l-23.2-1.14V-396.4c-8.2.25-16.39.65-24.59.7-8.41,0-16.83-.27-24.82-.42V-420L212.07-421c.49-9.4.9-17.15,1.3-24.9H189.19c-2.39-15.78-1.84-64,1-73.93h23l.8-25.59q12,.42,24,.8c-.63-8-1.86-16.06,1.21-24.84h23.31q0,12.43,0,24.86h23.67c.58,9.15,1,16.69,1.51,23.92h24.62v-23.8h23.5c.52-9.21,1-17.29,1.43-25.37H311.77c.42-16.49-.82-32.29.84-49.16h24.58v-24.75h49.58c-.69-8-1.73-16,.72-23.75H436v23.7l23.75,1v23.47H436q.09,24.68.19,49.38c24.41,1.45,48.78,1.12,73,.13v-48.31l-22.93-1.15v-97.8H509.4c.49,8.26.94,15.83,1.46,24.7l50.06-2.21q-.63-16.47-1.27-32.93c-.18-4.77-.33-9.54-.5-14.35H460.09v48H410.36v-23.5l-24.43-1.13v-48.22L362-768.07c-.38-15.85-.77-31.71-1.19-48.95-5.31,0-9.72,0-14.14,0l-59-.63q.45-12.78.89-25.55c4,.47,7.94,1.31,11.91,1.33,24.65.12,49.31,0,74,.1,3.56,0,7.11.49,11.1.79.48,8.41.92,16,1.37,23.67h24.33v73.58h25v-48.65h24.6V-841h23.83c1.78,24.79-.5,49,1.32,72.67h48.2v-23.2L510.82-793v-23.53l24.34-1.23v-73.93L485.94-892c-.38-15.85-.77-31.72-1.19-49.16H436.5v-24c16.47-1.55,32.46.64,49.32-1.51v-24h24.6v-49.79h23.74v-48.4l-24.44-1.59v-22.92H484.86v49L462-1066.16c-.5,9.31-1.15,18.61-1.46,27.92-.24,7.27,0,14.56,0,22H435.17v-23.18l-24.79-1.41v-49.2H362.2v-24.39c12.66,0,24.52.13,36.37,0,12.15-.17,24.37.77,37.45-.74v-24.29h-49.4c-.38-8.73-.72-16.3-1-23.61H311.52v47.85H287.46c-.28-15.79-.57-31.59-.87-48l-23.71-1.32q.44-12.72.84-25.42c7.49,2.1,14.93,1.56,23.47.2v-24h50c-.46-7.92-.93-15.85-1.41-24L311.32-1239c.7-9,1.34-17.22,2-25.43,7.54,2,15,1.77,23.66-.11v-22.3h24.95v47.71h23.7c.43-8.22.83-15.79,1.27-24.37h24.69c-.42-7.7-.85-15.39-1.3-23.74l-23.39-1.46v-23.45l23.32-1.29v-27.16h-24.4v2.45H312.11c-.28,8.11-.56,16.21-.83,24.41H261.53c.4-9.2.79-18.09,1.17-26.86H187.33c-.05,1.11-.1,2.18-.16,3.31H139.06c-.57,8.73-1.07,16.31-1.56,23.77H112.91V-1337l-23.49-1v-2.5H14.71v27h-25.1c.08-9.16,0-18-.06-27H-135v2.23h-23.48v-2.23H-1472.39V182.67ZM435,125.79V149H411.56q.39-12.62.79-25.24C419.82,124.45,427.32,125.11,435,125.79Zm-47.77-.72v-25c4.77,0,8.44-.11,12.11,0s7.12.51,10.78.79c.68,8.14,1.29,15.34,1.87,22.54ZM386.7,51.3h23.63V74.49H386.7ZM361.43-190.51c0-2.71.87-5.42,1.37-8.14,10.14.44,20.29.88,30.44,1.25,5.6.2,11.21.27,16.95.4v23.68l-24.47,1.61V-124H361.37C361.37-146.89,361.31-168.7,361.43-190.51Zm-.68-478.58H337.14v-23.18h23.61Zm-48.29-98.7h49.25c-.29,8-.58,16-.87,24.25H312.46ZM461.62-891.72h24c0,8,0,15.93,0,24.25h-24Zm-50.19,26.05H435v48H411.54c-.21-8.11-.55-16.22-.57-24.34S411.27-858,411.43-865.67ZM-283.93.32H-307V-22.79h23.09Zm25-198.4h-23.17v-23.33h23.17Zm25,272.39h-23.61V51.5h23.61Zm124.68-916.47c-.28,8-.57,16-.86,24.15h-24.85c.76-9.08,1.42-17.1,2.06-25.09ZM-133.58-1165v-23.22h23.2V-1165Zm174.82,1.81H87.36c2.39,15.24,1.83,64.25-.92,73.55H64.56c-.45,8.81-.82,16.06-1.22,23.92H40.23C37.87-1085.06,38.66-1154.6,41.24-1163.19Zm-1.42-26.5v-24.25H89.06c-.29,8-.57,16-.87,24.25ZM211.74-717.38v24.58H164v25h22.89c.8,8.32,1.49,15.53,2.15,22.77-3.94.52-7.88,1.39-11.83,1.43-16.49.17-33,.07-49.47.07H114.55v-25.26h23v-23.81l-48.21-1.14c-.22-8.1-.57-16.21-.61-24.31S89-734,89.21-743h49.37v25.07c13.12,0,25-.11,36.9,0C187.67-717.72,199.92-718.51,211.74-717.38ZM188.61-842.76V-865.6h23.26v22.84ZM64.85-98.27c-8.41,0-16.82-.29-26.44-.48.8-17.87,1.52-34.12,2.22-50.33l23.86,2.49v23.24H89.33c-1-24.49-1.08-49,0-73.1h24.27v48.11l23.94,1.13v97.93H113.82v24.52H64.16c-.27-16.61-.5-32.33.11-49H89.33L89.42-99C81.23-98.72,73-98.31,64.85-98.27Zm-76.07-48.91v23.23h-48v-23.23ZM-59-173.3v-23.31h23.17v23.31ZM-59.31-223v-24.21H39.43c-.27,8-.53,16-.81,24.21ZM-60-543.49c0,7-.15,13.09,0,19.19.29,9.33.81,18.65,1.2,28-8.32,2.7-16.65,1.47-25.75.65-.36-16.56-.53-32.32,0-47.87ZM-83.67-718v-23.81H-36c.68,8,1.28,15.25,1.84,22.49C-50.71-716.37-67.25-718.48-83.67-718ZM-60-594.84c.21-16.62-.53-32.35.49-49h24.63v49ZM-34.55-444.3h23.42v72.8H-34.61C-35.58-395.89-35.68-420.26-34.55-444.3Zm.35-76.05V-544h22.74v23.63Zm73.38,20.84c.29,9.33.81,18.65,1.2,28-8.32,2.69-16.64,1.47-25.74.64-.36-16.55-.54-32.31,0-47.87H39.14C39.14-511.73,39-505.61,39.18-499.51Zm51.35-70.18h23.16V-545H89.34C88.61-552.9,87.6-560.81,90.53-569.69Zm-1.46,25v24.25h-24v-24.25Zm23.79-48.73L64.6-594.58c.28-8.48.56-17,.82-25.42,4,.43,7.94,1.16,11.91,1.19,16.9.14,33.8,0,50.7.11a93.19,93.19,0,0,1,9.51,1V-570H114C113.6-577.55,113.25-585.13,112.86-593.45ZM87.94-493.81v23H64.39v-23Zm.23,198.27c.41,8.19.76,15.44,1.19,24.2h23.35v23.77h-73c-.6-7.91-1.86-15.89,1.42-24.76h23v-23.21ZM15.47-421.32v-24.26h24v24.26Zm23,51.38v23.19H15.51v-23.19Zm1.39-75.93q.42-12.7.83-25.41l23.48.72v24.69ZM64.28-570h-24v-24.25h24Zm-48.64,396-25,1.75v-24.18h22.8C14.23-188.45,14.93-181.25,15.64-174.06ZM-9.65-97.63h23.2v23.21H-9.65Zm.29,49.85h22.8c.79,8.05,1.49,15.24,2.2,22.43l-25,1.75Zm25.2,22.63,22.53,2.39V-.07H13.78C14.53-9.15,15.2-17.17,15.84-25.15Zm-2-122.12c.79-10.14,1.43-18.39,2-26.6l22.4,2.35c.78,7.93,1.48,15.09,2.18,22.24ZM113.86-347h-24v-24.26h24Zm-.12-74.36c-.29-16.62-.51-32.33.11-49h24.73v25.46h23.74v23.54Zm25.14-49.32c-.61-7.92-1.88-15.89.86-23.25h22.62v23.25ZM89.5-768.43v-23.21h23.2v23.21ZM112.89-818c.79-9.12,1.48-17.16,2.16-25.18l22.44,2.6V-818Zm74.23,74.76H138.9c-.21-8.11-.55-16.22-.58-24.32s.3-16,.46-23.73h23.74c.39,8.14.73,15.39,1.11,23.39l23.49,1Zm-24.57-149H114.17v-24.26h49.25C163.13-908.52,162.85-900.54,162.55-892.25Zm-25-99.25H112.93c.74-9,1.4-17.06,2-25l22.54,2.34ZM114.94-843.36l-25.6.92q.41-12.6.79-25.2l22.35,2C113.36-857.67,114.15-850.51,114.94-843.36Zm-51-24.23c0-8.4-.07-16.16,0-23.92.09-8,.32-16,.48-23.73h24.3c0,6.2-.13,11.5,0,16.79.28,10.15.71,20.3,1,30.49C81.48-865.48,73.19-866.46,63.93-867.59ZM89.07-991.4h-24v-24.25h24ZM89-842.11c-.26,8-.52,16-.8,24.22H15v-24.22ZM63.26-791.48v23.33H40.1v-23.33ZM38.14-916.57H14.33c.43-16.85-.81-32.62.74-48.37H38.14ZM14.68-694.37v-23l24.94-1.18V-742H64.19v48.53H89.07v24.5H64.21q.5,24.38,1,48.73l-25.34,1.83V-669L15-667.63c-.49,8.11-.94,15.64-1.41,23.47H-34.56v-23.48l23.11-1.4c.92-9.28,1.72-17.32,2.5-25.32C-1.42-692.32,6.06-692.64,14.68-694.37ZM-9.59-768v-23.11H13.5V-768ZM13.62-991.43H-9.73v-23.22H13.62ZM-9.15-694.57l-26.55,2c.71-10,1.3-18.2,1.88-26.37l22.48,2C-10.56-708.92-9.85-701.74-9.15-694.57Zm-2.32-148H-35.76v-24H-58.93v-24.82h47.46ZM-36-1140.23H-60.58c.76-9.06,1.42-17.08,2.06-25.08l22.53,2.4Zm-47.73-23.52v-25.07c4.73,0,8.4-.11,12.06,0s7.12.51,10.74.78c.79,8.12,1.5,15.32,2.2,22.51Zm22.92,99.89v22.79H-84v-22.79Zm-.1,272.53v23.75c-16.69.05-32.47.51-48.26-.27v-23.48Zm-121.22,643H-159v24.67H-183.3C-184-131.54-185-139.45-182.12-148.33Zm-1.46,25V-99.1h-24v-24.26Zm23.78-246.75v23.31H-183v-23.31Zm-23.08-26.34V-420h23.1v23.59Zm25.7,223.33h23q.63,11.9,1.24,23.77-12.89.36-25.78.72C-159-156.46-160.44-164.39-157.18-173.12Zm-.9-24v-24.18h22.81c.78,8.05,1.49,15.24,2.19,22.43Zm-.07-75.35v-24.37h48.05c.42-8.69.78-16.24,1.14-23.66H-85.4v48Zm49.86-149.47-25,1.75v-24.18h22.8C-109.7-436.31-109-429.11-108.29-421.92Zm-1.86-148.23c.75-9.06,1.42-17.09,2.06-25.08l22.53,2.39v22.69Zm-.2,49.73h-23.54v-23h23.54Zm.2,123.77c.75-9.08,1.42-17.1,2.06-25.09l23.65.94c-.29,8-.57,16-.86,24.15Zm1.86-198.77-25,1.74v-24.17h22.8C-109.7-609.81-109-602.61-108.29-595.42Zm-25.88,75.29v24.35h-25.55c.75-9.05,1.42-17.1,2.06-25.1Zm-48.69.81V-543.5h22.8c.79,8,1.49,15.25,2.2,22.43Zm22.78-224h-23.23v-23.37h23.23ZM-160.14-618v23.3h-48V-618Zm-24.49-174.91h-23.46c-.67-7.92-1.92-15.87.84-23.23h22.62Zm-47.75,24.55v-24.25h24v24.25ZM-209.23-717v23h-23.15v-23Zm24.53-225h-24.59c.75-9.06,1.41-17.09,2-25.08l22.54,2.4Zm-47.74-23.52v-24.18h22.81c.79,8,1.49,15.24,2.19,22.43Zm23.11,74.9v23.18h-23.61v-23.18ZM-232.44-47.78h22.81c.79,8.05,1.49,15.24,2.2,22.43l-25,1.75Zm25.21,22.62q16.47.63,32.94,1.27c4.77.18,9.55.32,14.36.47V-.07h-49.36C-208.54-9.14-207.87-17.17-207.23-25.16Zm-.42,51.74h22.8c.79,8.05,1.5,15.24,2.2,22.43l-25,1.75Zm24.07,72.6h-24V74.93h24Zm48.53,0h-24.39V76l-23.82-1.33q.42-12.74.82-25.46c10.13.43,20.26.89,30.39,1.27,5.59.21,11.18.3,17,.45ZM-110.37-124H-135c.79-9.12,1.48-17.16,2.16-25.18l22.44,2.6Zm0-49.39h-23.55c.34-8.42.69-16.85,1-25.24l22.54,2.39Zm1.53,76.25h23.22v72.74H-108.8Zm.29,123.75H-85.7c.79,8.05,1.49,15.24,2.19,22.43l-25,1.75Zm47.74,47.7H-85.36c.75-9.07,1.42-17.09,2-25.07l22.54,2.39Zm.07-495.37H-84.16c-.67-7.92-1.92-15.87.84-23.23H-60.7Zm2.18-75L-36-493.71V-471H-60.57C-59.83-480-59.18-488-58.52-496Zm-1,124.88h24.6v25.45h23.74v23.54H-60C-59.79-338.79-60.48-354.51-59.52-371.17Zm23.27,520H-59V125.24h22.74Zm.18-198.56H-59.62V-72.36h23.55Zm1.76,51.31h23V25h-23Zm.16,49.75h22.81c.78,8,1.49,15.24,2.19,22.43l-25,1.75ZM-11,124.6C-10.29,107-9.6,90.46-8.94,74l22.77,2.42c.38,8,.72,15.22,1.13,24H38.3c.73,8.68,1.33,15.87,1.89,23.08C23.75,126.32,7.29,124.37-11,124.6Zm49.58,50.34c.72-18.35,1.36-34.77,2-51.16l23.68.76q.49,24.15.94,48.36ZM88,124.22H64.52c-.61-7.92-1.88-15.88.86-23.24H88ZM211.84-24.85h-23.2V-48.06h23.2ZM311,123.88H287.78V100.66H311Zm49.6,0h-24.7c.76-17.3,1.47-33.58,2.18-49.85,7.47.81,15,1.58,22.52,2.37Zm1.13-98.49c0,8,0,15.93,0,24.37l-25.53,1.54c.61,8.18,1.14,15.33,1.65,22.49-4.33.52-8.66,1.42-13,1.44-25.37.15-50.73,0-76.1.11-3.51,0-7,.45-11.65.77.53,8.25,1,15.42,1.42,22.61-8.3,2.49-16.58,1.48-24.75.53C211.58,82,212.14,59.65,215.23,50h96c.43-8.65.8-16.19,1.22-24.67Zm-148-.53V.57h24c0,8,0,15.94,0,24.26ZM335.81-22.78V-.06H311.22c.74-9,1.39-17.07,2-25.08Q324.51-23.94,335.81-22.78Zm-24-49.65c0,6.91-.16,13,0,19.12.29,9.3.81,18.6,1.22,27.92l-25.5,2.62c-.39,7.79-.75,15.06-1.15,23H238.09V-23.15l24.35-1.56V-48L286-49.33c.86-9.25,1.61-17.23,2.35-25.19C295.86-73.84,303.37-73.17,311.79-72.43ZM214-173.67c15.71.62,31.46,1.22,48.71,1.87v73.09l23.43,1.06c.7,8.38,1.31,15.58,1.9,22.8-16.58,2.92-33.13.8-50.89,1.36V-147l-25.08-1.61C212.81-157.69,213.42-165.69,214-173.67ZM163.09-98.33c.07-8,.28-16,.44-24.28H212v23.68L188.43-97.5c-.41,8.16-.77,15.41-1.16,23.21h-24.2C163.07-82.85,163-90.59,163.09-98.33Zm24,124.47V99.22H163.53c-.29-15.83-.59-31.67-.9-48.1H139c-.5,8-1,15.61-1.43,23.13H89.14c-.37-8.27-.68-15.53-1-23.18L64.83,49.92V1.65H88c.5,8.24,1,15.81,1.42,23.27H113c.39-8.24.75-15.8,1.15-24.3h24.42V26.14ZM139.74-22.95h22.62V.29H138.88C138.27-7.63,137-15.59,139.74-22.95ZM114.16-371.52v-23.24h48.12c.67,8.05,1.28,15.24,1.86,22.43Zm73,24.81H163.7q.39-12.62.79-25.24c7.47.68,15,1.34,22.66,2Zm.71-198.66c0-8.41-.07-16.16,0-23.92.09-8,.32-16.05.48-23.73h24.3c0,6.22-.13,11.51,0,16.8.28,10.15.71,20.3,1.06,30.47C205.42-543.26,197.12-544.24,187.86-545.37ZM286.3-569.8H262.85c-.68-7.92-1.92-15.88.83-23.23H286.3Zm24.84-122.51v48.08l-23.59,1.45c-.41,8.25-.78,15.53-1.13,22.6-14.19,2.39-89,1.92-99-.77.63-7.78,1.28-15.79,1.93-23.8,12.82,2.08,38.38,1.68,48.46-1.1v-21.78c16.93-1.85,33,.74,49.81-1.83v-22.85Zm-97.38-76v-24.25h24c0,8,0,15.94,0,24.25Zm24.33-24.55v-24.49h49.26c-.29,8-.58,16-.88,24.49ZM261.37-742v48.29h-23.1V-742Zm99.22-125.59h-24.7c.76-17.3,1.47-33.58,2.18-49.85q11.21,1.22,22.52,2.37Zm49.57-121.83v97H386.25c0-32.32,0-63.63.06-95,0-1.5.8-3,1.26-4.46Zm-48.51-49.78h24.5c0,7-.16,13.12,0,19.22.29,9.33.82,18.66,1.25,28l-25.78,1.79C361.29-1007.91,361.11-1023.68,361.65-1039.2Zm-24.81-.11v74h23.89v23.65l-24.54,1.46c.6,8.09,1.13,15.29,1.64,22.51L311.5-915v48.83l-23-1.7q0,12.25-.07,24.51c-16.66,3.19-33.31.84-50.66,1.56-1-25.62.36-49.77-.88-75h-73.2c-.51-7.87-1-15.76-1.59-24.65H139.37v-24.77h23.2c.4-8.67.75-16.19,1.13-24.59h24.45V-942h24.91v-23.82h24.55v-49.7h23.93c.5-8.7.94-16.26,1.37-23.8Zm-123.1-50.13v-24.11h22.9c.67,8,1.28,15.24,1.86,22.45ZM238-1065c-.38,7.94-.77,15.87-1.16,23.92H213.36v-23.91Zm.9-25.8q11.84.39,23.72.74v24.74h-24.3Q238.56-1078,238.85-1090.76Zm-50.53-49.31v-24.3h74.24c-.28,8-.57,16-.86,24.3Zm23.6,125.87v23.05H188.49q.44-12.72.87-25.44Zm-22.78-2.6c-8.33.6-16.64,1.18-25,1.76v-24.18h22.8C187.73-1031.17,188.44-1024,189.14-1016.8ZM311-1088.48v22.58h-24.6c.79-9.12,1.48-17.16,2.17-25.18ZM264-1115H287.2q.63,11.88,1.25,23.76l-25.61.9C262.11-1098.2,261.11-1106.11,264-1115Zm-1.8-148.34c.08-8,.3-16,.46-23.75h48.18c.79,8,1.5,15.24,2.2,22.42l-25.49,2.56c-.4,7.78-.77,15-1.17,22.86h-24.2C262.21-1247.81,262.15-1255.57,262.23-1263.32Zm-23.73,50.6h22.8c.79,8,1.49,15.24,2.2,22.42l-25,1.76ZM213.31-1336.6h23.42v72.81H213.25C212.28-1288.19,212.18-1312.56,213.31-1336.6Zm-24.82,97.07v-23.94h24.45c-.19,24.51-.38,49-.57,73.65h-50c.8-17.35,1.54-33.66,2.27-50C172.09-1237.38,179.51-1238.13,188.49-1239.53Zm-.45,124.1H162.5c.75-9.06,1.42-17.09,2.07-25.1l23.47.75Zm-23.51-196.39h22.62v23.24H163.66C163.06-1296.5,161.79-1304.46,164.53-1311.82Zm-25.85,23.57h24.7q.57,24.16,1.13,48.35c-8.37,2.83-16.74,1.34-26.17,1C138.44-1255.7,137.9-1271.47,138.68-1288.25Zm1.06,125.13h22.42c.79,8,1.49,15.22,2.19,22.38l-25.43.85C138.24-1147.8,137-1155.75,139.74-1163.12Zm-25.12,23.54h24v24.25h-24Zm-.65,50c25.06,0,49.07-.32,73.08.2v23.7c-24.89,0-49,0-73.08,0Zm-.28,24.21q.56,24.26,1,48.57l-25.38.88c-.22-8.08-.57-16.15-.61-24.23s.26-16,.44-25.22ZM95.77-1263.19c5.59.2,11.19.29,17,.44v48.51H89.35c-.47-7.82-.95-15.64-1.44-23.64L63.46-1239c.69-9,1.32-17.21,1.95-25.42C75.53-1264,85.65-1263.57,95.77-1263.19ZM-9.69-1288.34H39.56v-48.5H63.19c.53,8.21,1,15.79,1.57,24.45H87.7v23.93l-24.16,1.13c.6,8.23,1.13,15.42,1.61,22.64-10.14.51-20.27,1.13-30.41,1.48-6.46.22-12.92,0-20.55,0v48.66H-9.69Zm-.36,125.4H14.36c0,4.76.09,8.44,0,12.11s-.46,7.11-.69,10.56H-10Zm-24.83,49.32H-11c.47,8.34.9,15.9,1.39,24.49H13.71v23.45H-34.94C-35.28-1082.24-35.5-1098-34.88-1113.62ZM-59-1262.36h23.16v23.18H-59ZM-84-1311.74h23.26v22.83H-84Zm-24.63,297.16h23v73h-23Zm-.52,99.5h24.4c0,4.76.1,8.44,0,12.11s-.46,7.11-.69,10.56h-23.69Zm1.08,49.4h22.62v23.23h-23.45C-109.62-850.37-110.86-858.33-108.11-865.68Zm-25.53-446.06h23.32V-1239h-23.32Zm.56,468.46-25,1.74v-24.17h22.81C-134.49-857.67-133.78-850.47-133.08-843.28Zm-16.34-271.19c4.77.19,9.54.32,14.25.47v23.33h-49.37c.79-9.13,1.48-17.18,2.16-25.2Q-165.91-1115.17-149.42-1114.47Zm-10.43-25.41H-183.3c-.68-7.92-1.92-15.88.83-23.23h22.62Zm-24.66-49.92c.76-9.06,1.42-17.09,2.06-25.08l22.53,2.4v22.68Zm1.72-122.45h22.93v23.42h-22.93Zm-24.86,73.85c4.73,0,8.4-.1,12.06,0s7.12.51,10.74.79c.79,8.12,1.5,15.32,2.2,22.51l-25,1.74Zm0,98.82h24.1q.54,11.79,1.07,23.58l-25.17,1.88Zm-1.83,100.6v22.68h-24.59c.75-9.06,1.42-17.08,2.06-25.08Zm-47.73-25h22.8c.79,8,1.49,15.24,2.2,22.43l-25,1.75ZM-282-1163.2h23.13V-1140H-282Zm-.43,693.93h48v23.34h-48ZM-306.95-965h23.18v48.16h-23.18Zm-.21,421.59h23.62v22.92h-23.62Zm-.33,396.71h23.59v47.44h-23.59Zm-1,320.33h-23.1V150h23.1Zm-23.78-1187.85h23.56v22.67h-23.56Zm-24.29-223.48h23.91c0,5.25.1,8.93,0,12.6s-.46,7.1-.69,10.45h-23.2Zm-.11,694.35H-333v22.8h-23.62Z"/><path class="cls-8" d="M709.21-48.72H684.16c-.4-8.42-.75-15.67-1.14-23.68-3.51-.38-6.65-1-9.79-1-16.88-.09-33.75,0-50.63-.1-4,0-8.06-.8-12.09-1.23l.23-.22c-.67,8.08-1.33,16.17-2.1,25.49l25,1.5v23.87h49.22V.36H659.9V25.12l23.17,1.11v23.5h24.52c.49-7.51,1-15.08,1.52-23.45l23.16-1.11v-48.4H708.9V-49S709.21-48.72,709.21-48.72Z"/><path class="cls-9" d="M534.85,182.67c0-2.45,0-4.88,0-7.36H510.67c-.11,2.41-.23,4.87-.34,7.36Z"/><path class="cls-10" d="M683.82,182.67h49.63v-8.55h-49C684.14,177,684,179.85,683.82,182.67Z"/><path class="cls-11" d="M485.65-49.3l24.2,1.35V0h24.88V-47.49l26.41-2.71-.21.23L558.71-72.9l-23.3-1c-.38-8-.72-15.22-1.1-23.35H510.63c-.31,7.08-.64,14.6-1,23.08L486-72.72V-49Z"/><path class="cls-12" d="M808.79,74c-.53-7.27-1.06-14.53-1.69-23h49.08c.58-8.64,1.08-16.21,1.64-24.6L881,25.15V1.37c-15.49-.9-31.27-.4-48.31-.26V25.4H783.38V74.93l-.3-.3L809,73.74Z"/><path class="cls-13" d="M561.14-50.2c-.71,16.34-1.41,32.68-2.18,50.3l24.95,1.45V24.73H633.2V1.34H609.87c-.43-8.77-.79-16-1.22-24.84H585c-.42-8.77-.76-16-1.14-24-7.88-.82-15.45-1.61-23-2.43Z"/><path class="cls-14" d="M657.9,51.19H609.78V74.62l-24.5,1.14V98.12c8.13,2.36,54.86,3,72.62.88Z"/><path class="cls-15" d="M833.87,98.5c-.69,8.09-1.38,16.18-2,24,9.75,2.75,83.07,3.38,98.81,1V100.64c-3.93-.19-7.89-.55-11.84-.55-24.33-.06-48.66,0-73-.09-4,0-8-.89-12.08-1.34Z"/><path class="cls-16" d="M535.16,124.23h23.78v-48H510.76V99.51H533.9c.58,9,1.08,17,1.59,25Z"/><path class="cls-17" d="M1054.47,125.06h-23.3c-.36-8.3-.68-15.54-1.05-23.89h-23.47v48c7.63.15,15.64.36,23.65.44,7.76.08,15.52,0,24.17,0Z"/><path class="cls-18" d="M733.45,173.8h23.78v-48H733.65c-.16,7.66-.48,15.68-.46,23.7,0,8.21.37,16.43.58,24.64Z"/><rect class="cls-19" x="857.9" y="150.28" width="23.14" height="32.4"/><path class="cls-20" d="M808.07,182.67c-.19-5.1-.4-10.2-.54-15.3-.15-5.29,0-10.58,0-16.8H783.22c-.16,7.67-.39,15.69-.48,23.71,0,2.78,0,5.59,0,8.39Z"/><rect class="cls-21" x="1031.61" y="175.24" width="23.15" height="7.44"/><path class="cls-22" d="M957.74,49c-.66,8.08-1.33,16.16-2.08,25.3h24.58V51.61L957.51,49.2Z"/><path class="cls-23" d="M957.51,49.2c-.7-7.25-1.41-14.49-2.2-22.61H932.52V50.74L957.73,49Z"/><path class="cls-24" d="M809,73.74c-.63,8.31-1.26,16.63-2,26.87l26.88-2.1-.14.15c-.77-7.2-1.57-14.39-2.44-22.34-7.45-.76-15-1.54-22.51-2.34Z"/><path class="cls-25" d="M783.38,74.93H759.06V99.17h24V74.63Z"/><path class="cls-26" d="M585.23,149.07h23.18V125.89H585.23Z"/><path class="cls-27" d="M411.55,182.67c0-3,0-5.93,0-8.9l-24.36,1.16v7.74Z"/><rect class="cls-28" x="585.15" y="175.38" width="23.61" height="7.29"/><path class="cls-29" d="M138.56,149q0,12.57,0,25.13l25.12,0,.05-25.15Z"/></g></g><path d="M585.47,1024.16H535V1073H486.91v-24.12H509V999.89H436.85v23.94L459.8,1025v24.74H412.18v23.81c6.33.28,12.61.76,18.9.77,3.3,0,4.21,1.28,4.39,4.35.38,6.17,1.14,12.31,1.77,18.84l22.21,2.58v47.31h-23.4v-49.53c-7.31.71-14.82,1.3-22.28,2.33-.94.13-2.19,2.55-2.24,3.94-.43,11.68-.66,23.37-.85,35.05-.1,6.51,0,13,0,20.35-10.61-.51-20.49-.6-30.29-1.51-39.25-3.67-76.78-13.76-112.07-31.46-77.38-38.81-128.36-100.44-156.18-181.81A370.52,370.52,0,0,1,92,838.37c-1-25.78-1.62-51.76.34-77.43,5.44-70.86,24.31-138.36,54.61-202.65,25.54-54.2,58.15-103.61,100.56-146.12,30.9-31,65.64-56.57,107.41-71.3a169,169,0,0,1,55.62-10.12v22.81H437l-.11-.1v24.68H411v73.78l24.32,1.61v22.74h24.35c.95-16.9,1.89-33.6,2.82-50.31l-.08.1,22.22,2.55v-49h25.23v22.45l24.26,1.85v48.43h-23v50H486.5v25H437v24.45h48.6V601l49.76,1-.12-.11q.12,36.14.23,72.28a7.12,7.12,0,0,1-.62,1.81l-23.41,1.3v23.14l22.73,1.72v23.07H485.43V653.17H461.1V701.3H436.72v48.52H411.07v49.59H460V752.24h99.6c.64,15.53,1.28,31.18,1.93,47.08l22.62,2.6v22.46H559.52c.56-8.06,1.11-16,1.73-24.83l-50,2c-.6-8-1.2-16-1.83-24.32H486.76v97.35l22.74,1.3v48.65c-24.36.68-48.52,1.87-72.7-.58,0-16,0-32.06,0-48.27H411.7v48.14H437V948.8H411.39v49.69h24.42v-23l24.75-1.76V951.2H485c.45,7.65.89,15.16,1.36,23.1H535.5V951h23.91c.54,7.61,1.06,15,1.61,22.68H584.1c.47-7.51.94-14.87,1.43-22.63h23.68c.49,7.91,1,15.8,1.5,24.08h23v49H609.79l.13.12v-23.36H585.34v23.37ZM411.86,628.29v47.09h22.59V628.29ZM411,849.38h24.49V826.87H411Zm74.3-223.73v-23.5H462.4v23.5ZM459.71,874.13c0-6.79.15-13.3-.14-19.78-.05-1.13-1.94-3.06-3.05-3.11-6.48-.29-13-.14-19.7-.14v23Z"/><path d="M609.9,650.84l-24.66,2v22.75H559.73V602.82l-24.45-.92.12.11V552.75h24c.53,8,1,15.51,1.53,23.29H585l-.09-.1v25.85h50.41V626.5l.13-.12c-6.3.32-12.61,1.07-18.88.83-5.06-.2-6.51,2.21-6.61,6.42-.14,5.78-.13,11.55-.18,17.33Z"/><path d="M609.63,477.81V502c-6.85.38-13,1-19.13,1-4,0-5.13,1.46-5.18,5.26-.06,6-.68,12-1.1,18.37H536.28V477.37c6.45,0,12.63-.18,18.79.07,3.56.15,4.62-1.28,4.67-4.6.12-6.51.53-13,.85-20.11h24.85V427l-25.22,1.55v-36.2c2.58,2.14,3.9,3.1,5.07,4.22,5.13,4.87,10.1,9.94,15.37,14.65,3.37,3,5.59,6.25,5.18,10.94-.29,3.46,1,4.83,4.83,5.11,2.79.21,6.28,1.67,8,3.76,11.87,14.48,23.37,29.26,35.78,45l-24.94,2c0-7.91,0-15.81,0-24.23l-23.82-1.09v25.17Z"/><path d="M635.69,924.77H585.37c-.41-7.61-.84-15.32-1.29-23.64l-22.92-1.52c-1.88-15.42-2.14-30.68.34-46,.53-3.25,2.3-3.74,5.15-3.71,12.4.11,24.81.05,37.22,0h6.37V826.65h23.5v23.27H610v17.55c0,8.86.2,17.73-.08,26.59-.14,4.23.87,6,5.5,5.85,6-.18,12,.52,18.31.86.59,6.19,1.34,12,1.62,17.77.19,3.88,1.46,5.64,5.64,5.79,5.8.2,11.58,1.13,17.53,1.77v22.41H634.12C634.64,940.6,635.16,932.75,635.69,924.77Z"/><path d="M660.65,850.11V825.38h23.71V775.82H732.7c0,7.32-.07,14.35,0,21.37,0,2.94-1.5,3.56-4,3.53-6-.07-12,0-18.32,0v24.48h21.78c-.68,8.79-1.29,16.77-1.91,24.93Z"/><path d="M609.79,1024.17c.2,14.68.56,29.36.52,44,0,4.1,1.09,5.75,5.32,5.6,3.81-.13,7.65.4,13.06.74L610,1090.94v-16.79H561.26v-25.26H584l1.5-24.73-.13.14h24.58Z"/><path d="M585,576V553.45h73.43v22.87c-1.21.11-2.38.31-3.56.31q-32.94,0-65.88,0a25.12,25.12,0,0,1-4.08-.66Z"/><path d="M658.62,750.09H610.4v-22.7h48.22Z"/><path d="M635.34,626.5H683v24.33H635.35l.11.13q0-12.29,0-24.58Z"/><path d="M486.58,1149.54V1100h23.14v12c0,9.54-.1,19.08.06,28.62,0,2.76-.8,4.26-3.54,4.81C500,1146.68,493.68,1148.05,486.58,1149.54Z"/><path d="M659.15,526.67H635.09v-46l1.56-.46c7.29,12.25,14.78,24.39,21.71,36.84C659.73,519.47,658.92,523.14,659.15,526.67Z"/><path d="M536.43,1100.07h22.86c0,7.46.07,14.79-.1,22.12a4,4,0,0,1-2.1,2.68c-6.61,3.28-13.3,6.39-20.66,9.88Z"/><path d="M635.35,650.83c-.44,8-.89,16.08-1.36,24.41H609.9v-24.4l-.1.12h25.66Z"/><path d="M462.49,426l-25.42,2.85v-24.5h22.56q1.38,10.88,2.77,21.76Z"/><path d="M685.64,949.59V926.22h23c0,6.89.17,13.4-.14,19.89-.06,1.21-2,3.26-3.16,3.32C699,949.76,692.63,949.59,685.64,949.59Z"/><path d="M511.23,826.87h23V849.5h-23Z"/><path d="M561.27,702H584v23.15H561.27Z"/><path d="M437,353.56c-.61-7-1.22-14.06-1.93-22.33L460.73,336v17.49H436.92Z"/><path d="M728.07,727.44c.81,7.18,1.64,14.51,2.55,22.64l-20.19,1.37v-24Z"/><path d="M685.84,975.74H698c-4,8.09-7.69,15.58-11.38,23.08l-.82-.15Z"/><path d="M485.4,344.36l15.86,7.31-.18.84H485.4Z"/><path d="M599.43,1099.06l-13.11,8.87v-8.87Z"/></g><g id="Layer_16" data-name="Layer 16"><path class="cls-30" d="M2535.17,949.41h-46.56v-46.6h-23.34c-.44-8.18-.83-15.53-1.27-23.74h-22.47c-.42-8.18-.79-15.53-1.19-23.35H2418v93.2h-47.5V784.6h46.31v22.81h23.81v23.38h23.8v23.55h23.46V784.72h47.28Z"/><path class="cls-30" d="M2749.44,784.27h46.25v23.1h23.82v23.38h23.8v23.57h23.45V784.74h47.31V949h-46.5V902.85H2844.2c-.45-8.17-.85-15.52-1.29-23.74h-22.45c-.43-8.17-.81-15.53-1.21-23.37H2796.6V948.9h-47.16Z"/><path class="cls-30" d="M2724.73,830.85V948.8h-46.92V902.93h-70.39v46h-47.49V831.51h22.81V807.77h23.81v-23h71.18v22.71h23.47v23.39Zm-117.25.76v46.1H2677V831.34h-23.32V808.75h-23.33v22.86Z"/><path class="cls-30" d="M3175.8,807.75v47h93.55v24h-93.46v46.67H3293v23.63H3128.27V784.52h164.54v23.23Z"/><path class="cls-30" d="M2025.82,949V784.83h164.64v22.76H2073.62v46.74h93.13v24h-93.5V949Z"/><path class="cls-30" d="M2299.93,925.9h45.84v23.23H2204.92V926.05h46V808.26h-46.26V784.52h140.85v22.89h-45.6Z"/><path class="cls-30" d="M2986.37,902.32h22.76V925h47.49V902.56h46.77v23H3081V949h-95.28V926.52h-23.1c-.45-8.17-.86-15.51-1.31-23.72H2939V831.57h22.57V808.18h23.81V784.61h94.48v22.77h23.66V831h-46.25c-.39-7.15-.8-14.49-1.24-22.42H3010c-.33,7.25-.65,14.33-1,22.68h-22.61Z"/><path d="M2522.77,937h-46.56V890.4h-23.35c-.44-8.17-.83-15.53-1.27-23.74h-22.47c-.41-8.17-.79-15.53-1.19-23.35H2405.6v93.2h-47.5V772.19h46.31V795h23.81v23.38H2452v23.55h23.45V772.31h47.29Z"/><path d="M2737,771.87h46.25V795h23.82v23.38h23.8v23.57h23.45V772.33h47.31V936.61h-46.5V890.44h-23.37c-.44-8.17-.85-15.52-1.29-23.74h-22.45c-.42-8.17-.81-15.52-1.21-23.37h-22.65v93.16H2737Z"/><path d="M2712.32,818.44V936.39H2665.4V890.52H2595v46h-47.49V819.1h22.81V795.36h23.81v-23h71.18v22.71h23.47v23.39Zm-117.25.76v46.11h69.5V818.93h-23.31V796.34h-23.34V819.2Z"/><path d="M3163.4,795.34v47h93.54v24h-93.46V913h117.09v23.64H3115.86V772.11H3280.4v23.23Z"/><path d="M2013.41,936.6V772.42h164.64v22.76H2061.21v46.74h93.13v24h-93.5V936.6Z"/><path d="M2287.52,913.49h45.84v23.23H2192.51V913.64h46V795.85h-46.25V772.11h140.84V795h-45.6Z"/><path d="M2974,889.91h22.76v22.67h47.49V890.15H3091v23h-22.39v23.46h-95.28V914.11h-23.1c-.45-8.17-.85-15.51-1.31-23.72h-22.29V819.16h22.57V795.77H2973V772.2h94.48V795h23.66v23.65h-46.24c-.4-7.15-.81-14.49-1.25-22.42h-46c-.33,7.25-.65,14.33-1,22.68H2974Z"/><path class="cls-30" d="M1323.55,949.41h-46.92V855.62h-23.07v46.25h-24.29v-46h-23.41v93.46h-47.09V784.55h46.67v22.74H1229v23.3h23.86V807.83h23.86V784.3h46.87Z"/><path class="cls-30" d="M1133.62,949.4H1087V903.27H1016.1v46H968.92V831.59h22.79v-23.8h23.53V784.45h71.34v22.69h23.88v23.79h23.16Zm-117.37-118v46.37h69.81V831.35h-23.33V808.54h-23.39v22.87Z"/><path class="cls-30" d="M1466.61,903h-70.56v46.2h-47.57V831.71h23V807.9H1395V784.51h71.34V807h23.88v23.79h23.22V949h-46.79Zm-47.15-71.15H1396v46.1h69.66v-47h-22.36c-.36-8-.67-15.11-1-22.55h-22.86Z"/><path class="cls-30" d="M1893.36,926.07h-22.53v23.12H1751.66V926.37h-23.35V807.74h22.9v-23.3h118.73v22.63h23.42Zm-47.8-.64V808.62h-69.7V925.43Z"/><path class="cls-30" d="M1703.62,855.48v93.8H1586c-.4-7.2-.81-14.56-1.26-22.79H1562.2c-.43-8.2-.81-15.57-1.24-23.8h-22.44V831.3h22.89V807.85h23.87V784.31h118.08v23h-93.59v23.78H1586.3v70.84h22.47v23.32H1656v-46.1h-22.5V855.48Z"/><path class="cls-30" d="M802.35,808V784.42H943.9v23.35H897.45V949h-48V808Z"/><path d="M1311.11,937H1264.2V843.18h-23.08v46.25h-24.29v-46h-23.41v93.46h-47.09V772.11H1193v22.74h23.52v23.3h23.86V795.39h23.86V771.87h46.87Z"/><path d="M1121.18,937h-46.6V890.83h-70.92v46H956.48V819.15h22.8v-23.8h23.52V772h71.34V794.7H1098v23.79h23.16ZM1003.81,819v46.37h69.81V818.91h-23.33V796.1H1026.9V819Z"/><path d="M1454.18,890.54h-70.57v46.2H1336V819.27h23v-23.8h23.52v-23.4h71.34v22.51h23.88v23.8H1501V936.59h-46.78ZM1407,819.39h-23.43v46.1h69.66v-47h-22.36c-.36-8-.67-15.11-1-22.54H1407Z"/><path d="M1880.92,913.63h-22.53v23.12H1739.22V913.93h-23.35V795.3h22.9V772H1857.5v22.63h23.42Zm-47.8-.64V796.18h-69.7V913Z"/><path d="M1691.18,843v93.8H1573.51c-.4-7.2-.81-14.56-1.26-22.79h-22.49c-.42-8.2-.81-15.57-1.24-23.8h-22.44V818.86H1549V795.41h23.87V771.87h118.08v23h-93.59v23.78h-23.47v70.84h22.47V912.8h47.26V866.7h-22.5V843Z"/><path d="M789.91,795.56V772H931.46v23.35H885V936.56H837v-141Z"/><path d="M1311.11,937H1264.2V843.18h-23.08v46.25h-24.29v-46h-23.41v93.46h-47.09V772.11H1193v22.74h23.52v23.3h23.86V795.39h23.86V771.87h46.87Z"/><path d="M1121.18,937h-46.6V890.83h-70.92v46H956.48V819.15h22.8v-23.8h23.52V772h71.34V794.7H1098v23.79h23.16ZM1003.81,819v46.37h69.81V818.91h-23.33V796.1H1026.9V819Z"/><path d="M1454.18,890.54h-70.57v46.2H1336V819.27h23v-23.8h23.52v-23.4h71.34v22.51h23.88v23.8H1501V936.59h-46.78ZM1407,819.39h-23.43v46.1h69.66v-47h-22.36c-.36-8-.67-15.11-1-22.54H1407Z"/><path d="M1880.92,913.63h-22.53v23.12H1739.22V913.93h-23.35V795.3h22.9V772H1857.5v22.63h23.42Zm-47.8-.64V796.18h-69.7V913Z"/><path d="M1691.18,843v93.8H1573.51c-.4-7.2-.81-14.56-1.26-22.79h-22.49c-.42-8.2-.81-15.57-1.24-23.8h-22.44V818.86H1549V795.41h23.87V771.87h118.08v23h-93.59v23.78h-23.47v70.84h22.47V912.8h47.26V866.7h-22.5V843Z"/><path d="M789.91,795.56V772H931.46v23.35H885V936.56H837v-141Z"/></g></svg>