<svg xmlns="http://www.w3.org/2000/svg" viewBox="0 0 1400 1400"><defs><style>.cls-1{fill:#fff;}</style></defs><g id="Layer_16" data-name="Layer 16"><path class="cls-1" d="M949.44,1101H877v70.13H807.8v-34.66h31.75v-70.36H735.84v34.4l33,1.66v35.56H700.39V1172c9.1.41,18.13,1.09,27.17,1.1,4.74,0,6.05,1.84,6.31,6.25.54,8.87,1.63,17.7,2.54,27.08l31.93,3.7v68H734.7v-71.19c-10.5,1-21.3,1.87-32,3.35-1.36.18-3.15,3.66-3.22,5.67-.62,16.78-1,33.57-1.22,50.37-.15,9.35,0,18.7,0,29.24-15.25-.72-29.45-.85-43.54-2.17-56.41-5.27-110.34-19.78-161.07-45.22-111.21-55.77-184.47-144.34-224.45-261.3-16.94-49.53-27-100.6-28.9-152.87-1.37-37-2.34-74.38.49-111.28,7.8-101.84,34.93-198.85,78.47-291.25,36.71-77.9,83.58-148.91,144.53-210,44.42-44.52,94.35-81.29,154.38-102.47,25.51-9,51.79-14.32,79.94-14.53v32.78h38.06l-.16-.15v35.48H698.7v106l34.94,2.31v32.68h35c1.36-24.29,2.7-48.29,4.05-72.3l-.12.14,31.93,3.66V174.66h36.27v32.27l34.86,2.65v69.61h-33V351H807.21v36H736.12v35.13H806V492.8l71.51,1.5-.17-.17q.18,51.95.33,103.89a10.29,10.29,0,0,1-.89,2.6l-33.65,1.86v33.26l32.67,2.48v33.16H805.66V567.82h-35V637h-35v69.74H698.79V778h70.3V710.2H912.24c.92,22.33,1.84,44.82,2.77,67.67l32.51,3.74v32.27H912.15c.81-11.58,1.6-22.93,2.49-35.68l-71.92,2.94c-.87-11.53-1.73-23-2.63-34.95H807.58V886.1L840.27,888v69.93c-35,1-69.75,2.67-104.49-.84,0-23,0-46.08,0-69.37h-36v69.19H736V992.7H699.25v71.42h35.1v-33l35.58-2.54V996.16h35.13c.64,11,1.27,21.78,1.94,33.19h70.62V995.89H912c.77,10.92,1.53,21.5,2.31,32.58h33.17c.69-10.79,1.36-21.37,2.06-32.51h34c.7,11.36,1.41,22.7,2.15,34.6h33V1101H984.39l.19.17v-33.57H949.25v33.58Zm-249.51-569v67.69h32.48V532.06Zm-1.24,317.76h35.18V817.47H698.69ZM805.47,528.26V494.49H772.56v33.77ZM768.71,885.39c0-9.76.21-19.11-.21-28.43-.07-1.62-2.79-4.39-4.39-4.47-9.3-.42-18.64-.2-28.31-.2v33.1Z"/><path class="cls-1" d="M984.55,564.47l-35.43,2.84V600H912.45V495.46l-35.14-1.33.17.17V423.5H912c.76,11.51,1.47,22.28,2.21,33.47h34.56l-.13-.14V494h72.46V529.5l.18-.17c-9,.45-18.12,1.53-27.13,1.18-7.27-.29-9.36,3.19-9.5,9.23-.2,8.3-.18,16.61-.26,24.91Z"/><path class="cls-1" d="M984.17,315.8v34.8c-9.84.54-18.67,1.43-27.49,1.37-5.76,0-7.38,2.1-7.44,7.56-.1,8.62-1,17.24-1.59,26.41H878.76V315.17c9.26,0,18.14-.26,27,.1,5.12.21,6.64-1.85,6.72-6.61.17-9.36.76-18.71,1.22-28.91H949.4v-37L913.15,245v-52c3.72,3.07,5.61,4.46,7.29,6.06,7.38,7,14.51,14.28,22.1,21.06,4.83,4.32,8,9,7.44,15.71-.43,5,1.51,7,6.94,7.35,4,.3,9,2.4,11.5,5.41,17.06,20.8,33.58,42.06,51.42,64.62L984,316V281.18l-34.22-1.55V315.8Z"/><path class="cls-1" d="M1021.62,958.17H949.31c-.6-10.93-1.21-22-1.87-34L914.51,922c-2.7-22.16-3.08-44.09.49-66.07.76-4.68,3.3-5.38,7.4-5.34,17.82.17,35.66.07,53.49.07h9.16V817.14h33.77v33.45H984.76v25.23c0,12.74.29,25.48-.12,38.21-.2,6.08,1.25,8.61,7.91,8.41,8.58-.26,17.2.74,26.31,1.23.85,8.9,1.93,17.21,2.33,25.54.27,5.58,2.1,8.12,8.1,8.32,8.34.29,16.64,1.63,25.2,2.55v32.21h-35.13C1020.12,980.91,1020.86,969.64,1021.62,958.17Z"/><path class="cls-1" d="M1057.49,850.87V815.33h34.07V744.1H1161c0,10.52-.1,20.62,0,30.71.05,4.22-2.16,5.12-5.76,5.08-8.59-.1-17.18,0-26.32,0V815h31.3l-2.75,35.83Z"/><path class="cls-1" d="M984.39,1101c.3,21.09.81,42.19.75,63.28,0,5.89,1.58,8.26,7.65,8,5.48-.2,11,.57,18.77,1.06L984.75,1197v-24.13h-70.1v-36.3h32.64c.74-12.34,1.45-23.94,2.15-35.54l-.19.19h35.33Z"/><path class="cls-1" d="M948.79,457V424.51h105.54v32.86c-1.73.16-3.42.44-5.11.44q-47.34,0-94.68,0a35.18,35.18,0,0,1-5.87-1Z"/><path class="cls-1" d="M1054.58,707.12h-69.3V674.5h69.3Z"/><path class="cls-1" d="M1021.12,529.5h68.46v35h-68.44l.15.19q0-17.65,0-35.32Z"/><path class="cls-1" d="M807.33,1281.21V1210h33.24v17.22c0,13.71-.14,27.42.09,41.13.06,4-1.15,6.12-5.08,6.91C826.53,1277.1,817.52,1279.06,807.33,1281.21Z"/><path class="cls-1" d="M1055.34,386h-34.57V319.85l2.23-.67c10.48,17.61,21.24,35.05,31.2,52.95C1056.16,375.67,1055,380.94,1055.34,386Z"/><path class="cls-1" d="M879,1210.11h32.84c0,10.72.11,21.26-.13,31.79,0,1.34-1.67,3.18-3,3.85-9.5,4.72-19.12,9.19-29.69,14.2Z"/><path class="cls-1" d="M1021.14,564.46c-.65,11.55-1.29,23.1-1.95,35.09H984.55V564.47l-.14.18h36.88Z"/><path class="cls-1" d="M772.7,241.28l-36.54,4.09V210.15h32.43q2,15.65,4,31.28A1.79,1.79,0,0,0,772.7,241.28Z"/><path class="cls-1" d="M1093.41,993.84V960.26h33c0,9.89.24,19.25-.21,28.57-.09,1.74-2.88,4.7-4.54,4.79C1112.57,994.09,1103.45,993.84,1093.41,993.84Z"/><path class="cls-1" d="M842.75,817.46h33V850h-33Z"/><path class="cls-1" d="M914.67,638h32.67v33.26H914.67Z"/><path class="cls-1" d="M736.12,137.23c-.88-10.11-1.75-20.21-2.77-32.1l36.81,6.8v25.13H736Z"/><path class="cls-1" d="M1154.39,674.57c1.16,10.32,2.35,20.85,3.67,32.53l-29,2V674.57Z"/><path class="cls-1" d="M1093.7,1031.42h17.53c-5.73,11.62-11,22.4-16.36,33.18l-1.17-.22Z"/><path class="cls-1" d="M805.62,124l22.79,10.5c-.08.4-.17.81-.25,1.21H805.62Z"/><path class="cls-1" d="M969.51,1208.66l-18.84,12.75v-12.75Z"/></g></svg>